<mxfile host="app.diagrams.net" modified="2023-12-15T09:18:57.255Z" agent="Mozilla/5.0 (Macintosh; Intel Mac OS X 10_15_7) AppleWebKit/537.36 (KHTML, like Gecko) Chrome/119.0.0.0 Safari/537.36" etag="tRdEgF7wz78pzi6eyqbc" version="22.1.9" type="device">
  <diagram name="Page-1" id="Mbp6TUmh01o_bM0El3VR">
    <mxGraphModel dx="985" dy="551" grid="1" gridSize="10" guides="1" tooltips="1" connect="1" arrows="1" fold="1" page="1" pageScale="1" pageWidth="850" pageHeight="1100" math="0" shadow="0">
      <root>
        <mxCell id="0" />
        <mxCell id="1" parent="0" />
        <mxCell id="ue6O0AK6JI9zVMHHh_M3-28" value="" style="group" vertex="1" connectable="0" parent="1">
          <mxGeometry x="450" y="660" width="220" height="190" as="geometry" />
        </mxCell>
        <mxCell id="ue6O0AK6JI9zVMHHh_M3-13" value="" style="rounded=1;whiteSpace=wrap;html=1;strokeColor=#FFB570;" vertex="1" parent="ue6O0AK6JI9zVMHHh_M3-28">
          <mxGeometry width="220" height="190" as="geometry" />
        </mxCell>
        <mxCell id="ue6O0AK6JI9zVMHHh_M3-7" value="" style="shape=image;verticalLabelPosition=bottom;labelBackgroundColor=default;verticalAlign=top;aspect=fixed;imageAspect=0;image=data:image/png,iVBORw0KGgoAAAANSUhEUgAAA14AAAJ4CAYAAAB1WjJtAAAKpGlDQ1BJQ0MgUHJvZmlsZQAASImVlwdQU+kWx79700NCS4h0Qg1FkE4AKSG00KWDjZAECCXGkCBiRxZXcC2IiIC6YEUUXAsgNsSChUWxYHeDLCLquliwofJuYAi7++a9N+/MfDm/OTnfOee7c7+Z/wWAjOaKxdmwOgA5IqkkOsiPnpiUTMcNAhIgAAiggQOXlytmRUWFAcQm/d/tQy+SidgtW0Wtf///v5oGX5DLAwCKQjiVn8vLQfgYsuQ8sUQKAKociZsukooV3IowVYIMiHCXgtMnWK7g1Al+P54TG80GAI0HAE/iciXpAJCoSJyex0tH6pCcEbYX8YUihPkIe+fkLEA8aTfClkiOGGFFfWbqX+qk/61mqrIml5uu5ImzjBveX5grzuYu/j8fx/+2nGzZZA8LZJEyJMHRin7IM7uXtSBUyaLUiMhJFvInZlJwhiw4bpJ5uezkSeZz/UOVe7MjwiY5TRjIUdaRcmInWZAbEDPJkgXRyl5pEjZrkrmSqb6yrDhlPEPAUdYvyIhNmOQ8YXzEJOdmxYRO5bCVcYksWjm/QBTkN9U3UHn2nNy/nFfIUe6VZsQGK8/OnZpfIGJN1cxNVM7GF/gHTOXEKfPFUj9lL3F2lDJfkB2kjOfmxSj3SpEXcmpvlPIZZnJDoiYZCEE44AKeVJAvVQzPXiBeLBGmZ0jpLORWCegcEc9uOt3R3tEJAMUdnXgF3tHG7x5EuzoVK9IDwOv12NjYyalY6B4AjiYBQLw9FWNoAaB6AoDLO3gySd5EDK34wQAiUANUoAMMgSmwBLbAEbgCT+ALAkAIiASxIAnMAzyQAXKABCwCS8EqUAxKwUawBVSBnWAX2A8OgSOgBZwC58AlcA3cAHfAQyAHA+AlGAYfwCgEQTiIDFEgHcgIModsIEeICXlDAVAYFA0lQSlQOiSCZNBSaDVUCpVBVVAtVA/9Ap2AzkFXoB7oPtQHDUFvoS8wCibBVNgAtoBnwEyYBYfCsfBcOB1eCBfARfB6uBKugw/CzfA5+Bp8B5bDL+ERFECpoGgoY5QtiolioyJRyag0lAS1HFWCqkDVoRpRbahO1C2UHPUK9RmNRVPQdLQt2hMdjI5D89AL0cvR69BV6P3oZvQF9C10H3oY/R1DxuhjbDAeGA4mEZOOWYQpxlRg9mKOYy5i7mAGMB+wWCwNy8C6YYOxSdhM7BLsOux2bBO2HduD7ceO4HA4HZwNzgsXiePipLhi3DbcQdxZ3E3cAO4TXgVvhHfEB+KT8SJ8Ib4CfwB/Bn8TP4gfJagTzAkehEgCn7CYsIGwm9BGuE4YIIwSNYgMohcxlphJXEWsJDYSLxIfEd+pqKiYqLirzFIRqqxUqVQ5rHJZpU/lM0mTZE1ik+aQZKT1pH2kdtJ90jsymWxB9iUnk6Xk9eR68nnyE/InVYqqnSpHla+6QrVatVn1puprNYKauRpLbZ5agVqF2lG162qv1AnqFupsda76cvVq9RPqd9VHNCgaDhqRGjka6zQOaFzReK6J07TQDNDkaxZp7tI8r9lPQVFMKWwKj7KasptykTJAxVIZVA41k1pKPUTtpg5raWo5a8Vr5WtVa53WktNQNAsah5ZN20A7QuulfZlmMI01TTBt7bTGaTenfdTW0/bVFmiXaDdp39H+okPXCdDJ0tmk06LzWBeta607S3eR7g7di7qv9Kh6nno8vRK9I3oP9GF9a/1o/SX6u/S79EcMDA2CDMQG2wzOG7wypBn6GmYalhueMRwyohh5GwmNyo3OGr2ga9FZ9Gx6Jf0CfdhY3zjYWGZca9xtPGrCMIkzKTRpMnlsSjRlmqaZlpt2mA6bGZmFmy01azB7YE4wZ5pnmG817zT/aMGwSLBYY9Fi8ZyhzeAwChgNjEeWZEsfy4WWdZa3rbBWTKssq+1WN6xhaxfrDOtq6+s2sI2rjdBmu03PdMx09+mi6XXT79qSbFm2ebYNtn12NLswu0K7FrvXM8xmJM/YNKNzxnd7F/ts+932Dx00HUIcCh3aHN46WjvyHKsdbzuRnQKdVji1Or1xtnEWOO9wvudCcQl3WePS4fLN1c1V4troOuRm5pbiVuN2l0llRjHXMS+7Y9z93Fe4n3L/7OHqIfU44vGnp61nlucBz+czGTMFM3fP7Pcy8eJ61XrJveneKd4/e8t9jH24PnU+T31Nffm+e30HWVasTNZB1ms/ez+J33G/j2wP9jJ2uz/KP8i/xL87QDMgLqAq4EmgSWB6YEPgcJBL0JKg9mBMcGjwpuC7HAMOj1PPGQ5xC1kWciGUFBoTWhX6NMw6TBLWFg6Hh4RvDn8UYR4himiJBJGcyM2Rj6MYUQujTs7CzoqaVT3rWbRD9NLozhhKzPyYAzEfYv1iN8Q+jLOMk8V1xKvFz4mvj/+Y4J9QliBPnJG4LPFakm6SMKk1GZccn7w3eWR2wOwtswfmuMwpntM7lzE3f+6Vebrzsuednq82nzv/aAomJSHlQMpXbiS3jjuSykmtSR3msXlbeS/5vvxy/pDAS1AmGEzzSitLe57ulb45fSjDJ6Mi45WQLawSvskMztyZ+TErMmtf1lh2QnZTDj4nJeeESFOUJbqwwHBB/oIesY24WCxf6LFwy8JhSahkby6UOze3VUpFxFCXzFL2g6wvzzuvOu/TovhFR/M18kX5XYutF69dPFgQWLBnCXoJb0nHUuOlq5b2LWMtq10OLU9d3rHCdEXRioGVQSv3ryKuylr1a6F9YVnh+9UJq9uKDIpWFvX/EPRDQ7FqsaT47hrPNTt/RP8o/LF7rdPabWu/l/BLrpbal1aUfl3HW3f1J4efKn8aW5+2vnuD64YdG7EbRRt7N/ls2l+mUVZQ1r85fHNzOb28pPz9lvlbrlQ4V+zcStwq2yqvDKts3Wa2beO2r1UZVXeq/aqbavRr1tZ83M7ffnOH747GnQY7S3d++Vn4873aoNrmOou6il3YXXm7nu2O3925h7mnfq/u3tK93/aJ9sn3R++/UO9WX39A/8CGBrhB1jB0cM7BG4f8D7U22jbWNtGaSg+Dw7LDL35J+aX3SOiRjqPMo43HzI/VHKccL2mGmhc3D7dktMhbk1p7ToSc6GjzbDt+0u7kvlPGp6pPa53ecIZ4pujM2NmCsyPt4vZX59LP9XfM73h4PvH87QuzLnRfDL14+VLgpfOdrM6zl70un7riceXEVebVlmuu15q7XLqO/+ry6/Fu1+7m627XW2+432jrmdlz5qbPzXO3/G9dus25fe1OxJ2e3rjee3fn3JXf4997fj/7/psHeQ9GH658hHlU8lj9ccUT/Sd1v1n91iR3lZ/u8+/rehrz9GE/r//l77m/fx0oekZ+VjFoNFj/3PH5qaHAoRsvZr8YeCl+Ofqq+A+NP2peW74+9qfvn13DicMDbyRvxt6ue6fzbt975/cdI1EjTz7kfBj9WPJJ59P+z8zPnV8SvgyOLvqK+1r5zepb2/fQ74/GcsbGxFwJd1wKoJAFp6UB8HYfAGREO1BuIPph9oSGHjdoQvePE/hPPKGzx80VgEbEKaQQux2Aw+0TEpaMeIUMivUFsJOTck3q3XFtrjAs8pXSyLgiXZPfW46vBf+wCd3+l7n/6YGiqkL6/93/C+ZmBgUus0LEAAAAimVYSWZNTQAqAAAACAAEARoABQAAAAEAAAA+ARsABQAAAAEAAABGASgAAwAAAAEAAgAAh2kABAAAAAEAAABOAAAAAAAAAJAAAAABAAAAkAAAAAEAA5KGAAcAAAASAAAAeKACAAQAAAABAAADXqADAAQAAAABAAACeAAAAABBU0NJSQAAAFNjcmVlbnNob3TLoTfRAAAACXBIWXMAABYlAAAWJQFJUiTwAAAB1mlUWHRYTUw6Y29tLmFkb2JlLnhtcAAAAAAAPHg6eG1wbWV0YSB4bWxuczp4PSJhZG9iZTpuczptZXRhLyIgeDp4bXB0az0iWE1QIENvcmUgNi4wLjAiPgogICA8cmRmOlJERiB4bWxuczpyZGY9Imh0dHA6Ly93d3cudzMub3JnLzE5OTkvMDIvMjItcmRmLXN5bnRheC1ucyMiPgogICAgICA8cmRmOkRlc2NyaXB0aW9uIHJkZjphYm91dD0iIgogICAgICAgICAgICB4bWxuczpleGlmPSJodHRwOi8vbnMuYWRvYmUuY29tL2V4aWYvMS4wLyI+CiAgICAgICAgIDxleGlmOlBpeGVsWURpbWVuc2lvbj42MzI8L2V4aWY6UGl4ZWxZRGltZW5zaW9uPgogICAgICAgICA8ZXhpZjpQaXhlbFhEaW1lbnNpb24+ODYyPC9leGlmOlBpeGVsWERpbWVuc2lvbj4KICAgICAgICAgPGV4aWY6VXNlckNvbW1lbnQ+U2NyZWVuc2hvdDwvZXhpZjpVc2VyQ29tbWVudD4KICAgICAgPC9yZGY6RGVzY3JpcHRpb24+CiAgIDwvcmRmOlJERj4KPC94OnhtcG1ldGE+CjDotckAAAAcaURPVAAAAAIAAAAAAAABPAAAACgAAAE8AAABPAAAtVuV9M55AABAAElEQVR4AeydB4Ac1ZH+a9IG5ZyFckQJkAiSECJnG2OiDcbG9nHGh893ONv3P/ts39nns8/2BYfDZxwPsI1JJmcJEAhJKOechYSytDvxX78322hZbZietDO7VdCanZme7tdfv+5+36uqrwIpNTEzBAwBQ8AQMAQMAUPAEDAEDAFDwBAoGAIBI14Fw9Y2bAgYAoaAIWAIGAKGgCFgCBgChoBDwIiXdQRDwBAwBAwBQ8AQMAQMAUPAEDAECoyAEa8CA2ybNwQMAUPAEDAEDAFDwBAwBAwBQ8CIl/UBQ8AQMAQMAUPAEDAEDAFDwBAwBAqMgBGvAgNsmzcEDAFDwBAwBAwBQ8AQMAQMAUPAiJf1AUPAEDAEDAFDwBAwBAwBQ8AQMAQKjIARrwIDbJs3BAwBQ8AQMAQMAUPAEDAEDAFDwIiX9QFDwBAwBAwBQ8AQMAQMAUPAEDAECoyAEa8CA2ybNwQMAUPAEDAEDAFDwBAwBAwBQ8CIl/UBQ8AQMAQMAUPAEDAEDAFDwBAwBAqMgBGvAgNsmzcEDAFDwBAwBAwBQ8AQMAQMAUPAiJf1AUPAEDAEDAFDwBAwBAwBQ8AQMAQKjIARrwIDbJs3BAwBQ8AQMAQMAUPAEDAEDAFDwIiX9QFDwBAwBAwBQ8AQMAQMAUPAEDAECoyAEa8CA2ybNwQMAUPAEDAEDAFDwBAwBAwBQ8CIl/UBQ8AQMAQMAUPAEDAEDAFDwBAwBAqMgBGvAgNsmzcEDAFDwBAwBAwBQ8AQMAQMAUPAiJf1AUPAEDAEDAFDwBAwBAwBQ8AQMAQKjIARrwIDbJs3BAwBQ8AQMAQMAUPAEDAEDAFDwIiX9QFDwBAwBAwBQ8AQMAQMAUPAEDAECoyAEa8CA2ybNwQMAUPAEDAEDAFDwBAwBAwBQ8CIl/UBQ8AQMAQMAUPAEDAEDAFDwBAwBAqMgBGvAgNsmzcEDAFDwBAwBAwBQ8AQMAQMAUPAiJf1AUPAEDAEDAFDwBAwBAwBQ8AQMAQKjIARrwIDbJs3BAwBQ8AQMAQMAUPAEDAEDAFDwIiX9QFDwBAwBAwBQ8AQMAQMAUPAEDAECoyAEa8CA2ybNwQMAUPAEDAEDAFDwBAwBAwBQ8CIl/UBQ8AQMAQMAUPAEDAEDAFDwBAwBAqMgBGvAgNsmzcEDAFDwBAwBAwBQ8AQMAQMAUPAiJf1AUPAEDAEDAFDwBAwBAwBQ8AQMAQKjIARrwIDbJs3BAwBQ8AQMAQMAUPAEDAEDAFDwIiX9QFDwBAwBAwBQ8AQMAQMAUPAEDAECoyAEa8CA2ybNwQMAUPAEDAEDAFDwBAwBAwBQ8CIl/UBQ8AQMAQMAUPAEDAEDAFDwBAwBAqMgBGvAgNsmzcEDAFDwBAwBAwBQ8AQMAQMAUPAiJf1AUPAEDAEDAFDwBAwBAwBQ8AQMAQKjIARrwIDbJs3BAwBQ8AQMAQMAUPAEDAEDAFDwIiX9QFDwBAwBAwBQ8AQMAQMAUPAEDAECoyAEa8CA2ybNwQMAUPAEDAEDAFDwBAwBAwBQ8CIl/UBQ8AQMAQMAUPAEDAEDAFDwBAwBAqMgBGvAgPcZjafSkkqGdfDCUggFHKvbebY7EAMAUPAEDAEDAFDwBAwBAyBAiNgxKvAALeZzScTkozWSCAQlEBFpfKvYJs5NDsQQ8AQMAQMAUPAEDAEDAFDoNAIGPEqNMJlvP1UrEZSxw5KfPtqSezdJqmaYxLo0FlCfU6RUM/Bugwq46OzphsChoAhYAgYAoaAIWAIGALFQ8CIV/GwLp89JZMaVqgerkNvS+LtzRJd+oLENy+T1PEjEuzaW0JDJ0hk2BSpGHa6SKRSAuEK9YAF0kv5HKW11BAwBAwBQ8AQMAQMAUPAECgaAka8igZ1+ewoefSAJA/vk9jq1yW+fqEk1duVPLRPUomYhhlWS6BT97TXq/9wiQydLKFBY/TzDmkCVj6HaS01BAwBQ8AQMAQMAUPAEDAEioaAEa+iQV36O0rFazWc8Kgk9myW+M51El8+V+IbFkkqrqIa6gWrb4FOXSXQtadUjJshkVFnSqj3YAl27iUSVOENvF9mhoAhYAgYAoaAIWAIGAKGgCHwLgJGvN6Fwv5IHNil+VyrJL5uocTXvKler3c0x+uQiCoauqU+ROGw83AFe/SXkHq+KqZcLOGhkyRQ1VFVDyP117S/DQFDwBAwBAwBQ8AQMAQMgXaPgBGvdt8FlFPh6TpywJGu6Jo3JLF5uSS2rMoMGVU4DHbpIZFTZ6nna6qEB4zSUMQeafJlnq/MMLS1DAFDwBAwBAwBQ8AQMATaPAJGvNr8KW75AJNH3pHY5iUSWzNfwwtfdZ4uidW2/EPWgFyFIyq60UvCQ06VyjOvltDA0RKs6pwOO8xsK7aWIWAIGAKGgCFgCBgChoAh0KYRMOLVpk9vCweXUvXC2mMS371Roouf1XyuxZLYuVEyJl3e5iFfkQoh7DAyeppERpwh4eFTJFht5MuDyF4NAUPAEDAEDAFDwBAwBNo3Aka82vH5R6UweXCPxFRAo/bF+5R0rT85l8sPPur5ClR31LDDmVJ13i0S6tFPApEqP1uwdQ0BQ8AQMAQMAUPAEDAEDIE2iYARrzZ5Wls+KIojI54RW/2axNa+qd6uJZJSyficLBh0YYehgaMkMl7VDkec7uTmc9qm/dgQMAQMAUPAEDAEDAFDwBBoAwgY8WoDJzGbQ3DFkTXEsOa1hySuxCtVc0wkobLxebBA5+4S7DNQKqdcIpVnvV8CwbDle+UBV9uEIWAIGAKGgCFgCBgChkD5ImDEq3zPXU4tj619Q6K6xFfP1xDDDUq6Ehpm+N5aXVnvQPO9kJWPTDxPxTaulFD3/ukaX1lv0H5oCBgChoAhYAgYAoaAIWAIlDcCRrzK+/z5bj15XRKLSu2bj0ntkucluXurpDTksBAWHjFFwhNmSmT4aRIZOFYVEDUU0STmCwG1bdMQMAQMAUPAEDAEDAFDoMQRMOJV4ico380jrytxcLdENcQwuuQFVTU8LhJXMlYAC6jEfLBXf6k66xqpmHi+5n+pJyykYYdmhoAhYAgYAoaAIWAIGAKGQDtDwIhXOzvh8e2rJbbxLYktfUlzuxYW9ugJOdQCy5XTr5WK0y7RWl990hLzhd2rbd0QMAQMAUPAEDAEDAFDwBAoOQSMeJXcKSlsg6LLXpSa1/8syV1bJLlvZ2F3RlihLpFJ50mEkMMhkyXUc1Bh92lbNwQMAUPAEDAEDAFDwBAwBEoQASNeJXhSCtGkVDzqwgqjC5+Qmpfvk9Sxw5I6frQQuzppm6Eh47Sg8mSnchgePP6k7+0DQ8AQMAQMAUPAEDAEDAFDoK0jYMSrrZ/huuNLHj8syQN7pHa+imposWSVMCzakQe69JBQ/2FSPftWiYw5u2j7tR0ZAoaAIWAIGAKGgCFgCBgCpYKAEa9SORMFbkfi7c0SW79QYiteldiyOQXeW4PNV1RJsEtPFdg4T0LDJjpp+UB1Z83/qlLZ+U4S1CWvlkpJippkePm0UHSq9pgkjx9RrqmS+RjfaQhksIuKf3Toqu2otjpjaWTsX0PAEDAEDAFDwBAwBAyBAiFgxKtAwJbEZpWACCRECUd881KpXfCEJDavkMSO9cVvXqRSQgOGSbDfMAn10VcV2oB8hSA/XXor8Qmq2nxIBNVDfXV/Zyo/74iWKjMilZ9MONKFWmOq5qgka9TTd2S/JA/tPVEgOl7r9hfuN0JCvYek2wL5MjMEDAFDwBAwBAwBQ8AQMAQKhIARrwIB2+qbrSMjjoAcPyixDYskuvApSezeIqmDSkKKbZCpDp0c2QpUpb1dEo6498GOXSTQuYfzigW79UurH3bu6YowB0KR5mt/QbRUDj+xb5se2wZJHt7n6pIlD73j8tggY6lYrVveLRCd1ELRoZCSrsESPmW8VJw6S4Ja5NnMEDAEDAFDwBAwBAwBQ8AQKBQCRrwKhWwrbNcrjuzC66Lq8Tl6UJJHDygZ0dpdW1dKbPXr7m+hdlepmMrNByo1FLFrbwl06yuhXoMl2GOAhPTvQMdu+l21Lh116SABlaeXkErUa5hgCsJVe1TJ1SH1aB2QxM61Etu6QknlHkkefFtflYA1Jx6inrVg154S1tDHqhk3SGjgaAmEK5sneaWCmbXDEDAEDAFDwBAwBAwBQ6DsEDDiVXanrOkG4+1JHNitMvHq/dm7VZK7N0ly/26nZoiKISTMFUtW0lIypiGGLsxQiyuLhiOSbxXQV/d3tXrIOnWVUF8NT1RiFOra13nFIF8pFQuJ71gtiW26bF+jZGuvEs0D6tmKpnO7NL9LEs0cJ1L3us/QgJFKvK5VAjZZgpA9PGxmhoAhYAgYAoaAIWAIGAKGQJ4RMOKVZ0CLsznN3dJwOULokscOKgk55MLqkvt3SeKdnUq26pa929XDtT+d20S+V7kZ3jAlX8Hegxz5Ihcs2Km780zh7Yqrlyuxa6MjmIRUNku0mjj2YM+BWtz5QomMnqZhhxPSQhtNrGsfGwKGgCFgCBgChoAhYAgYAtkiYMQrW+Ra83fkb0G6Du91Xp/4jjXq9VknKfVukdvkRCZUuY/cJ8QmENgoS8MrhegGXijCDINh/VvFNzQ3DDl8xDMkqvlbeLc4xiyOM9C5u4SHjpfIuBlSOfkiJXpdyhIqa7QhYAgYAoaAIWAIGAKGQGkjYMSrtM/PSa1LHtwtCQjWXg0n1JDC5L7tdV6uXSIqmZ6qOXbSb9rWB0rGQhqeKPqaB1JJDlmwR1+JTDhPqs69yXnU2hZedjSGgCFgCBgChoAhYAgYAqWAgBGvUjgLPtoQXf+mxNa9KfHVb0hy5wb1fOHVUpW+IhZE9tHc0l8Vj5p60ComXyDVV9zpRD5Kv9HWQkPAEDAEDAFDwBAwBAyBckPAiFcmZyyl+VRRCvFqXShV0HM5VTXqXUI5EKlyQt5qa9JbQm0PgQdHhvQjFyqn9akIlVMxBxcqh4hElSr1dVAZdVXuC1JMWIsIu4LCKOvVM1f8V0UjEns2aT7TepVM36jLZkm+s8uJSbj9ZBFiV28X7fvPunDGigmzpPrSTwg5X4FIVfvGxI7eEDAEDAFDwBAwBAwBQyDvCBjxaggpJIsQNs2R8orxogSIiIVTDdTQvqRKlqe0IG+agKla4KH9SoIOpbdEbhXhfvwe05ykQFjzkqrTkugQMEhXkLpV1KxS6XQnGkEhYeTTIWHkMVE8WNuSPLRP4m9vkvha9XStek1SEL9jR9Lbtn/zhkBk3DlSdeGt6eLOKuBhZggYAoaAIWAIGAKGgCFgCOQTASNeDdBMqScroaSKXCpUApMHlGQhVe7yp9TLVXss7f2KqYdLCVm6dhYFejXkD1Oy5NT1eMXqPCqOgEGokE9XsQgnmY50uqtPVaXeLvWC6YA/2KWnBHup10UJmPN2kcu1dbV6uFSpEMLn5NLr9pXeg/2bBwTCI0+TSmTlB47RWmKn5GGLtglDwBAwBAwBQ8AQMAQMAUPgBAJGvOqwcCGDR/arcMVOSby9JV0HS2thJfbtcGqBTq4clcACWqCjervUExbqN0xDELs6spfcp+3ZsV5EQxrNCodAeOgEiUy9TCJDJ0p4wJjC7ci2bAgYAoaAIWAIGAKGgCHQLhEw4lV32ql9FV3xssQ3L9ccqi2uLlYqprWhkCuH9JCz5XmxCtVVXFiiSqXjBdO/XcgjuWWELhZ634U6pjLZbuiUcRI57SKJDJ8ikcGnlkmrrZmGgCFgCBgChoAhYAgYAuWCgBGvujOV2LlOjs+5T+LrF2lY3+4TOVrlciatnTkhEBo8ViJTLlDidZpEhkzMaVv2Y0PAEDAEDAFDwBAwBAwBQ6AhAka86hCJb10px5/8mcQ3LtHcKs3fMg9Tw77Spt8b8WrTp9cOzhAwBAwBQ8AQMAQMgVZHwIhX3SkgxPDYY/8h8U1L1duFMEaq1U+ONaB4CISGjJeK0y+W8LDJEhk0vng7tj0ZAoaAIWAIGAKGgCFgCLQLBIx41Z1mCNexR36cJl7t4tTbQdZHIDxsolRMu1zCGmYY7j+q/lf2tyFgCBgChoAhYAgYAoaAIZAzAka86iBME68fKfFaljOo7WoDrjC0CoK0ZBR5Rgrfq2/W0vpF/j488vR6cvKDi7z39r27lPaNmJZjOHr0qOzbt+/d5ciRI3Ls2DG31NTUuHVqa2vd+0RCa+01sICWbghrzbzKykrp0KGDW6qrq6VLly7StWtX6dmzp/To0cO979ixo0QiEa3uoOUdzAwBQ8AQMAQMAUPAECgCAka86kCOb152wuMFSWivRt0xt+iANBjSOs6hE++9z/WVQa5+UVcYuqpltFQV0qkzQr40jJPBtv6TzqUjn65ONdIpOfI3C+GeRToX4VFnSOW516uU/GgJaVFrs8IgkNTzGo/HtdRdwr1CuOqTrk2bNgnL5s2bHQE7cOCAsBw8eFAgXZAx3kej9KP3GiSqqqpKIFXdunV7d+nTp4/069dPhg4dKoMHD3Z/Q8I6derk1oeAQdhY2Ea6b7932/bOEDAEDAFDwBAwBAyBXBEw4lWHYHzrCjn2RFpcQ1TCvVgD/lxPYF5/z6AzpESrqqMWcO6kNcW0mHOnbiIVKm+PxL0uwUot+qzvJVyh6yJ9r+8jlRk0Q0kU3i4ddFN0OoVMflSLUdceTxeKPnZQJfx1ObxPUkcP6N9arFql/CWpno0ikK/QoDESmTxbIiNO11pekzM4HlslGwQOHToku3btkt27d7tl69atsm3bNtm7d6+88847jlhBrlggWhAsFsgZZI1X3kPgGhqEKaT9FwJVUVHx7gIZw/MF0WLhb4jZgAEDHBkbMWKE+7tv377vft9w2/beEDAEDAFDwBAwBAyBXBEw4lWHYHzbKjn+9D2qarhYCxcfrfO45ApvCf9eB6k6vS8BJVCixClQoQQKclWlS6euunSXYNc+EuzSU4mYkjBdghAy97e+QrZCSr4gYOEMQg09KHTAnIprbbTocUnWHFUvmBIsXZJavBrSlTz4dpp8HVESdpzvdB1IWkzJsNZTS+ExKwAZC/boL6FTVFJ+9JlSMXa6Ek8tZq14mGWPgOfdIoSQ5fjx47Jjxw5Zv369eISLv/FwQbwOHz6c/c58/hKv2KBBg2TUqFEybtw4GTJkiAwcONARMDxkfE+4IqQNMmdmCBgChoAhYAgYAoZArggY8apDsN0RL4o1Vyjh6tpLHOnoO0yCPQdJqFtfCXTorJ6tjkrI0sSKkEMJhpVoEXqor+49IVkajugWwg4ztLrwwhQei6R6wJREpcjXSUSVkMXUI8arkiv1jCWP7pfk/l2S2Lddkvu26esOSR3Y47xkwrr5NMinevkQ2YiMOdNENvKALR4rPFyrVq2SNWvWyIYNG2TdunWOeEGyIGLkcPGKF4sQxGIZZMoLS/S8YLyfNGmSTJgwQcaOHSsjR450ZAwSZmYIGAKGgCFgCBgChkCuCBjxqkMwvn2NHH/uXvV4vaUel4Npr0qu6JbS79W75YgTHiv15gQhXF100ddA934S6jVYgt36uc8CkSp/XqwCHSeesMSht5V87ZbkgZ11r+oRU+9Y8gjhiHjFDjvPWDonLPeGBHsr+RwwQiLjZkhk5BkS7NjdPF8ZwoqHi3BAcrDwYG3fvt2FEa5evdqRrS1btjiPF6GGhAyWokG2vIUQRP7GM0YYYufOnV0oYim229pkCJQSAuTweqHBXOteXme+2uiFFBM2TI6mmSFgCBgC5YKAEa+6M5XYuU6Oz7lP4usXSfKd3SWrvpd1x8J7VVUtwT5DlFiMlMiQSRIaOEY9WxpaWKHiGORr4QXDo0UYIktrm4pupMgLq1v4mxDFBN6vPZsksWONLusksXNjWjExH+3VsEnCJ8OnKvEaf7ZETlGc1BNo1jICDLBQH1y6dKm88cYbMm/ePHnrrbec1wvPFt97gzAnrtLyJou+BrlhqCLyigIi5Gvq1Kkya9YsGT16tAtJLHqjbIeGQJkhAOniXoBnG2Ecrn/e58s8bzWiOaiWmhkChoAhUC4IGPGqO1OJPRulZt6fJb52oSR2b3Ehb+VyEptsp4YEBhC/UK9WqJd6cvoOlWD3/rr0fdfDFVCy5UIHm9xIiX2hoYnkgyUP7XVesMReDUNkeWeHJHRJOU9Y7rlCwf7DJDx4rFRMuciFHQYRFAErs5MQYECFDDy5WoQVrlixwi1eLhdki4FYuRmDu169ejkBDkIPx48fL6eeeuq7+WAQNJttL7ezau3NNwIeuUIwZ8+ePY5oQbb4nNxOSJcnkJOvfRMOzLXIZAjeaDNDwBAwBMoFASNedWcqsXeL1C54XGJr35TEtrUiKOqVs6nHCtGLQLfeEh4+uU40YoYTx3CHVQoerZzwRWpe/0ekQ0MOYxsWSmzVK5LYuk6Se5Q458ECKixSdd5NEplwroS6au6bCpCYnYwAaoTLli2TF154QR5++GEhpJDPsFL1bJ18FE1/4snLM9CbNm2aXHrppTJjxgzp3r27E+Fo+pf2jSHQ9hFAlZTczTfffFMWLVrkwor5jHsAeZ6e5fNecPPNN8s111zjrsehQ4d6u7BXQ8AQMARKHgEjXnWnKLF/p0RXvCyx1W9IYu0iJ3Fe8meviQYijhHo2lM9NuO1LtVICfY+xYXLBXsMLIncrSaand3HhB+qSmLywG7n8SJXL7F9rSR2bXCfuaLNjUiPZ7IzvIWh4ZMkMmqqVIw/V0VIFD+8XmVPWjM5+ubXYRZ7//79bqAF6cLTtXbtWjcAQ1Ajn2FFzbekeN9S+4vQJpQQmWnHA4Yi4pgxY1yB5uK1xPZkCLQeAlzfGzdudNc7+Zs7d+50OZ284vEixxNvF/eAfHu68UKT13XXXXfJhz70Ienfv7+FGrZeV7A9GwKGQBYIGPGqAy15eG/aa7LyNYktnZMWbMgC0Fb9SV1+UrD3QAn1HyEVE2dL+JQJKqbRpe0RriaAju/eIHHN/Yqtmqfer1Xp0EOtFYZaou96YMjta15caNBYqZp5g8PS1TVD1bGdGgMpEuWRhYdoPfTQQzJnzhxX8JjBVnswBn/kf5111lkyc+ZMufDCC4VZd+TnSfqnCLOZIdCWEPCEc5hwoRTEK6+8Ii+//LK89NJLLsy4WBMtXHeUe/jSl74kt912W1uC2I7FEDAE2gkCRrzqTjTham7AvuIVic5/XIv4Hiq7LhDsq8IZg8coQVBP18CxElK1wgCqfErInOx72R2R/wYnUTnUc0k9sOTbWyW2Zbl6wNQLtnODqwPma4t4thhIdyVcc4rKzJ+lnq+ZJ8I1fW2sbaxMLhe5HE899ZQbdBFiBAmj4DG5XO3BIFfkd/Xu3dsRrsmTJ8uZZ54p06dPd58hT29mCLQlBLi+3377bXn11Vdl/vz5LrQYrxcKpYQT5tuz1RR2eJq53iBdV155ZVOr2eeGgCFgCJQsAka86k5NqvaYEG4YW/ay1M79oyQPa44KNadK3ZQcBChs3LGbkoOJEh49TcKDxkm4z7BSb3nB25fUgsyxTUtciYD4+iVKxrQG2FFKBWgNMVVMzNhU9THYtYdExp4jlWd/QAltf4d5xr9vAytSa4uEeepxLV++XB599FE3482gq5j1t0oNSq8QM96vyy+/3CX8o4SI6IYJb5Ta2bL2+EXAUyLFu01IMRMuKJaSw4VwRrEND/NVV10lF1xwgcvvKvb+bX+GgCFgCOSKgBGvOgQp3ktNqOjyl6XmuV9rftCe0peU1+LFgXBI5eFHS3j8dM3pUsI1YFSaiKHC184tfU4PucLLiV3rJbZuocTXvK75eyprHDuR9N0iTISOITF/yjiJTDnfSfHjUWxPxuz266+/7sIKCS8il4PkeUKQ8pk0X26YeoWYyf0aPny4XHLJJfL+97/feb66detWbodj7TUE3oMAeZzU5Lv//vvl8ccfd95t3hcif+s9O27izU033SSf+cxnnKeZ/C4zQ8AQMATKDQEjXt4Zo2aUkq/Yirly/HklXnu3KREr/oye15xmXwmBQyq+Y1eViB8i4WGqWjjmbBXQGOgKIDf723b4ZboQ816J4/1CtXLnekloGKKrD+ZDeCPYs7+EhoyTilNnScWkCzV6U3O9lPy2ZSOng1BCFMueffZZWbBggavNVYxj9rxGJNOTV0VtLT7ziqfy3lMc9OSqCXlilp6BIV46lnwXb23s2Ak9JMQQz9f5558vyF0jQY8cvYUeNoaYfVbKCHANce3g5SK0ENI1d+5cJwvfGh5uPMuoiN56663y2c9+1l1T5FSaGQKGgCFQbggY8ap/xjS0MLb2DS2k/H9amHeDpPar16sUDdEHFPcGjpTKaVelRR+69ZFApFIJmdWaOumU1RViTh15RxKa+1X7xmMaUvqSpGqO+Sq8DL6BDh2lYtrVUnX+rQ5vlz930g7bzgeEFD399NPy/PPPy4svvljURPrOnTs7tUC8SSTUd+3aVfgMEgaZ4T0kDCMMErU1Qh/5mzw08k94JSSq0Mn/EEBENRgMMki84oornPeL3K9hwyzst+1cEe3jSLiWuH4efPBB+eUvf+m8XqgV4t1uDQ/3oEGDXG7XddddJ7fccou71kzEpn30RTtKQ6CtIWDEq8EZjW9ZJrWLntK8oCWS2LK6wbcl8BblwupOEh56qnq6VPBh9FnO0xXQPKS27n3JFf2UhhemYjUacrhA4oQdbl7mBDhSUQ091MLMLRreLR3oR06dKZVnXqnexmESUon5tmgQFaSiFy5c6Dxdb731lqvPU78uT76OG/JEWB6KZRRDRbQCT5FHtPiuS5cujtRAuvB64WGC5HiDLzxztJmZev5m4MhAkVfCpfibhb8hY4iEQMhYvxA2ceJEl4NCrSG8YBwDHjozQ6CUEcBjzHVEeQhUC5lwee6559x10hqeLg+rSZMmydVXX+0URPEomxkChoAhUK4IGPFqcOYSb2+S6Po3NeTwNYkve6XBtyXwtlolq3sOkMqZ10uFij0EOnTTPC8b0Pk5MxCtxH5V43rlAYmufFVSh/f7KpiNpzE0fIJUTrxQIiOn+dl12axL/tZ9993nQowINSKnq1AGiRo5cqSrizV16lSZMmWKC9WDrBBm2Jh5IYb1v2tqJh41tu3btzviCJnkeFasWOFCKAspEICX7s4773QDRo4P8mhmCJQyAkyscO0jovGTn/zE1eXjfWvb7Nmz3bV02mmnuXtFa7fH9m8IGAKGQLYIGPFqgFzy6H4VY9gm0YVPS+2rD6U9IT7ygBpsLu9vw2OmaT6XLiPOUI/L8DTpasd1pbIBOKXerdTxIxLfulziG97Sotmvp3P6arTeVwZqh4FO3VTlsJdUzvigVE6+SES9jYGQSva3EYOcLF68WB5++GGZN2+eCznCi5QPw7uFx4rQIcQoWIYOHeq8XBAVPF684vGCkIXDuYfO0nbksD2PFyFUFHsld23Tpk2uGOzmzZtdfaJ8HCPbIPGfHK9PfvKTbpbePF75Qta2U0gE8AZzzRNe/Nhjj7kJl0KH6TZ3PFz/eLYJ3b377rsd6eJaMjMEDAFDoFwRMOLV4MylEnENR6uV6OuPqMjGvSKqgJeK+lDAa7C9vL2tK45cea56uqZeKqHOvdt1PamccSVXQc9zfOc6qZ3/iIaWLpXUvp36GYWWM5Oarzr/Q1Jx5lUS6qLnorpzzk1q7Q0gUMGMN7PdDLxQL0Q+PlfDOwXhgkiR/0QIIbV4zj77bLcQRuSFEOa6r0x/DxljkIk0PmqNiIYsWrTIhVmBAVhkU5vIy/WaNm2azJgxQ2688UaTvc70pNh6rYYA3mJCCbnef//738sLL7zgRHQQ2MiHedcFocFeeHAm28XjzUQMSqEQLyZmzAwBQ8AQKGcEjHg1PHsIMaiHK7rkOal97UH1hOxQafm3G65V9PdeceSKibMlMurMtLBDG/KyFB1Q0Rptep6TRw9IYtcGzft6U6Jawy2lZQQyVbOMIOE/7myp0PMR6jO0+IeQ5z1SqwdPF8Rrzpw5zitEjlQuxoCL3CY8WHiAUPtjOeWUU2TAgAFuUIVaGcTMz4AslzbxWwaZDCrxghGKiIjIli1b3PGj5LZ+/Xr3ud/9MFBE+AMBAPK7xowZY4NFvyDa+kVHgFxHJiKo0XXPPfe4iQhCDPOV1+VdF1wbTYUPN3bQPXv2dJM0s2bNkksvvdTCdRsDyT4zBAyBskLAiFcTpyumeV61y16UhBbeTWzLfda/id20/DGeLg1lC486QyKTzpOI1o8KWXHklnHLdA0lX6m4er5UaKN28TMqqLJK5eY3pL1eLYSYBvsMltDgsVJ19jUSGXaaKkqqzL+wlJfh3cEDhIeL8CJCjSAfuRpeLDxcAwcOdCFC5G+dfvrpQp4GXi88YKVi5HpBMvF+eR4wZv8R4/Ak6ZvKIeMYvBl9wiYhWx/5yEdcodd8hUuWCk7WjraJANc/ky6Iafz617/OydPNBAr9HgVS8hpZuN4JEeRv7gmZGsSLnE8mbShMXkr3jEyPwdYzBAwBQ6A+Aka86qNR7+/Enk0S275KYm8+JbGVr9X7prh/Bjp3Fwb4FRNmSeVpl1px5HzDryE2qo+sni/N7Xtnp3o6X5Do/McyKrIMIQ5q7bSqiz6qtb3Orcu3K7+6Xnh8NmzYIA899JD87ne/c16gw4cP54w0eVyISlBUmNA73jOQYhBG7kYxPVwtHQxhhczu4wFj5n/JkiWudhnKbhSPBo/mQg85HgaFV111las1xEAREsYxQsrMDIFSRoB+z6TLk08+6cIMyX/MxujrXAeEBEKYvAXFUggX1wlLpkY+KGQNT1l9FdNMf2/rGQKGgCFQaggY8WrijBCCljy0V5Xv/iTRt55J53lpgeWiGYO1UFhC/YdJePQ0qRh9poYYnlW03be7HSG4QQHtNa9LdPFzkti+VhJ7tqQ9X5CzJizQuYdUnXuDRCacK6Hu/bW+WvkU9UwSUqveLhT+qNFFXhdhhrka5IqBF3lceLjIdYKIMHhiIFXqBiaEHXoKiEuXLnUeAEQ59u7d22jzOd7Ro0fLBz7wAfnwhz/87kCx0ZXtQ0OghBBgQoHJhp/97GeOfK1bt855f/02kZBivFzjxo2TU0891V3/hBWPHz/efW7lFPwiausbAoZAW0TAiFdTZ5WBuC41c++X2gVPaDHltyV1LHcvQFO7O+lzJV2BqmoNMZwqlRrKFtaaUcGufU5azT7IFwJ4vjTt6/DetNT8qw9KbPHzSsbizdb4cjXVxp8jkbGa6zXyTD1HvfPVoIJvB4LBTDfhRb/4xS9k5cqVTnY91x1DtsjJuPDCC514BjPVzIKXi/eHkEJyXhDZIMyQGmZ4Al599VUXhtgYPnj0brjhBpk5c6YQUsmxlpJHr7E222eGAAigWrhJ1T2//vWvyyOPPJK1sAyhhEPVy0uY7QUXXOAmX7yC5+Vy7VuPMAQMAUOg0AgY8WoBYecBWTNP4qvnqwjDRifIQGhaoS3QsYsEB4xQ6fiznGR5sHMvl+tV6P3mtH3FJZVUoqJqganaY041MBVXlcDmrK4ocSCo4ScqsBAIV6aFQ6hN1goy+eR7UecruvhZiS6fI8nt6yV5sBlxlUiFyvoPkfDIM1yuVzmJbOC9gVTg6frTn/6Us2x8v379XH7T9OnTHfHywu2aO/3l8B01wMh5I/cN8oXwxtatW11oIqSSweZsrTN0/fXXy6hRo5yUfDkcl7XREAABSiug7vm9733P3Qv8ooIwDuGD55577rsTLni6uDb8hBX63a+tbwgYAoZAOSJgxKuFs5Y8dlBDzjZL7Yu/k9iqeS4cDTW8QltQiyRHplwgEUIMh0xU0tV4IdlCt8PX9tVDmFTSkkIp8KCqAxKuqfg1a0qwApE6sqXHGOzYVYIdumphaF1asTB0fMcaiW1eqvleT0hiUzNCE4GAtjMi4WGTpPqKOyV8yvhmD7eUvoRAUCT52WefdUWFcy0mjNfnpptucl4f/m5LuU14wQjJRPWN+mbIbeMNI8SQHDYU1y677DKXj1JK59jaYgi0hACTCgjK/PKXv5RXXnmlpdVP+h5vNkqFyL3fdttt4uVznbSifWAIGAKGgCEgRrxa6AR4QJIHNddrweOOeCV3b3bFd1v4WfZf60Be1IsSHjhaKmde7wb0IfV2ke9VUkYopuZEUWw6uV8l948elNSRA5I6vF/xOawer+P6vZIw6mI1Z3i1dAmwcIweCdNcqUBV3dKphwS69HT1soL6dzEKFjuxjb1aSHvRMxJXqfnkvl3Oi9fooWjbw4NGS9X5t+j5mizBTt1bxVvXaNsa+ZAQQzw28+fPd8Rr4cKFzttFeF02Rk4XSoXMeF988cUybNgwwfvV1mzfvn0OJ4Q38BAguoFyI6QLEQE8X5bH0tbOets/HvI7CTcmzBBlQ79GEXRyushtpNBxsWvy+W2vrW8IGAKGQGsiYMQrA/RTtUcluna+Ci+8IfGV85Ro7EqHHGbwW9+rEG6nSobh4ZOl+oLbJDxgtO9NFOYH5EBpKCECI3WhhEkNJ4xvXiLxrSsUk5267E7nwinpyslQgkP5qrqTwyLUa7BQxyysMvqhXqdIoGM3CVapJDF1zMiF4xXCmmdL1RyR6Io5El09TxJrF6VDDpsIMw32GaK5eFdLREMOQ32HOy9enpuTl83huUGhb+7cuc7T9ec//9nld2SzcfI2GGQhn05+03nnnecIiJ86Pdnst7V/Q17cnj17XJgmwgQcNzXJzAyBckTgwQcflEcffdTdExDW8GtMuKDmSV4X+Y1mhoAhYAgYAk0jYMSraWxOfJOIO9GFGLWe5j2kdb1Wp4vsFiDkEFW80IjJmtt1pkqUnyehHiUyoAOD6DFJvr1FYluWaWHp7ZJ8R4mWyrCjAImHS6Lq5dJQQ9XdPoFdNn9BolioYUYoopKsQJWSMIhYB81969Zbgt37SbDXICViWksLMlaAsETy0xL7tkt842KpfeMxre+1Xo9Rj68R8hXs3tcVU3YiGxS4rsy8Vk02EGX7G7xdqPNRq+eJJ55wghrUqsrGkIdmoIWgBF4fcroohtzW8zrAEEECCsxCZAk3JJ/FzBAoRwR++9vfuhxPPN+oefo1chvvvPNOVzqCkhFmhoAhYAgYAk0jYMSraWze+00qKfFtq+T4c/fqQHyJEg5VONRwu7wanh4NU6uYdoVUjJ+unpMRmu/UJa+78LUxPeaUEi4XOki+lopMxKlttn6BJPdsdeF3vraXj5XxcHXtIcEe/RUf9YD1G6lewVEuvM8RM0IUI1X52FOdh0/JlxKumtcflviGxXrM20UaKSuAGEpo4EiJjJ8pVVOvdDlq+WlEfreCbDQy6T/5yU/kmWeecd4viIRfQ8GMQdbVV1/tZroJtevVS0NizQwBQ6CsELjnnnvk/vvvd+GzCG1kapSGIL/r9ttvly996Uu+iyNnuh9bzxAwBAyBtoSAEa9MzqbOauP9iKvYwvEn/0fiW1aoV0fV+xrxfGSyuSbXqaQg7wCp1lyhyLiZEqQmVCvmdnHMqWOHVGRCwwn1mJPb1rgwSwQzUrXq+dGQw6Kb84TVCXJUVmvYoYpxdOmhpGe0hE45VcL9RkioZx5nXdWrmTy8z3n5KKQdW/yCI6InHbd63IIdO0tk0vlSfdHHJNi550mrlMIHr732msyZM0cIMWSGm6LB1PPya2eddZagXnj55Ze7/C6KnFp+k18UbX1DoPURYBLm97//vatVRwhtpoZ3e+DAgU4+/jOf+YzzdKNwaGYIGAKGgCHQNAJGvJrG5sQ3SrISWkw5vmGR1Lzwe0nsWHviuzz+FeyjYXODx0rVOddKZPhpedyyz03h5UqocIbK58d3rVfStcwVFE5qQeHU8SM+N1bg1TUXLFChNaL6DJWQer7C/YarJ2yoEthBjvygOKjKHTk1gvBJ6ntBvGpf+7Mjn6maY+/dJoRQSXLFxPOk+vI7XCikyz1771qt9g5yRT7SAw884JLoUefbpLV7/Bqz3Cw333yzXHPNNa5I6uDBg/1uxtY3BAyBEkHgxz/+sfzmN79x94OmCoQ31lRCbMnv/NCHPiR33HFHY6vYZ4aAIWAIGAINEDDi1QCQxt4y8I5vXykxFdiIvvm05jdta2y1nD8LT5ipoWrTpWKECjT0HpLz9rLdAGIiSVUmrH3jUYkufVGVCjWHC8JFiJ2GH5aUeflgKrARUDVI5wHrNVAqp12lQhena25YFyf3nlOb8XhqfbL4+oUackiOn3r+3taQw4ambYmMnyHVF39Mz5/mnVV3brhGq7338pJ+9KMfCTkd5HkdOnTId3soiNq1a1f54he/6KSjTcHMN4T2A0OgpBD4/ve/L/fee68rnu4n3xNBGep13XjjjS7csKQOyhpjCBgChkCJImDEK4MT49TtVmuYmdbxiq9+Q5IHmimom8H2mlqlcsa1UjH1Mg2VUxU/JMmLbC60UJUKE1rDKr5pqcTWaSja1pUaUqg5QIRWloM58tVFIsOmqPdwnHq/hjgBjmD3ATkTsMTbmzW/7U31fM2T2IrX0iS0QZheeMQUqZx+jcrL675bkTw3PFXkdm3btk1++tOfyh//+Ec5duyYZJPbhZjGbC0W/L73vc/Jxzfcj703BAyB8kLgO9/5jvziF79wSp1+JmPwdFNG4rrrrpNbb721vA7aWmsIGAKGQCshYMQrA+BTmtNUQx2vla9IYutaFdY4mMGv/K9CiFrlzOs0dK4qLZHufxM5/SJ5/JAKaOyR6MKnpHbun1xemyYB5bTN1vwx6oeh0VOlYuzZusxwyoi5tCelqo3JYwck+sZfpObF32mNMvUANiCkCGyEJ8xQb9s09VyWjrQydaeo2/V///d/8vTTT2cNw8c//nH56le/KtTuIq/LzBAwBMobgW9+85vy85//XPB2+SmiPnToUKFQ+rXXXusKp5c3CtZ6Q8AQMASKg4ARrwxwTh5+R2rm3CfR5S9LCgn1XOtUNdhnoLPWperaW6rOvVEqTrskXUg4x7ykBrto9i35XCgXxrevlhg1qzYvV0/XqnStsgYenWY3VGJfBhDfQOZdPV/hUWdoUeoxEu4/KvtWkvumBbWjK+a6gtrJXZtVUl9rutWzYO9BEh45WSrGnSsVE2bX+6Z1/3z88cddiCGCGqga+jUvn4PZ7dtuu83V7zIxDb8o2vqlhgBlAfD+Uhyb8gDHjx937/kM4ZmGFiCcWHMcUfOjhECnTp1c6C2TEITg8l25lVMw4tXwLL/3PYXl6Sf0EWr40UeohXjw4EGXN8vafFZbW/vu+acfEIZNH/HCs+kf/M1ndu98L8beO/KQwRXPK6/e32DLeahv1JFsDGcmBVHdba9GiROwok96+IEnkyrc1/jOWzxhLQ9LanDSP7mfsfA3ZWPou9Zn89ejjHi1hKUSj+TB3XLsmf+V2NKXxIkqNPBytLSJlr4P9h8m4SHjpGLKJVIx+uyWVs/v95qzRT5Xgvpcq16V6PzHJXlon+ZznTzoyO+Oi7e1YI9+qng4RiJjNX9Oa6M5j2K4UkU3aIP7x1dj4luWS3TdGxJb/poktLRAfXM1xgaOkMrJF0nl1Kvqf9Uqf3NjZQBJKNE///M/uxsxg4ZMjYEmN+VJkybJFVdcIRdeeKGcf/75mf7c1isSAjxsCR1lgNIUaWjYFM4rJIGHKwSiMfP6D32IhYGRt/AdC/vOxbw+xkOfgWkhlPFoo3cM3qADvBiYMJhGaGbr1q3uvfcZWDY0MGNAzWCEwR0lFJiU6Nevn1vA0RtYMyhk4Xg4xkzsyJEjrj2ZrMs6tAcSSJtYssEuW+JFqOHkyZOdsimhx4Uwr39yjAz8MsUxm7bQR+jb9BP6CP2DV64n+sTmzZsFuX36CyIk5MnyPcb3DGzrnwv6Mn2kT58+7/YR/oYY8B3HRv/gN5w3zmUmRnsYVNM+2tuSedc5/YP+mel+Gm6X/XHsvGZqXCccK/tsuF/w5v7B9rjWeOW4wBhsWQiR5xVsIb/1Dfy8Y6qP87Bhw5zapnf90W9Yl6WQ/ad+24r1Nxh69zbw8/ot9xE82B6G4Mh7zh84eovXf8EKLCFbYMk9jb7q3eP69+//nj7rYZrJ/Yb2eec402eThx/9lTa0NTPi1cIZRTo9oWp+NS/8xqnaFUJGPjzyNIlMnOWUDMMDx7bQojx+TZ0ucrp2b5Tat551hYKTuzdrEWQdcJSaiEYOh+08Xyo7HxqoqodDVHJe87/A2SkeBv3LHydV4TKxf6fUvny/RBc9+56WUc8r2LOfkq4rpWrmje/5rjXeMNPFzZeCyT/84Q/dDdC72WbSHm7I3PzOPfdcJxvNQGvkyJGZ/NTWKSICDFzWrVsny5Ytk1deecUNWFraPQ9ZCAPn9pJLLml0da//8OBmwSvkLQw2ecAzUM3FGBDRxyhRQNhaIR609Hnav2PHDkewNm7c6PBiIMIxsDC4qz94aWxQy8CNwQZtZvDBYIUF0siCvDr17bhGGABCTrzZ4kwGfX/5y1/ctZopnuyTa9JbGNT7tWyJF4PqHj16uGM+5ZRT/O42o/UZAFKgHRGPESN0QktJSqGMa4i+zcAfEr5hwwZZv369I1VcB/QRBo70JQaukASIA0a/4Tqgb3gL906vj3j9g35en6gPHz5cxo0b5wrP810mxvWNKi1te/vtlvPN2TfXOfm5XOdc99nYmjVrXN9cu3Ztxj+/4IIL3DXNsdGO+gbeYMpxrFy50l2PkFvvvgK+3gK2Da9H71psiDN9kgkR+uSQIUPeLewN7qzblsybJKDwOTjSb1m2b9/uPLQefrzSR1nA0Vu8/gsppt96WHKuuK/Rfzl3vXv3dkSMfjR06FB3LfJ3JvebbJ5N3jm68sor3bjDe99WXo14tXAmE1owlxC82rl/lLiKTRTCIpNnqyDDB1QE4hQJde9fiF2cvE0t/kzOkvN0bXhL1RqfUAK2qTD1yU7ee6t8Euja05GiionnS0Q9i6FufbNSHnShmSo4UvPUPVI778/pXK+6YtqBKg1v7NRNKs++RqovuK1VjrP+TrkJL168WP7whz/4GtB522D2HvWyyy67TP7qr/7KPciyfXB727TX/CMAaSCH77nnnnN5fDyEWzIephCEW265Re688063Og9iBkN4RVkgKpAU72HOQM9bGKSyDg/zXIwZcUjK+9//frnrrrvcQz6X7Xm/ZbDBsTBoZraXgbS3EG7LYI/vGBjkyyBdDPjGjx8vY8eOldGjRwuzxd5MMiQM0sYgpzH7wQ9+IHfffXdjXzX6Gdu99NJL313Yv1/Llnj53U8269M/KV2Bp518Mu5H+TSPQHleLPr5JvV+0k9WrVolK1ascH2E6ysfxrnnumPQyrmij1B8nj5DP2HSwfOGNfQQefsnT5c6jFzvtLUlo4+AI15JrnP2n41RA/Lv//7vZd68eRn/nJzgr33ta46gc1wQBa5L7h3cR5gMIf940aJF7nrkvsX1yHrZGuScfUFquf4gtpB2CANEgWuwMSKY7f6K+TvPu0W/pc9yXyMElkk3+qp3f4N48V0+DPJFH8IDxsQSJSTAFDzpw/RZvmcipjFim82zyWs3/Q3V1bZmRrxaOKPx7askpuFk0QVPudynFlbP6uvKs66WKpUgD3ZQ6fOqzGa9stpRvR+h1Jg4sFuibz0jsTXzJblna7owsLqF26xpkeMAYQfDJgnqgwhuhLTgsm8DI/UIHn/xt1I7/zFJHXpHsat7MGtNsUCHTq4WW/XFH/e96Xz/YMmSJfLoo4+6AfkLL7zge/PMHk6cONGFGTJA5+bL4MGstBDI5uHWGPHigc4DnMHQW2+95R7oDEYhMHznzZryysw/AyRv1jRbRPAKQewhEBdffHHWM/IN9w9hhFxxHHgCOQ4Ge3gtwItjykf76+/X834xsKPAMLPsDE44xtNPP13OPPPMdwcp9X/n/W3Ey0Mi/Vpo4oXSK/0EDxL3SgauDGTpI/QPr4809La8t5WZv8NLw0DWC0mknzBoZTDLfRavL2HdfEZfaszKlXgxMGeiA7L48ssvu+sSLxp41/cocj+BYGRrEFaeUZB09uldizy7UOHkGmRiBOJQbkY/BCs8XPRZ7m3cqyGy9FXuaxBb7tV+Iluaw8HD0/PeepiCJ/c1+iy4QsYai1bI5tnktceIl4dEO3uNrn1dicnrEl+hohM7N+T36LW4L/lGzjty8e0ivNcivMWw+G4tjKxS8dGFzzjpeCG8sM5r43v/KgQSqNSHBGIWShwDEQ0Hoa4WYXwN49b1hppS0kJNsFRMY7Zjtfqq+1YPEnL2LpSzLnzDdzsy/EGwZ38lXMM0vHO2ys5PVmGTPnoe3hsGkcmmahc8IbVLn5fkVq3rtX93+id6w6egc+WM66XD5X+dyWYKus6cOXPknnvucbOjDEL9GqEaV111lQtRIbeLmUSz0kMgm4ebR7yow/SJT3zCERMGoR5Rob8wMGXmNJcZ6KbQ8kKFmPX/2Mc+JrO1TAEDoqYGnE1tx/ucgQaDD/JvmPHFY7F06VJHvgiP4jjAqVjG7C+DPmbZIWB4Ngj3wruHhwP8+b6+GfGqj4Y4T00+PV70Y/oJ4YReeBaDf6ICeCUsm4FrsY0BLF4Z+sipp57q+gfeBfoN91wGvV6oajkSLwgDuOKZgSjgPeP6ZDIkV495JucKosu15nkY8Z4Sngu+TJCAb1Mexky2X8h1IKLgR9+k33KP9vosGIJpPr32mR6Ld2/zwpwJBx41apQjtJAzMMWyeTZ5bTDi5SHRzl5r33rKFRFObF55koJdrlAEOnRW1b3eLh+oetbNurmA/q9LEax2yXOq0viSJDat0ILQO9SDwwxTlrNMShaDehzBngMk2OcUCXbprQRMjw1ZfPUy1bcUs1mqDJg6ptL1h/dqceZ9uryjf6vX6MjBtHiJkrCCmrYX7MMjp0hkFHLzMyTYrZ/vXcY2LFSRjQUSX/qyJLbXxb1z/nSpmnWTdHjfZ3xvM98/eOKJJ+S73/2uG3zu2bPH9+aZff3c5z4ns2bNciGHjYUS+N6o/SDvCGTzcPOIFyF+H/7wh+Xhhx92pQZ4qPOA90J+eOjnMgPd1MEy0GFAhCfos5/9rEyfPj0njyphj+SIvP766/LUU08JZIvBNcfB4I7jyNU719SxNPY5A2WOkbBCZuDJOyHE7JxzznELM++QsPpmxKs+GvknXniyyCF6/vnn5ZFHHnGDVvqI583Ntwf0vUfT9Dsvt4ZJB7wGnnf0vPPOcyFzfOaFp5Yj8eJahHARdcFkCJMgXr5cIe4tDZH2rkXP08i1h6eG5xqEAXw9otDwt639nnsX/fOll14SJlJfffVVd2/jM+/eVgwMG+Lg3dvos5BXJpOYPLvhhhucJ8zzfmXzbPL2ZcTLQ6Kdvda8/pCG4z2t3i4VnUDtL48W7N5Hglr3qXLyhVJ5xpV53HLTm0rVHnUqhrVvPCrRxc9LSotBp44fafoHTXzjSKMWeQ5202Po1leJly783aVXOm8qkq5F1tCD57xdCZVl1/wywh3fXTRUD0l7FBWTB/aoB2mnErED+r3OUBfCA6beRTxf4cFjJTLhPCc1T84XnrpMLbF3q+b/rZHa1/4s8fWL0u2sC5GgHluHK9TjpeqJTsQj043maT0GmdyYGVx861vfcuEdPOgyNR7y3DjPPvtsR7yYqSd0o1RnBTM9rra6XjYPNx6WzKrjZYJge+FWeIzwHBXaGOgQhjdjxgy544473Ay03z7GQJmZ9E0avsTgDs8FIWOEFhJWyCC7VIwBCseHZ4PcEwbXhJcRZgYJZlCIAI7leJ04Y/kKNeT6wAuKdwBP7oIFC1wUP4ck5QAAQABJREFUAH2dXJlSMq4LBrF4D/AmnHHGGc5TCnHHy1BOxAslXIpr40Xn2iS3krxRvI7FnARpeH7Bl0kPD18mfbgXcg2WyjPOmyQAMy/0G9JKOCz3tlIy+iy5c9zLILXgyr0NTPF++c0/9o7NiJeHRDt7rZl7v9S++RdJ7tulhZMP5fXog32HSNgV+FWZ83Ez8rrtpjaW2L9LEnt1FvjVP0tssf+cH2+7wb4qBDJIVQK1SHBk6CQXrheszi0MjVBDxD7i21ZqPTGValcvErgTllgoC3bvpwWPp0tkzFla8HiahkxmnryditZI4p0dUkOpgeVz1JOn7awjiem8vY9q3l7XouXt1ceImTDivh988EFHvAhT8GM8gBj0MIP1qU99yoW/+Pm9rVtcBLIhXjwQIV+QdMgLC/2mWMb+CflBOIFwMgiJX6PNDELwcCEsQu4I3rpSN+/6YmKDY4f4ci5+/OMfG/Gqd/LyRbzoE/QN+gh9hT5D3yllo4+QY4syIKG4hMkxkC0n4kXYJNc4kzrkjpaS4YXmmoMoIDpCO3lfKjnMRKggNsLk6X333eee5+R3lYMxbrjmmmucR5FJJiNe7z1rJq7xXjxOenf86Xuk5pU/pT0veQ6BCw3S2lKTNc9oxOlKXiaftO9CfEC+Wq0KaiQ2r/CXsxYMikQqJNRjgBKuMU6Ugjwp5+3Cy6WEpWFYoe/2a44ZNcUIO0zu3+FUFhM716uc/2a3kAeWbxIWqNa6Jn0Gq8rhNFdHzXnuNEwyE0vRXvXO1bz0W4ktmyNJ9dC5NuqPK89RVcNLP6Gkq2NW+WOZ7L+5dQi72qReAMLH/uM//kP8hhmSV0BOF2IHV199tVMzbG5/9l3rIpAN8SK8CS8MM894jlggYcUycp8QbEEymORsZvQzNby5zAgTdkNooZejQ04aWJS6eR5lcns4diTTIaC//e1vnQpcpu1HhMFUDZtGC3KF9xMPF8SLv7kv8jn9vZSNPsL1SR8hHA5iAFGHxLCUg6oh1zjhtUz8IaJRSoZnC3xRkwRbympAcnmP96a1DHKFV2vhwoUyd+5c5+0il4t7XjHy4fJx3F7OIvc0PLZEHuC1Y9IgE8Vdrw3m8fKQaC+vhIypCMSxR/5Dal6+ryBHjbpexVlXSvgUrS3Vr8C1kfRYUjqoqn39YTmuHhpXCFo9NhmZ5iq4Wlhdeqgi4GSpUFGKUL/hSsIGZvTzbFfCO4eqZFzl7uPrFyohU2KjuWFpz1KeBoh68w3ozFd4uKocnnlVOuSw95CMm5w8sl9q5j3oPF5pZUgd9ClelTM+KNWX3+GERnImpBm35sSKPOQI73jsscecjDzeLz/GA5O8H0JFuHH6GRT72Y+tmx8EsiFe+dlzdlthVpkww6985StORj7THAtyGSCKyFATOsaDnNpXDOzKZTa4PmKE6HDsTHJ89KMfdd4Ywg0zNSNeTSMFMaefeKquyKD7nYBqeuvF/4bcQEg2x8QEA/d3xClaMvoInsPWkJNvqW2l8L1HcCFet912mxM4AS+IWTHDDrmvEXFAziH5XM8++6y7H5Tjfc07r7PV8wWpxXPLtUcZBCY+MjUjXpki1UbWQ3GP4sLHn/wfF5ZXiMMKjzpDKmd+MD3YLzCJcfLxWvg3Ov9xJZL316kHZkBelESIqvSFeqtX6NSZWoB4ooT6qqeLEDofYXnZ4EceWPLoQUkeJOdLSdiW5RqGuCotfa9esbwYx6dLsIcqHQ4e40hl5ZTGi8k2tj9wja58RaKr50l89ZtOLCSgM5WVM6+X6is+lVZ2VNXHYhuDUu/G/fjjj/vOdUEqlvALvF08hHh4m5UuAuVGvJgFR34YUQ2KukJAMhnkMDAh/+zFF190kwrkPJDbhQcjX/LJxTzLHDPHjnooinbMdOPJyNSMeDWNFIWGWfB0kfdHeCFeg3I17snUVMQrzXWQ6WSDEa/mz7inrgq25LvyzLv++utdPl3Dos/Nbym3b5kooJ8yQcCzGw8Rz/FyvK95SHCf95Qj8dYRbuonp9KIl4dkO3lNKklJHFBlr5cfcJLrhTjsyLhzpOrCWyXUR4mMClUU0jzvEXld1CTLyPAGqTJhsNdACQ+d4ELxQv1HSLBSJZD1u2KZV7A4vnmJSt/rsv4tSezamK6dlchT/pfK4SMYUnnGZVI184a0LH4GEvNI4cd3rpXY2gVKajUXUAlioLqjVE1Xj9clnygWRCfthwHcAw884G7g3Mj9hF8xGOQh9MUvftF5I0j8JyTDrHQRKDfiBckgbIoZZl5bMi8cksEmRAsvBv2b2WA/fbul/bTW91xfDJAhBn5muI14nXzGGNjh8Wd2HVVXxDTKIe/v5CNp/BNyv/AYQ74yCZc04tU4jg0/BVOwpXwKgiDk1A0dOtRNCHlS/g1/k6/39FlI1tNPP+2UHwmfLmfvbH1c8CjSBxlXcG/zQySNeNVHsh387Qonb1gkMZUKj69TxboCWMWk2VJ95Z3O2xLwoaaXTVPi21erfPyLEl+7UInL4sw2oWQk2LW3VJx2scquT1Ov1xBX5Fl1bfX36ikqltWFfbr8L/V+xdS7FNPQw8SWVU75MC/NgEiqzHxk7JkSmXKhRAaOU0I8tOVNk+d19IDENByy5tlfqXdut1NLrJx6hVTNuKHl3xdoDWLCqd+FfC+zTH5menn48MD5+te/7hJkM/VGFOhQbLMZIFBuxItZZcJYCbFDCaslY7aUvEVyuiBcXk5XsfPSWmpntt8zKGHg5xHMTLdjxOtkpBi0PvPMM056m9wuPKSQlLZi9BWIAH0lExlxI16ZnXlPcp5nH6QL8gUJ84huZlvJbi36LPc2hF8WLVrkvELlks/V0hGDK/c2Xrlf028zNSNemSJVruupxHlSQwtTxw44cYf4lhUS36ielR0btM7VtvwelXZABvkVky+QDlf9jSM3+d3ByVuLrV+gIiF/kMQ2LfZL3a4MjNA75+k6dZaG4Y2TYIUq/mm7W9NQEnR5X5uXKgF7Qz1fm1wdsKyLPzc4mGD/YZpzN07PzUVKNs/UUEElZM2FCiopxCOX2LFOalRWnv4T7D1IIiPT9cEabL5ob0kiR1SDWHEKLvq5iROPzWD4a1/7mhscF63RtqOsESgX4uXVK6JgM4WbCWPFo9qUMbAktIowMZLNUaXD24Xnq1CS9wxsmWzwFgYMnjFoYBKDgTztymTg6/22EK+tSbw4l4Ri0QaWQhiy3xB0vKIITDQX+sVsOv0Cr8Gf/vQnJx1PLlQhjb7CjL63sC/6BfdbPwPMQrbRiJc/dCn5gOLq7bffLtddd52TnSfnuRCGp4t7G+kAhBeSt1foPstxcE/j/gYhwiBE9NnWvp+5xtT7x4hXPTDa4p/Ut0rs26E5REq48KZoKFvy7e2SQkkvX+FsHnBKXgJV1VIx6XxVvvsrV/vK+6pQr9HlL2u+2s+VdOkx1WYmo1s560apnHZ5WrmwWlV+ggxATgxCCtXWZrcL0dHwvsS+bRJb9arEtIBxYsOSjI+p2W1zdJXV6VDB8z8iFdOuTItjtEQ2tU1JLQQd27LM5c6h9EhNsGDXPi3trmDfEytOMVbyG7iR+3HvD9P6JoSC3XXXXc4jUbBG2obzhkC5EC/UMlEM+/KXvywfVTGJ+g//xsDwiA79+ac//ambFaY/Q3wKNbClTQheeAuDas+4jhjcUwAWAsYguzWtNYkX+yaHA/KcidcyG5wQ9UH1EUlqlNI4N00Zhb+53+E1IMSQgaSf+15T223uc9pDmCiL1zb2y4Ca11IwI17+zgJkmuWiiy5yqr4ImiCLXwhjghSFyoceekhe1LxV7imF7rMcB/c07m/eRAY5svTZ1r6fNcTYiFdDRNrIe7wVyQO7tX7UZolvXu48F4k9eFH2q/ficGGOMqJFdbtopXRVB6zWAX6wc2FmU2g8CoCp44ckuuwlqXnu13qsWnhPw+Oas4CqFyKrXnn2B6RSyaFonlehQyGba09j31FsOb57oyoeajjoyle1NpkSyoN7G1vV32d6w5WgimNM/4BUnH6JhHoOlGDHlvPv8MQlD2kxav0vqHL0Ac0PIz+utYwQm2984xsuuRwpVz83VGaWqW3CjB/FbVvLyNNgkEsByU0+lJBaq7353C8EhQcjhSgZdLZkxSRe3kObAR0FXVmYIeYh3lIuIL/Bo0qoISpiLRkDEXJ0kFVGap2wWZLQ80W6PCKIwiIy0mAOMaSdHFPDgs5cR1xPeFcIfeSVAQv5GPRVvuPzYhntbC05eZLmIVzcI2bPnl2QQ6ZPcV7oM5yX+iTY26GnXvjaa6+58hleoV7v+1xf8QrQryGZEEGvj/BKH+E7vH/1vQe0iWuSBc8sC/2DfkJ/YaBbLKOPQI7LQdXQu7dQTwuseQVnSK13HngFTzDm/sA1x7MCtUcwzpdRV5D6eqj7cq/y2pGP7UOuaDve2T/84Q8uvJCJg3wamNFmIgo8gQve01+5rljqTxZ4fdbrr9zHKDAOtrzS3mKbEa9iI16k/eHpiq5/U8PWXpf4sledOEKhdx2o0ppXPfpKxYTzVMjhxoIKa6C6F9eixBT4rX1FQ+E0H6klCw0Zly7sPG5m0eqLtdSmpr5H5bB26XMuDy+xUT1OebLwhBkSGa+FrbVANLlt5WYMQu6++27h1a9BuqgrdNNNNzkpWL+/z9f6qDqh8IZkOA+o9mQQAQZLn/70p124S0vHXkziRc4DbRs6dKgTYaGoK2IshOMwQG7OPOLFevzdkjFIZTb4ySefdN6MfIskeDjPmjXLhbNxXAz0GZx4A+nG2ojHjRINyHlTl4a8DPrqunXrihIq5LWpNYkX5x+p6GuvvdbdK7w2FfuVUC28BoRrca/AG5lPY4BKf+VYGYgzIGehr4A/3zdm9F0EE3bs2OFe6R/0E/oIbS6W0UbaWg7Ey7u3QOiZAGTSqT7OnAfwBleIFtcgQlI8K958801fiqCZ4F8odV/u17T9V7/6lXz/+993RDzfeYjeeafP0nc9LJu799IvwZYFWXs8ciyox+b7usoEfyNemaBULuuoxwdPUFxDw+Jb67xcmiuU3Kdek5pjBT+KYhKv5NH9eowrJLriFYktfFa9eM1UPiekTmfuCIGsPOt9aW9Pl6bzLwoOVAY7wMsU371BieVcib6lx1ejM4mZ1idrZvuhgSMlNGyCVJ2hddZUQr/cLBfixez1BVpIkgc1HpfWMiNepUO88GrhcWAwhOQygyHIluft4pUBEQOn5ozvITUs3mxrU+vz4EckhhnhOXPmOELDgCUXw4OF52LUqFHuWAhf4zg88sgx4sWAdBFu1JTh+WIGmFlhz+PFQJBBNqGQeGkZYEPMmEEulLVn4oXXk1l6sCanizBDiA2f5WJ4XfBgQcqHDx/uvHr0F97jOcBr4C2eJ6ax/TGQ9rwHvHoeGfrI5s2bXbshDfSRQoYlegPwUiVe3Au4LgkphSRwb+G69CZyuCa5bzT0eHEv4BrE64xHBkzJZ+aegfIpuPqtX9nwPIIdz0JKXlDonZzDfBih0+SqEl7IvS1fIkH0V/CDuDIxgrcL8sg9z/MeNnfvre/1Alcv6oR7MRNMXGvgzPtimBGvYqBc6H1oLg5FkZPHjzgluujCJ1Xp7yVJ7dcQsUKFFTZyTEUlXqoCGF03X/OhXpP48teUmDQzcEFSvWMXqdIQw+qLPtZIy0vvo5SKopDzFV36vCsOndy3U0MO9+Xc0EAnDWvpO0Sqzr9VImPOVn0NJaWBQM7bLcYGGJCgkPT5z3/e1QTxu8/6oUsMslvLjHi1PvFisMOgB3LCg/yyyy6T8847z/1dqIRzr78xIEGVE1lwks6zNRLJGUxDDBmAQB4JHaKfc1wMovNlkDC8cojaUEMKtTJmjxkg5is8sn5b2zPxIlwLEgPG//M//+NIF/j7Cauuj6XXT5hEoG9DBChajLDHxIkT3WQBhCwXo220kUEsfYRSH4SFQxAY9CJukO9+UqrEyxMmgRhAaq+55hqXU8V9Jpt7izcJAq7cO/CCMvlBWGe2fQJiTXu4XxB9wL2De2J9wR0//YFzC8mm6Pt3vvMd1z76Q7ZGO8DRI6+E/RKtwj2aOol83lh4rp/9eTmLeL2Y3MCziNARxJc+yzEVSpTDiJefM1Wi66biqtqiyoXUgkKSPL59rSR3az4XHhL1gBXLikm8Evt3qrfr5bQC4NpF7vibOs5A5+4S7DNIKk/XWlbnfLCp1UrrcyXSKb3wndKhSrrj+aLOV84W0YKu3fpoKOj1GnI4Q/PwerVqzlamx8NNkNlVBn3/7//9P3eTzPS33npGvDwkWu/VC4Fr7VBDwu54gBOqwiCUQQhtY3DakncrV/QYTN93330512Fi8MRsL4MSjoPBEzPDkC5m2lvyvPk5DgYpDPTINSFng+uQwTVhZrl6YhprR3smXgy0IeYoXSKosUnzQME/20Eg/ZkwLISFEFao7zWg/zCAbc4L2tj5afgZbaONtJ0+gseLHEb6CH2Fe3e+879KlXjhWQZvSkog246nBo9StvcWiDjY4lnEKwOeRH5w7WUb2sn5pj2nn3663Hnnne4eiNczWwKOFwkyCPGi3At9gDZna/RZr33c37i3IYXPBJOXE5ktSfTa5JFFQg3BFk8iC9ec12fzHSbp7duIl4dEWb6qpyupM0mEpalwBt6f6NIXRdTLlTrejAeoQMdaVOK1d6vUvvWUxNe8ma571UwYXrDPYAmPPE0qNLerQiXky8lQFUyoSErtK3+S2OLn1AumRLoFEZGWji/QsatUTL3cEa/wgNEqstG1pZ+0+veELHCDZMbv29/+tpuZ8tsoI15+Ecv/+q1NvBhYMGBjpp9QG2/mnwd9toOOTFHywl2+973vuRwIBivZJHYzUGZ2esiQIW4Qjbdu+vTpjnRxbIU2wnQIfUMYBKnoTUoMGLgwkGHJh7VX4sV9Dizvvfdel9uF6Eq2ngNvcM2AmkkG8v0IK4OYF7qfcK/GI0rIGXmMkHVIA8eXzz4CqSmVUEPw5roknJDQQoR2rr/+ejeRk697C/cQvOQQA3L/CD8kHBFcszFI+Mc//nFHElE4bCqvr6VtE4ZMjTlPeZN7WzYGhkwYMTFG7tZsTQ8gHJLnBh7EQhqeLtpNCDgEkrBOvPwQyHz1Wa/9Rrw8JMrxVR9yeLtiWperdv5fJLFzneZz7aB4Qc6D82zgKCrxUuW/mnlKRrRwcnKP1jRRHJqy8PDJUnH21RIePF7CfYc3tVpJfk7OnsRrpWbuA1K74ElJHdqXM6kOVGmux5ipGmp4llSMna4esH4leez1G2XEqz4a5ft3axMvQn2Y+fdmo2kPM6g88FkKaeRpMJBmUP3II49kPQhlRp2BM4M6akFRJoGZYLxcDPwKbZ5ng9lhciOQOCcXidnhfElGt1fixcCPcD2ECRhY4ynKFlPCsSBcZ511liNcDKwZvDLJUOh+QpuZVGBAjveL4uAQsGwnGxrr0/SRUiJeEAbURAmH+6iWlABvPF35vLcQWgiGTHZAvvCMMvnBZ9kYnv73v//9LhSSduNlysYIn69fXzNbTxF9lvwtQiBvuOEGR77IU+XzfHrwGztGsGWcwQQB92n6LJNLeBWzmSBrbB/eZ0a8PCTK8DV17KDElWyhXBh96zn1fKnseLT1KtkXlXjtWi/H596v4XeLlGyq1GpjIZUaJ0z+UmTcdKm66DZV8dObYIfS9+401hVrFz/jpPMTm1akyXVjK2X6mcr+hyioPOoMqZqmYiN9Sl/dkJsi8rrcCP/pn/7J5Q9kerjeeubx8pBovVdIAvl1FBom96ElYxaSkBrCrlB2Y1CajRGWwoMbMQHU6iBehOdBYopl5BE89thjbrBEPoFfYwCHt4uQG0KEmOn3BksMpottnBtyeJjphngRWga5zIe1V+IFhuTwEK7FvS5bYzIBrwGhhbPVa0B+DJ6vYpvn5WWiAQVXJPEZ2ObDi1BqxAvCgHIuHpoPfvCDjkAUiixAtAjte/75552Hhusum7BDr81M4Nx8880udNlPH/EmRAkp/fd//3f3XGaywK+HyLs/440l9/DCCy90k0pMlBUKw6aOk76JF5EJJfDl+UPOJaGyfo+rqX0Y8WoKmTL4PLFrg9S8+keJOfKhnq6Yen0Q2mglKznipQOVgM4ARyaeLx2u+Gst/KsPHv2sHA2CHd+8VKJvPK65fEtzOwSt5xXo1EXwBFZf+DEJDxyT2/aK8GtueDzEmeX7h3/4B3cz9LtbI15+Ecv/+szAn3HGGa6GDCFyLVm+iBeEBbEJHuqIs0C6mEUttJer/vH95je/kX/7t39zD3Ee7H6NcCXajKfrr//6r98Nv+EYcs138NsW1ueaZEIEMsyMN548iGU+rL0SLwRXUIUjpJqBdbbmkfNbbrnF5QAWyxvasL30ERbCDj1vL+GHhE8ywM3FSo14Eb78d3/3d85b4xXFLtR1Cabgh4AJZSnoL4ix+DVPmOcDH/iAfOELX/BNznkmQ6YhKNQjJKSUtvk17/48depUl3PG/RnSxT2vUBg21UbyFfHYElINvv/7v//rxhuEAGfrfW64LyNeDREpg/eEnyXf2S4xFdOIEmK4Y11ablwFGVrTSo54qYx8oLqjk5GvvuQTEuzSqzXhyWnfyOcnVDCl5oXfai7fPEY92ZNsPIEqshEeojHdF9+urxOUoOqMOZ+XqHk3Q1QNv/SlL2X1kGHm1+TkW/cEE37DQ5XZVWaGW7J8ES9CaMjnwgNw3XXXuXyolvadr++ZAeYh/utf/1p++MMfugmEbEJXCLkhyZzQoBtvvNGFFkLEWtsYREMk77//fke8IGLZzL7XP472RrwYRNMnfvKTnzjPbraS4XgH6BPkFzGxQZ+nNldrGwN0iiyTA4T3GqKQa1HgUiFekANCfcH6rrvucqHMEN1iTOrQT8j5grD//ve/d6FyTIZkaoSc0laI19e//nU3meMnDJVcPogf3qFszyn7Y1KM8EIiEei35K+2BunycPPGG8jL018hlizc67LNp/O2zasRr/polMnfFA+OrnxFoqtVSn31ApUZL17RwuYgKjniVVEpKBpWTJwt1SqfHuzcs7nml/x3SZXQP/6X/5bokhdcvTZHvnJodWjQGJXXv009X1PSIZjqCSt1y6WOlxVQbv2z21rEi9wW1LsYkJIXwqCtWMZsPx4hiAmzp9maR1gJG+PvUjPkrsk5YSDGLHgu1t6IF6FjhG1+85vfzKmPgBuKep/73Ofk1ltvdWIJDGBLwfAWcC0QcovnFxnvXKxUiBfhylyPhMcxoVRMogumhMChlPqtb33L/Z1NfhVh34hWEQruR2AD8vyDH/zAXfOcWwi2X2N/5MLdfffdTgWS/tsaodONtRssuS7xQnOcELF8qHMa8WoM7RL+DBn1hApLRJe+JPGNi7VW126VUtfiuqVgmjsU6NKtjuh8pKBEBwxcmOU6Fdd4G3GNk2XzA9Tv6tZb23OeVM36kAQ79SgFlLJuQ/LI/vQxL5+jx0xR7NyUK0N9h0rFOe+XyMgzNM9rqHq9KrJuW7F+SDgFHi88Xzx0mJnK1Lz6NQxICDlrLWvPdbwIMyQvCa8NKmstWT48XszoMoPKYBR5Z2ZXi5k3QN4OeVCICzAz7Nfw1hG6hLf2pptucsSRGfZSM4QUOFY8e4ST4QXLxrPHcbU34sWAjjCtn/70py5fLttzS+4fngMmGHjFm1AMz0sm7SUEDe/vsmXLnHeGHDbEWXLpI6UgrkFIHCGdKEaCP++LZWCKB4b8V8QtuAYJifNrRAIQJkm4JPeaTAyShcgHdbsIMc5WCAaxI57HiGkwOYrHltDDUjC8h/RPxh2IbfCaS+1F75iMeHlIlPorA0wNJYxuWCixdQskvmyuCzEsqWa70D6tHzPpfKm+5JMFDe1LqHx+zRsPS3ztAkns2pTOb2sARqCyWgI9+0rFBCVeM29S4tW9wRrl9TZ1/LDULnsxXTR6vZJuVTjMxYI9+0tk0myJjD5TIsOmaD2v6lw2V5TfkuhKjhe5Xtz4/cSTI+rAzCTCDngNWsuQACZ2HEECwhjKyXgQsUB6/YS0eMeI7DmhJIQZorbWkuWDeCEqwLn/4he/6IoLt7TPfH+Pl5b8Ll6zeWgjksAg+vLLL3eCJPksjJzvY4Vs4dVjIMYAm1CkbKy9ES88hEwm/fGPf3QhTX4xY6CKZ4sJjY997GNOgIXJhlI0hArwjjIRgSeB8C0/E2jeMZWCxwvcCQH+6le/+u61WcxJHQ8LFDDJsaIAMGTWr3Ff/qgqMUKAIF+ZGASPvL3vfve7LoQ0k9/UX4cJARZyVhEK4nmAx60UDfESBEQQieEaZdzhZ+zR8JiMeDVEpETfp2I1rkgwkuLRZS+phPpWSR1+p7Rai2iDhvdVTFbidbmKWXTpXbD2JTKp41WhyfPdVBUH4nXeLeqBK2+PV6r2qESVdMfWvK7E+xVJ7lc1xxws0LW3ysqfIRVjztEaZzMkUNUph60V56cQFlQNmS1F5dDP4N/LkSGk4eKLLy5OgxvZC3H55MFAHnMNyWpk8wX9iIE0+TvZ5qDg5WI2nlh+vF8tWT6IFzOq5F985CMfaRVPJ3kt//qv/+oGKdnktSCU8MlPftJhhjhJKeR1NXXemPWmXyNxzcRCtiqH7Y14kT8CXtneEwjPIlwLNT2IF6qG2UqDN3Vu8/U5fYT7B+T8v//7v53YTDZCG6VAvMCdelMIUzAxAulqDQ8jSphccxAw+pBfg/TgtYOA4bXLxHh2MZmEh5tXv0YkAmGan/nMZ5zYEgqLpdpnKQzOpBLkFs8ifTiXkEMjXn57Syutnzy4WxL7tkmtqtrFNNTMhRc2El7XSs1L7zaAiqDOvDkVwTvS9aEKlDdEyGV0xRwnpZ9Yu8iR0pOOXQUkAp3rQh8vuK2goY8n7bsAH6SiNRLbtkJrl70psQVPS3KvhljmYIFO3SR0ylipGD9DKqdcKoEOxct7ybbZ3OwZxJIn4FdliAc1cuJ4zAg54wFZbMUkjhvywk0c8kVcfDkZ4VCEk+G5YfDk1yC8zHBChBCKaMnyQbzwrnmKluSYFcuYFCBMhZynb3zjGy4/wE/+Bf0TkoXS15e//GU3I0wfLpUwnMZwZADt5fEgJLJkyZKsZobbG/FiFh1hDYq2ZnNdkVfEoBmPF+SrlI3rguuACQnyZvDQZCPGUgrEC6/i5MmT5W//9m9dKHBr4Y4CJtfaL3/5S0do/baDSTDuy0yMcW/OxPBYcg4pE4Dny68xEYqHC0ESwgzLwe677z758Y9/7EIsKa6crRnxyha5Iv8utnGREo25Qt2qxNY16QLJPvJbitZcJV+RU2doqOHHJdRrUMG8KNQsiyomsZUqMLL0ZS0qfOTkQwyrFGmHTunQx4tuL2jo48k7z/8nqVitJPZsVOK1QGrnPaJez8057QTFx2CfwXq+zpWqcz4owY7dctpeMX7MoP9nP/uZS+KHBPjJDyDfgVlhPGaoOJHA2xqDWML0GKASKulnIF4MfFvaB7OqzM4TFgVx9GskceO9wXOTSVhJPojXhz70IVe7CwJTzPAr2k7OxcMPPyw/+tGPnIqbn/AUZs8ZnBBmyKzwpEmTXM5Oa0wWZHqeOT4vJwKVNGbi6eN+Q8naG/GibhfCGkzKMLvu1wgR8zwW5LKWstEX6Cfky5CbxL2EEDm/VgrEi/uYF77OddpaBnGFCHzve99zXhm/7SC8kBw1JsbIJc3EIHl/+MMfHOHLZgKRiQK8hOwzk7DzTNpU6HVQbvzLX/7inoGkPWRrRryyRa5Yv0smJJXQgdri56Vm3oOuWHDqoP8aMMVqLvsJj5qqYhY3SGjAKAl171+QXZPvFNc8L7x/ta89IqmjB07eD942Qh81j6nDpZpz1rWP1vEqjaTNkxvb8iepeFQSb2/Rum0LJPrKn528fMu/amaNMgzFZEb4d7/7ncuN4mHtV0WJfJmvfe1rjniVknpSM2eppL5ioIR0MQ8dEqv9GoNDQj0hFISWtGT5IF4QPUQpGCRx/otlqGGR50QeC4MUJOX9GKE4zEQzEAI3hATKxZh9R7mOgQqDMiYb/Fh7IV7gQsgSohpMCDEh4wcrSDiTR3h0ua7o46UovNLYucfThQom4XFcI36tFIhXa4cxe5jlqopJJIAXFZBJmQ/2y/XNfY2cPfL0/BqTcORbk3+bySSc3+0XYn0mG7mnk8dKvle2ZsQrW+SK9DuX26UkAw/H8ed/rep98bS3q0j7z2Y3oSHjpeL0iyU8bLJEBo3PZhMt/gYyipcruuRFqXn6F4IHrFHDAzdxluac3SGhHgMkoMqL5Wp5J17vegRVbv+ij5eFR5CcEQb+qMSR50WstR9DVpzQBpJ5udl37tzZz8/b/boMEKkXg7cxG/UsCv8ywCSWPxPZ4nwQL2TkP/zhDzviwvkvlpHPxWw+A0vyd/wOTsjTYRYaMRKkqgcMGFCspue8nw0bNjgVMDykJKVzHv1YeyFeDJjpJ7/4xS/cQBZvkB/vIKSLcNRrr73WhbOiSOenDpOfc5LvdfHQIDTEZA5y6H6tFIgX3q4ZM2YIXnX+bi1rDeJFyD7hsTyDs4ncQMwDhWLuyd27l4fwGccK1njzs+mzXv8w4uUhUaKv5DLFt62UmBKMqOb1lIMF+w1V0YZpUjFWRRvGTC9Mk1XhMZWIS0zDL48/e6/mOzUtrx5WufTKcz8o4QGjJdRzUGHaU4St5p94aYHpqvIqMO0pYiHLzYwTAht+DC8X8eRXXHGFC28o5kDcTztLbV3yMpAtRsGK2T68N35IL4prDBAhXuQ78T6TAWI+iNenP/3pd4lXJl62fGFPmKEnI08+BA9sP4YsNYMT8hEJM6Tvlotxnb6okvIcdzbXaXshXlxHSMn/6le/cuGofs8vXlG8uHgPPv/5zwsKnuVi3D88FUzydrm/+BFLKgXiVSq1IYtJvLxnwVe+8hUnjoKH1s95I8Sfibfbb7/dES/6cCkLBtW/nuijHC9hwT//+c+zJp1GvOqjWoJ/xzcvlZqFj0ti4zJJbFtbgi08uUnB7n0lOGiUVE66QCrPuOLkFfL4SWzdfKmZe78ktq9zYZiNbTo0YKSEJ0yXyKgzpWLE1MZWKYvPjHiJK2aIqx9FLI8A+Dl5eLhIICaunET0oUOH+vl5u12XGU1ConjYMsvp11CvYlbzjjvucKGemf6+nIkXoZjkd5F8jhiMH6IKPgyiCR9jUI23CwzLxbwwy2yv0/ZCvPbs2eNyJVFLQ+HPr0HGEalBKRQ1w2LWkPLb1qbW57iRY+f+4sdzYsTrBKLFJF65Pgsoh0GoOf2V+1s5GmGW9957rwuj9hvJwPEa8SrVs05uV/S4U+2rmfOAiipsltQR/3G0rXF4gepOEujaU6rOvFqqZt9S0Ca4YtJr5mltK5VYXzmv0X0Fe/RT9b4xWkj5fKk87bJG1ymHD414icvpIjSHcEMSif2GuzHbBtmiiC8hh5ko65VD3yh0G8nTIXzsP//zP10Imd/99erVy+GOpDu4Z2rlTLwIx0RqGTESVCD9yg9DtgjLJIyMGWK8hOVikEzU+VB0RN0QguHHGJx5YZbkuGUTZunNSiNY4SfUkfsDYWPgTm5gIQ2v6NKlS901xUDOr5HPRagbHnzaW8o13po6NibQvv3tbzsvup8IBiNeJxAtJvHiHOGp5Zxx7vwaUSaoCxP+/alPfcrvz0tifcIMUThE7CsbdUMjXiVxGk9uBAp2ySP7NIfpJal5/jelV7Pr5Caf+EQFLAKqIFc54zqXWxVA0KJAohZJFdVIvLNdwzCfktpX/5zOf1PFpPoW6NBZAt17S+Xpl0rV9OtU/UNl5kPlM4jxjiVNvDa7AtrRVx/KXVzj3RwvrbtWJqqPhDSgmvbggw86WXgGLn7CHJDohnwhmcugllARQt5KWSnOO/+t+QpxoD4MuUokxPs11CRRW7vuuuucUESmvy9n4rV8+XLnHQQvkrL9zObTT8GMyQUwKzdDJIKZYPoLBMjv4ATvKJ4+VM9Qi8tGMKIciJdXmBWC+sADD/g+zeR0QboQRLjooosEMlJuRs4o5Byi7qfOnRGvE2e6mMSLSRSeu5QCQOjKrw0aNMiFThPyf9ttt/n9eUmsf//997tJJZQ5s6lVaMSrJE7jyY1IHjukA+v1El0+V6KvP6aqff5yWU7eYhE/CQREVNSiYuplWrj4ZifaUCipcshIqvaYRBc9LTWv/EEJ6gFJHWsgxwvBUAW/yLizJXLaRRLuO6Isc70g4/Fd65V4ven6RHLPltxOahmqGpJ4DtFCsOBf/uVfnMgDYU2ZmqcCRu0VwhwY1BHSVU7ehEyPNZ/rUa+FGT7kwbOp2YJcsScdzAAxU2uvxAsPFyqG5MMhBFNuhlw45Au5aWqQ+ZWbJoSOukKQCqTSs8nFLAfilauyHwJBEHOuKeS56TflZuQAoo6H589PiQojXifOdDGJF/mbkA0KCUNA/Nrw4cPdNc3ECtd4ORoqnIxBmFTjGvZrRrz8Ilak9fHkxLev0jpVrzpRDUe8SrFuVzN4RMYq0TnjYqdsGOo7rJk1c/8qunKu1C7QXDjNg0vu2droBkOadxYaMVkqx5+riounq9dLPXFKEMvFXAHl7Sq0sna+xN7MQwHlqg4S6NFXKiacJ1Uzb5Rgp/JQFuJ8kbiPwh6S8kjM+zUGtShRoRZHfScSfM1ORoABNAnFzEpTOJIBtN+wMbbKoJCYfuq1QMIytfZKvCAeY8aMcflwkI9yNbw4THAwQ+7HOP6bb77ZES/C/rIRRSkH4oVXlBxAJjZY/Br3MXDiPgZO5Xgfy3ZSx4jXid5STOKFZxKC/F//9V9C4W+/xn1t9uzZLpSY3MRyNO965TWbiUgjXiV61lO1RyW+b5uq9r0i0dceVrn0fSKq4ldOFuo/TJCWr5xyiURGn1XQpsd3b5D4luUSXfiMxFe/0ei+XMhh5+5SNeODUjH5IlfcuZzk5fHsUUg7tuYNVbl8WZLvZF85HYACZUy8Fi1a5Fz9zDhRK8ivkXNEjSQU4yBgDPTMTkaAsE4e6shdf+c733Fhnngy/BqhUJ/73OeEejF+8nWMeH3NkQ+/eJfK+ka8mj8TRrzEEc5svOlGvE70rXIiXtTtQtyKMhks5WhGvBo/awENSUo1/lV5fEoIXfLYQYlvXiaxZS+pat8aDT3crDlMmr9UJocW6NJDgt37OG9KxZSL1bmk3qUCeZjwEFLLK7rgSReemdK/qfP1HiP3TL1cES2oHBk/Q8IDx2j7+ms+muZ7Fahd79l/jm8oGl27co4Kibwm8bWLJNdC2hCvYO+BisVMqTr7Wgl2VvJRoFy8HA/9pJ+vW7fO1UgiTIU8Er9GDSnyRvAmUOeJfJpyDNPxe9x+1yc3hxk9Bkb33HOP35+7EE5wheB+4QtfcAIbfnBur8SLGl4koP/jP/6jw8438CXyAyNezZ8II14ilAYhV2jBggWurlfziJ341ojXCSzKiXhR5JvQWELPWcrRjHg1ftbKnng5cqW1qpKH90l87xaJLX5BovP/IikN+ykXz1cgUiFSWSXVF35MKs56nyteHAiFGz9juX6KCqQuMVU4jKpHKL56viQhqg1N889QXAz1HSqVqroYGTVVPT9d0uSr4bol9h5yWTv/UYlq7bLkjg0n57L5bC/qk8F+p0hE661Vnn6Fy8UrFw8gSdjEVhMCRz0Nv4Z4AcVHUUyDeFEnaejQoX430+bXz9WziHz/kCFDXJ7S3/zN37h8OrDP1Nor8SJkbMSIEU6YgrIH5WpGvJo/c0a8RMiXQdFxyZIlwoRapmbE6wRS5US8Ro8e7VSFmYwrx/xVUDfidaLv1f+r/IlX3dGkYjWSqjkisQ1vqbT8PEls/f/snXmQnMV993tmZy/EISEhkIRuBEJCAiSEESAEBmMb2wR8QBFcMcFOObaTcip/xJXKUTmcy0flD2LeuBKMwXmLsnkNsROI/YIT4OWyxWEwIJlDAgkQQiAhEEi7O8f7+/SotcOyK83zzDNH7367ajSr3Zln+vl0T3d/+3f0Bld65flq9r5Ot3yxwDILSu8ZF7ueU853XUfNNavK1Np2yvzn0mtbqgkozEWz+PyvXGXnNku+sefdn2OCMDfpCC+6CvNOMhE23+WPnOm6DpvmXLOE4btrkOp/iPC9d/2bG3ziHrN2vW7HDexNdZ39b+rutfaY4rpmLrSYt1NcYe5JrjBnqRn/mpeFcv9nN/gD6apJaXvTTTf582/IoPbWWyOSqtTxGcQbYfXC9YE4CZUqgZA9klTonNvF2Wn49ictId01O5uf+MQnEqe7jll4sTFAumUYssBOkk6eZC8I1q9+9avu0ksv9Zk3kwjWpO2U9es5ZJTvKNZorHYE5CcpEyXGiyMH7r77bnfbbbf5M9+SMOK19BHiZHDlPdfiZtjoiK0QJ8QYQ6xukjFGwmu4pVspvBrNajjfEsKQTZhx7fLLLx++iYh+YlzD24ZMv0kSwoRbVIxXINHhz+XdO1xp1zY3cO8P3dAvf2aWL4uzsOxuMZTC8ae5wgmrXM+J5t53zHFNrzJCdXC9xcYhVJ9+yJXf2P7ezzRRmOufZK52x1rd3ue6F6xw3XOXWfbD/ve+tu7f1Hq35up+V70vLO961e257Vo7YuB/rP2Hqm6n9b75AK/zsV6HT3E9Kz5sbqGfMstkvz3MWhlBIWsaB3CyU5o0gJ/bI2ifAPVPf/rT3vIVwS23pIqkPkfYcl4ai/8kaZ5rKwhbzkJC1DLZJg3+j1l4MSGzMfCzn/3MrVu3LtFZUjDkkFHYI1hxjeXYg1gK7UYiFtKkk3Y66Xl7E0V4ccg2mUL5nuHOm7TMmDHDHwjPxgaW0RjP8eLw6G9+85u+v2zfPspcPQYUCa9hMK0UXo1+FuMa52ciuki4FGNhQw1rPhuSSTO2cr8SXpG0urd8WXKF4vOP+8fQs49Wz3EaGshsAd4sFPmpZk2atcj1rr7UdS8km6AtIJoYU4UoKdvZXsWXn7Z4KBNfL5qV8NUXnUOshmIuh44087jbWZxX1/Q5rusYSwYyfZ5/kOEv11/H7qG5N5Z37zRxt80+43kfl4craGH2Etd93Gnh0xp+5jO4/t7/+Td/T5nG+vl0+72WCGWp1XmlPVZZ/U9suM6tuADJNVi0kGCDs6aSFha0LFbYNeZAR9y7mBgmennhhRe8CxAZ18ggmdSaiHUGkcXZXbgYktUwTdr+mIUXKZfZzb/zzjv9zij3kqRgLSQujrTL/ExfjaVwaDGxgf/5n//pYwNfe+21RFWfKMILCw/jFhtI3/ve9xIx4sVTp051p5xyis8Qx+Hk/D+2QnbaP//zP/cW0iRWYQmv4ZZuVAyR9OiDH/ygf2A9PVB55513/HxAm6Vx8+e7zflzV111lfuDP/iDA31Ux/7tn/7pnxwbBhs3bnRJNgvCDUl4BRKRPJNggQODB37xHxbPtM7OrdpZdaXz1q9ai0sH3ZDt1OYnH+36zvu061m6xuUOIaaq+RaV8pvb3eCz6ywRxUOu+PTD/iw0bynERXOEm2Y4ZLlgVi/EYdfUY13+iOnVZBO2iDSlaIfsVpnuz9tCXJm5+5Vef8mVtj7jhp572AswhFfvaRe5/vM+k1kjcH5XcfMT/vyu4qZfZXbd2gvlzO0wz0HTqz/hek8+38fkuQ4/aJqzXzjEkN0nLAu0zf72qb25g/yMMGDiIeiXlOcIh4l4qDLp48lk+NBDD/nDex944AF/EG6SQ6pBjasc2QvPOeccn82QGLo0JWbhhXhFeCBe2SBIKl6xxv7O7/yOT65BQHpM1gwsXLjhkDgB8YkrcJIyUYQXyWvWr1/vrV3/8i//kgSRfy2uhbhuESvDBgfnncUyboWjKjg8+Stf+Urie5fwGkbWSuFFVlvmiD/5kz/xLqK0Y5I5lw05kgd9/vOf99dgro3FjZp75fGNb3zDnz2HJwjskxYJr6TE2vz6SmnIx3yR5bC4xc502vRLn0TCu9PZgr8ji1m3cpMOd93LzrFEDna217yTmx7rBQeshKTh96Jo02Nm+fq1K738jIklsxIO1Vi/eLG3+vRZPSf7uiHE8lZnxAhWMS9AgpUOzvYov7XDVXZXD2wm8UWF/5fNBdCu1XfGJa7/gqu5ciaFc8oGN9zvBeSoSUOy+BRi3zhoeulZvp0Kcyz+7cjOtv6w20T8CGdM4arDpMC5U0kLIoHkGldffbW3MJB5r7e3N+llon89u5mPPfaYt3LBkzglmCaZWIHAgvC8887zsScEUROLkqbELLxYVN9zzz1efPzoRz9KLD4QWrAj5TIsk6ThT8M6y/fUWvvuv/9+b81Icv2JIrwQpIxfuC7hbpe0MEbBCuGFdfTYY491PT3N39RMWs/RXs+ClYUrR1V87WtfG+0lB/ydhNcwnlYKL4QHG3F/8Rd/4b797W/77zau6fUWXKbZmGNTCfHGXJvUBb3ez8r6dcyPxK7+3d/9nf/OYqElnjVpkfBKSqwTXo/qHtjtymZpwcpS3PyUCYrnTASY9YsU6qNYdNpebUvk0DVzgSssPNWf64VLn8+gF8xITawgli9vMXrhSVfc9LhZpV41kWTJKRBfiCizXHlmtXUwd8hcT69lQJzmRWMOy88+4VUp23vMnZF07t7iyDUQl5yLZS6K+cnTLZnIBa7vfRlkI8OqZo+BX/zYDT52p7mXbnaVN3fU1jTzn0m24c9fW/lhS7hhcW95XEP3mfsy/7TGLogo4PGP//iP3lWHnfY0O1AsVnjg/kBMDZmXcI2bSJYvJhUWQlhpcI/DkpjmsGQmVnbeP/OZz/h0wfjzT5mS7nDumIUXMXKIWHjeeOONPmYuSW9nMbJixQofH0cMIvFynV4Q6Gx8EPvAogzhiTtOkoUZ9zhRhFc4Jw+XLeL5YJfEukxmVsQX1noWcxxOm+aw6Xb0K9ws+X7gZsn3I2mR8Bom1krhFT7161//urf6sHGwa9eu8Ou6nzk/88tf/rI/ygVX6hgK8+PmzZsdVlrid9MWCa+05Nr6PnOVsx0Hb9F5503LcvicWb7MomMHCJdeeMpVvEWmwxJv7BMmPtbLUssX5i3z7ode0DSZJe6FHD6MACvvfMVbCWFVfsOEE5Yqsh6OTFSC0MDdDJdIH5OG8NgnPizNP0KtmuDERJf9TDxYVbBYnJRlCPSxYtOObfjOKoN7vIVz7z1mzbEzyhDW3mLX8JXHvkCu1873sri8vnOvcN2WECXXN8ni8kx4dmAJpv9bbrnFxySxu85CL2kJAuvkk0/2SSAI/CUZBIsaFjcToZAMgpTOnKlDzBy78YjapIUF0Xxzf/r93/99L7yIO0lrPYxZeOFaiOUHa9c111yTOBYAAcsies2aNe6P//iPfSxP0rZo9esRDSwCEe3/8A//4F1WEfR8T5OUiSK84ILY4ow8hBfs6PP1FtwKGbtwj77iiit8LCViPYbCWEMqeVzEccVNWiS8hom1Q3hdf/31XjTTjmkSTHCUC5ucZ511lmPejaGwUYALNVkNyVabtkh4pSXXQe8LFh3vSmfuhyVLoV7etd0W6ZZeG7e6Dir5KUe7womrXffxp/tEDvk+c+MjfXkLyv4EJS+Zy+HW5/yBy2WsVnbYcvntXV7g+AQcWLOCeN0nst5VvX0ueQgUL0omERt1tCXnsMQcMxe5wswT7PeHZnI2GIdCl3ZudQP3WTbLxyyGCYGYcBHzrrrX+R/S7fec9kHXYwdNd9n95M0Fs5PLI4884ohHItaLLGEIhqSLPe6PBd+8efP2Z+LDysAEP54L1ghcJphIWABh7dqwYUPqW16yZIk77bTTHMH+TKpYEtP68McsvOC6Y8cOn9kP1xR2hpNYM1hUw27lypU+Bmb16tW+f3byRgD3TIZRUqR/61vf8gk20nSkiSK8AhvOI2QXHSsQu+pJC5Yu3FE5GoNEQZ1cGJcZn+kjxLWRXCRNSm4Jr+FWbofwImMp1nys2hwFkLQsXrzYW/TZMMBiy7iWdp5I+tlpX8/5Xbjgs8YgeVDaIuGVllwnvQ93NLPqVOOMXneDz1hCieceMXGxybvDdVJVnbnv5Q8/0ltS+s6+rGr1MjfElhTvgmmBoFjALBtk1QpmB1RvMxH26iafNbCy2wQYVqW9tuu49x17rVm0cEWsKTlLvZ6ffJSd/TXD5afZAcRzl3sLF7FgxEh5KxluibZwarQUt210xRfXu8FH7nDFDT9/r0tkox8w1vtNXCIkC5blEJdJLHidXLDOYOki1ouA/rTWGgZ/JnQEAynQySiHEBvPBZc4FnvsurOTh1hIsus+kg3ns7D4O/vss717XCPB/jELL9zuEFosUP7sz/7MPW+pw3EtS1Jgh9srIpaFNRnsOjm7IVY+xDsJRbBm4JaTpkw04XX77bf7LGlsIBFXmbTgqsVCFvctYmc6uSC6GJ+xBP/93/+9PwYkrWWdjTHi2774xS+mdrFkw46F8IMPPpgYG14RjHMcmbFq1arE78/qDe0QXnzPsVbyPcfqlbQQ20UcK4lVcEvv67P4cov96uRyww03+HhEQhqYN9MWCa+05DrwfZWiiQmy7FnacZ/a/LWXXNkepR0vVy1glgFxpIho+W2YW4SzRX3BUpcTB0UCh4JZiVpecBU0q1Zl4O2q5estsxBaIg7EGKLMWwoRaFiYEGw1xcdyWfINEnHkDjuymgHRDobONE0+dbP2HHr2ITfwxN3mQrrelV/ZVFOLJv9oVsjcpMPMJXS563//b7muYxfb/WGZbFxMNqPmBLiSaAPhwK4UO1Jp0rxSN6wMpLvF/YHEBkyu7CgzMYyngnWCQOFHH33Uu09g8YIbLJNYZgITuMHoC1/4gnd7giEL6EZKzMIr3DdcST/Mzj6uh0kL7oYs6jir6ZOf/KSbNm2a68QzvRCVWPWI1/nJT37iraZpYj/gM9GEF1lE77rrLn8oK26+SQuLWFx62ShCpJNkgzjLTiwcLYDA5NBoUnKz0ZOmyOI1TK0dwovDv+m3IZZzuDb1/RSSbHCWF+MamVs7NdYLkcXGGR41bFDiPp10Ew0qCEvmSNzw/+Zv/qY+UBG9Kme7je9eLUdU+Uyqalaa8ju7vAAb3HCfK260pBIv7svo59qPJj9lussfa2d7LT/f9a68KJNbHk8XIbaL9ht85Kdu7703mxXOLHDEorW4cJ5X34c/b3Fry701LyQYaXE16vo43OUI6mehi/95mp3j2g8KC96PfOQjfkezURFRe+1O+JmzllgoI1bhxQKICTxtIUUwjP70T//UZ4dMe53a940H4YXgYneffolbTtLCAoXJmgNyyQKGBbYTrV70H1xUWVBgwWmkTDThxeHvuGjinkn6/bTl3HPP9f1k7dq1/gy9tNdp5vu4z9qDxVnEpikSXsPU2iG8mG/xMmG8x6qftnDkCPFejG9Y9DuxPPnkk35DF0s+G7tpy6RJk3yiKVLpw228FQkvLDpYwEi+gcXLP17x8UJlixkqEwdmFh6fVt2sK60u1QyAk11h0SrXc9Ia13X0AktdPrPV1ejYz+OstqIlABl66j43+CtbrFncmc/A2OIa54+a43pOv8h1LzrNFWYsqmaibHEd6v04gtTZTWUXjixh69at8//n92kKi1t24JgMWNDwTIY+ss3FbP1ipw5OCALEwMMPP+x/5vdpXH4CWyZQXAxxiSMuKYsyHoQXVi6STbA4+f73v58YC3EPiC/i5tgZxrWpnW5NY90Abkd33HGHF12cr9dImWjCCxdNrIN/+7d/6zdB0lqdEeW4HJIFkw0jxios0Z1QsLCzUOe7gLgkUQEuW2nScWgYqqMAADUPSURBVHM/El7DrdoO4cW8SlINjgL48Y9/7OeUNFYgrLNYu7DUMs9i0e+U+ZX5kO8l1mjcDNnY5XzGtEXCKy25SN/nE0tYso3iKxYz9PIGV3qJuKYXfDyTM/dEn0yCWCYLfK1U9iVw2Pf/Zt4yWQ67FiyzJA5rzKpyajUhRYuSbTTzvlJfG0Ot8R8y0TX4S4vrssOSS1uS+/yn/vwRb8wdPtXivE61mLzVrnfpWp80ZMRLOu6/uEB897vf9aKCgZId1UYM4IivELyOuxcTRYyp5glqZ5cSF0ysgSyUcZ1g8ZNmwgwNH9wnrrrqKn+WEJYvzvHKoowH4YWbCpM1blXXXntt4pThgSP9DvdXdoYvu+wyvzhJmy0yXDOLZxbU9B9cjhCW3Gsj8Q/UaaIJr9AOf/VXf+U5EgOVxhIU3H1/93d/11vp6TOwRLw3EmsZ6pf2Gddl7imIc1xRsfI1UiS8hum1Q3jx6WzgcQYdSTaYa/GiSFMQW8R5sVnA5iZus+1OtEGfRXRhoSWO7Z//+Z/9/aa5v/AeCa9AYqI8m4jyhy+b+CqbFQxLGFkPeSYpB9nzypwDtv9v9ve3qocDNxNR7hAOKZ7sepafZ4f2rnZdZmHJH9pYXEgz69vsa/skKeZiOPTrB93A/bf6GL2KZVxsV/EHSc+Y73qWrnG9qy627IZHtKsqdX8uiz6CfUmygUsLZ1E1YsnB8sUkv2DBAp/oAKsOO3OxHbIcRAxxXFgD169f7xfJiLE0MV2hQUI8HPElBJmz+MsqSDrUmQUbbZkm+9mXvvQld+WVV/pEH+044yjE0iFKEF4kMkkjTMKkjUWRPogII/FGuwsbHVgvcFklIyZxg9xzI2WiCi/EOUdjYIVOk5iExSoJgkgpT4p5+gnWZ8aqrL6TadoVN1QsvxxVQR8hXgYrXyNFwmuYXruEF9910qvTpnz/08SwchdYZpcvX+6PzsCqj9WWPtsu8cUmJfeG6zSeCriIEwudZjNkuJWcC2O4XA1rqUy0n61zcRAzZ1mV3sD1kHOtTHwhxHbb71582pW3mVXMkkzYyqypdArHr/QZ9LoXrvBuh3lL1e7Pz2rqp3bSxc3SZYzLxr+49RlzMXzAzu36qRfCba2lz0I51XWfdI7rX3ulZaScavk18m2t0sE+HJHFpI57ALFLjboHhM9j0GSy//jHP+6TbiA4sHwFAYY7WDt3lUM9a59hgbBi4cMOMwLm3nvv9a6FaRb/tdfmfsMhvyzwyATJYi/LMh6EV+DBLj9pw3GFRfSmLewIw5kUzDAnMxjt0OpC29CvwsILFzK+a1mUiSq8yLDHIo9FLAkoWACmsdYzTmHtwjJKdlYEOoeYt3qMCuMPqbcRk7gYsumDMG9ks4c+JuE1/E1rl/CifXE3ZAwgPpENT6zf9NskJWQT5igSztDk6IxFixZ5oUKfbWXBhZKxjQ2lcEQNMV6sKRrtsxJerWzJjv2s6mLfW8IQVz6Ln8XD7IsnGnj4djf4xD3VbH8kd2hi4dyo/JRjbIFvLoeLVpr4WujyZg2bMGWfCC5tfdYNWEKN4iZLhrL9Jd8mbWVgO6iu0G1xeGtd/4Wf9Sn0fbr8tlbqwB/OoM8ASTwBkzz+5zfffPOB31THX5kcmAQQW3PnzvWLXuJu8E+fMWOGXwjwmk4qWPsQXCzmOFyayYT/M1Gnja0I98fCZ+HChe4DH/iAtyjNmTPHi4Dw9yyex5PwQmyx+GTXHxGWtiD0EVsIrwsuuMCLMA6sbnWhL9GvOI+JTQ5cydglzqJMVOGF2y+77JzpRSB/WoHCOMUij8Uri1gWsyxq+c62cowK4w9WPJISYMVjwyetoKztWxJewzTaJbxoR/oo8cJY8xFgzC9J5xY2LOmzbA7QZ9ksoM+yeUA7t7LAkvP0cMNno5IzynChRJCl2QSprbuEVy0N/TwqgYHH7jThZanMn3/SlV9/edTXZPnLXG+/67I084X5y+xxiiscNdcsLNPGv+ULN1BLY1+0w6+HNj5q1q57XWm7+b9b7J1907NEnPxaNiBieewxi1efCS8SoHBWWQyFARS3LlwFSHGd1sVrtHsNrhHLli3zwosdZc6UYUHMwjhLd7vRPn+s3zHhsfhlccP9Ij5xz0OAkvCACQQx00hhkuT+EFq4vSG8LrzwwqZMkONJeNEmLKzZGcbtkHZqxCUPV0Ncykhqws+zZs1yxNfRNs2wvLLoYIcbgcUCGhGJ4GKXuxEL3mh9caIKL/iSaZRFLOnW4ZxWzOKmxVjE2PTRj37UJ2dhjMLdFr7NLMTG0NexFLAop58wBjE+pU12NLK+El7DRNolvEINcDEMrsaIr7R9FndY+iyJrIinXrp06X4XcURZMwtzI/HPxHTRbwlVwL2QOSipkByrnhJeY5HR7/cTKJr1pfjCE27wF7e54vONZanaf9ED/WALupwdpszBxN710DLp9Ry3yuV6Jx3oXdH/jXPDyubqufe+/+OGNjxgh17beWKWTr7toguyJrpyff2u22K8+s6z87zMKhmL8GI3jkmec3FIb83kj/tOFoVFDYkNSCLBeTlMFIgQFjlYwxBgWSWYSFJf3CGIn2BRjDWCBTETCe4fwQUELo0Udsy5Pxb9n/3sZ90ZZ5zhZs6c2ZQYkvEkvLDC0h8RXrgc0k6NuHuS+QuhhejCqoEFjP5H2zTDqkH9EV30KdLjc+As1hn6XCMCcrS+OFGFF+IWxiQrwCrKIbVbt24dDVFdvwviC1FOrFfIOEqfaWbBGoolFIsBD2JjcHmmNGo1CPWW8AoknPdgwO33r//6r32yi+G/1PcTAofxgwebaEkLogU3Y/rtddddl3pcY8Mo9FkSbDC3kGoe12pcrJtZqD/u0mT6ZWxjbEZAZmGdDfWW8Aok9DwmAeKNSq+96AbX3eaGnnnIBIHFgGGFaXLJ9U1y+aNm2+G9S83tcJXrmm6WryNnWWiRuXGNp4yHWLrsUdz8hHctHFp/vyu+9Iyl+LfA9AYXxw03kQkL3w6Tp7uuWce77uNWWPKTM13ukCOqB0U3/AGtuwBZ1lggIr5YyOAKwUSRRcE9AusXCxsyH/KMKyLWINwkyIjIDjOLYSwRWZawkMeyxe4yGabYLUdo4R5B5sLw+6w+l8U+i2IW+mvWrPEuIfMshTUMmDCzLuNJeAU2uFyF82DYWW2ksENMHyPxC+IfdzLEF0KY39NejfS70Mf4zmB9oV+xQMF6wS43i5OsLBi1HCaq8IIBAoV+wcYJbqmMXWHTpJZRvT+PHKMQYBxHwDjFphFjUyMxgrQ/wpvxB5HIhgLiPFhCGz1Pcaz7lPAaJtNuixf9k/ZncxPvEtqfMSNtYeOIsY25hUQbuPPzwGJLbHUWKeexLrMOCH2W/srGLP2VPoyVi/EvyyLhlSXNcXytyp433cDj/22WGBMFG5+wTIfpTplPgyg/bZbrWnCS6z7+DNfDor+7r6PPkUp6j1i6SPO/994f2EHJP7FYOktssjfdYZJJP/ugr7e4rvzUY1zBXD97VnzIFWYebzF3ltEwYuGLyyHuOyxo2JFtRsEKRhZEdufI0sQCB3dEJoyRvupp3MFqd4tZ7LBIYxGMhYsFMYs0hBcTcTMKC2Lu5Ytf/KLfGeX/zUxpPh6FF8HotNU3v/lNf+5VFu3E4hqRxeIE10N2iIk/pH1Cv0vS30I/C32M7wyW42BFpd9lvSip5TCRhRc77PDlO00fYfcda0ZWAhfrBuMS/ePUU0/d78oF/yR9hNfTT6grVrpgMWBTgcUrdW5mH5HwogWqpd3CK9Sj0cPiw3VGPjMesJnJURpYbZlTg+thmj7L9WHGXMn3iz7LZkearLkj63qg/0t4HYiO/rafAOKgtG2Tjz0iyx4/+0OXWxB7lOs/1OWOmGop5meb1WueZT20Q3znLDFXt36zunTvr2NsP/hkJuZKWNz8lCs++7C5c9pZXS8/W7Um2u5hu0quf5JZtA5z+enzvZWxC+ELe4u1yx06xc5Y62Vmblf1Gv5cBlUGV87kINFEI/ETY1WGnToWwezI8WBXmWdcwnCdCD/zfwZhRBq7zSya2eEbaTUKLjrsvrGrSOwEVgZ2F/kZNy8sXgSx83sWOyyC2M3LslA/6kkyByY+XEAIgub3zXBrC3Ufj8IL9xUskwRvk4aZ2DvarZFCv6EdWKAESyt9Dwss/yf5S+h79Dn6WnjwuSyQQ3+iz9GX2AkO1lR2rxGMPMKCulGX1QPd70QWXogZRBbMcXviUGriTbLaTGEcom/wwCpK38BCyjPWefoJcTZ83+kjjGcU2ptxiO9k7ThEIgL6Bf2FZzwMsCQg2pvdR9jcIn7tKjtDkPtKU8hc94d/+Id+AZ70/aeffro/0JxjNNp5qHmnCC/GCzb/br31Vn9uIWMJ81ajhXkG132SOWEFQ4TRd+mr9GP6Ln0V6z79Nlj5Gdfos8yT9FkejF/M/YzBzKOhz4a5s9G6Huj9El4HoqO/DROwSQDxVXz5aR+DVCLbnrkculILBYKlNM/1HWLnSH3U9SyzQ3ztnK98vx3QavFguS6bFDo8vfl+mBVLDVwcshTxu3zq/sHH/8cNmBunt3K1wIVzfz34Abcws155900Y2iM/+aiqlWuhpfafu9wn0shPmvyut8X+H0QJWQ5ZzODPzaDbiBtPEh4sDIj/YpJg0sDFBwHGg0kFy1FY5ITrUl8mVeoYRBYLMlwhWjFRsJvIop7JjQX8b//2b/tdR+rOAr7ZZTwKL5hxX/Q/XF9ZpLDzilgOlqasuLJI4YG7Ds+0I5YCFjLhwWexOGHRFAQ9CxOsFrgTspBudZnIwiuwxpJEm2Clv+aaa3ymNX6XZUGs811mTMJVmoUti1rGKn5PH6ldxDIOMe7gwozgCm7cjEf8jX7UqoJIRPhcdNFF7oorrthvAUn6+RJeziexaCTGKzCn/ekHZBHmwGH6CJuCjGtZjW30x9BnGdPYAKTvMn8iuphPeaaE+jCu1W4ice4gfZe6NtMqG7iEZwmvQELPByFgWfVsp6tkZ3xhmSH5w9Djd9vhy9mkDT7Ih1f/jHubTRBd0451+WlYv+a4LjvUt2vWYtd1xHRLvmFfsgjEV2XvblfcvtnOR9vgY7pKr2w0C6ItahCxFuvVsmILaW9NnMTh1SZijzjaJ83wrp0wPmyqy00yC5dx7fTU8UmZsbhlMsAthkUvhwnjHpH1gma0ejExsJOMYOHBBBJ26XhG4Iy0eFFfJo+wc0c9WbTzYEc5a8vWyHqHOp977rn7D+1lkqPuzbR0hXqMV+GFRYMMWsQVYPnC3QWLLG2aZaG/8WAxwjMLafoabRcefB6WCRYhPOhTcEfwY51Lm6GskfuQ8LKTRKyP0B6c+0YyE7LF4VacZWFjhe8y41HYAGJxyPc+fMfDmMTCmXGI/hHGIfpG6Cf8rZkWrpH3LeE1TKRTLF60P/0AKz4bS2xy4p5Mn8nKVZb+SN9EXNFX2UjiwXjGxmXot9AJ9Qku03yfGNuwyNJ3qWtWgnC4Ncb+ScJrbDb6yygEfOa9t3eY8Pq5G3jg3y29/EtmuWns5PlRPubgvyrYgm+6ia+ZC80qs8y7weWPmGYuciYi+u2BSOPRKYUEGpyPttsSlex42RURXSZgixsfM34mXptlObQJFatWziyDCKlwGHUub9Yti9/KTTrMuw96K9eUGSZqZ5vF6xjXNfnoTiHX1HqwCxcsDvh3Y/nCuqRSJcAkxiKdnXBiuthV/uQnP+knOCaPVpXxKrwCP6yXZK8j89tdFpiONaHZYjp8dic/S3gNtw4bRWwO0U9wk2acwvo90YuE13AP6BThFWqEsMHKdMMNN/jjXDS/VslIeIUeouf6COxzk8PlcNDOmSo+96grbXy8vvdm+SqzbPl05nbmF+6GpJ7Pz7D4rzmWhGPecnNJtLgwiwHrlIKVq/zmdjf46wctJb+5ab76ov3f0sXvsYkT0WW7iE0ptnCunot2kus9+XwvwPgczwcLIX8nTq7bzvzBZdMSl3jXTRO2E6GwuMXfm3M6yDLHbjJCTKVKgAkC18Kzzz7bXXLJJd6VAxckdhQRZa0q4114EQPBogThxSIFqxeWsIleJLyGewC79AgtLAeIL6yjWOwnepHwGu4BnSa88NLggVcJcYrMsY1mcB2+23h/kvCKt+3aWnNERNFc5Iae/oUbevI+n+Ww8k5zMqjVc6O5SUf4uKSuGce5wqwTzG3uKO8+h8DIYwGzv7fSXc5bt+wwZJj4WC47n4uU/MVNj7ni1ufM8mVWlaFsEx+Mxil3qJ3lM/sEywi5yvUsPccLLl7n3QcRWSqeABYH/L3x8w8JNwgSz9I1IibUCCsWNPPnz/fn/px11lkON0MySOHC0eoy3oUXrjD0NfogCRToh7i/4sqVtdthq9uOzwuuP8Hlp153NAmv97YWmVjpJyxiyTBJzAoL7vFSGF/oL/WOvRJewy3facIr1IyNJDYJON8rzK/tcF0O9cnyGZdHXHR5Zryux5VSwivLFphI19rnOje06VE3uP4+V3rucVfi7Kl2Fev0/pBfs9QgsPJHm8ucxYDl7eyvwjGIscWulQkiym+/4Urmhlna+owlJPm1K7/0nCu9usXE1l6fWMPHcjXLylXTBl0zFrq+cy53hYWn+Bgun4SEvxMLhxuiiifArhwLXJIIkEyAlPPs0GENwxox0QoTA6nI165d67OF4WaILz1WrqRpe7NgN96FF4yIMWAxQibBH/7wh+7666/3i2r+H3sJwe4ILiw3PFhYH6xIeL2XENzgh/AiORAHFDfrWIz3fnrzfxMS9tQ79kp4DbdJpwov+iyusWwoYf1ifm1Hsp5hUtn9RKwsSbLYLGATBPF1sCLhdTBC+vsBCRCvVHrV0sw/cY8betoOV7YYpk44gyp3mCWFsEf+8Kn2sMN/LX6JBBI5EkmYa6JPKtFradNJHNFjj/2ZEROIEcQnQZmDb/t75qyzsmUqrLy5w7sVlt/Y7spm6Sq/8Yo9tletXAekmeEfOX9rytGuMH+56z3jN1xhxqKqa2YEyUcypJD4UkwOLHSZIAhgf+qpp9zGjRv9gDreBRg7zcRzcQYUB/Bytg+H8XLeDwvgdpaJILzgizBhEwCLBjvDnOFE4g0sssRLxFZCjCCHOZ955pl+scX3Cpe5er5PEl5jtzgbRCQvYIMI9+hmnts3di0a/wuWAhatuDCzwcMinQ0Ixl3igw5WJLyGCXWq8KKGtCtxisyp99577/4zJxHYbCTEWMimSL8lSyyCi+9hPS7iEl4xtnYH1nng4dvdwK/+25W3PO3KO1/twBqagedwy9x3zFxLxGEZ+6bawzIhelFGRkSy95Gu3ifkqE98VYp28PGgnVGyy9wIEVivbbHshBtdccsGV9m5zeK33vaZINsBI9c3yRVOsPPOTjjd9S4+yyfMaEc9Yv1Mkhuw2CXhBjvKLBZDOtxY7+lA9caKRTYzFrqcRfOxj33Mp5RmUdMJZaIIr5GsyWKHew5xPc8880xLM2+NrEua/yPk6VOkqP7CF77g7rLEIddee61PHlKPe5yE14GpI2BxN8TyRV953tK5tzI724FrV99f2fDBIsq5gByMi4BEVDLmcj8HKxJew4Q6WXiFWjKWc3YWffa73/2uF9jMtzH1W+ZLHhdeeKHDDZ9xitCEm266qa7DlyW8Qm/Qc0MEBp+xWC97FJ+839zrNjZ0rWa92SfjIItfsHhh6eJhCTpIKuFFl1mKfHIJmwx8oomaylRI9W5Cyz/zeztzq0Ic18Aee5jVyxJllInpessGEfu9s7O6bDSpuUJrfvQZCs3NsmfZua6w4FR/DpdPtd+ajx8Xn8IOHLuuuEOwECAgmIxiJOFgkqhnt77TQbDTjJsEu3Wc27Ns2TJ38skn+wQaCxYs8Gek4LveCWWiCi9iIziIFOFFzBcLUiyyWMU6eaFCvyITZrB0cajsaaed5l0ov/GNb0h4ZfSlwopAUhasQ1i/6CMkCMJS1OljFFYuBBfHUrB4XblypVuxYoV3RQubXRJeyTpKDMKLsYvxnI0kjkhgTsXCz5mBuOp1csGCz9iGVwh99YwzzvD9l01Z1gcSXtXWy9nk1PqVbyf3nCbVbWjLU25o0y/d0CN3uNLm9U36lBZclux+dkgzFqNc/7vTZftDj/eaFcvOVaFUTHi5vR0U/2M7MMRtFeaf5GO6epa938e2tYDauP4IdpURYLhHcB4JiwEG2hCnUm+igE6AxC4dggtLRIi74VBd4rnWrFnjY7o6oZ4j6zBRhRccuHdcWFhQYzFCjOF2GPrfSFbt+n/YBaZfsQN80kkneffCiy++2LuQcSYUcWtf/epXJbwybqQQQ4Ng+d73vudjvljE8nseJDXphKVQ7fjDYfFs+pxzzjnusssu832EWBkWrxwmLotX8k4Sg/AKd8XGAG6GtHMQ2iTgCONap/RZ6hs2KemzJJg6//zz3aWXXupF17Rp0/w9kJFWwqvauhJeoZc3+Xnwybt9ko3is49aqnRLIhFrCUk6uuycKx61xafSJ/V7ufpbm8yadv5W7efW+zOi0dwle1Z9xPUsP696Jteh7Y3Nqbfqnfy6sEOH2MJHHasDfurr16/3u3ZYwFgcx1Bw62HyIIaL2C2sXPMtc+HMmTN9gDALoU4sE1l4kSULCwbuOYguLBuPPPKI74dYYzulsBNM/+LoAXaC6VtYvDiOgINNWbx85zvfkfBqQoOFrJjbtm3zfYT+wYKW/sGmEdb7TsiOWTv+IMyJIcV6QD+hj2Bhl/BK30FiEl5sWLIpwNhGv6W/YgHDckSSK/osc28nFA6dJ5Zr+fLlbvXq1X7upN/ink+h7hJewy0l4TXMoqk/7f3Fj9zgL83atXWTq+yKPwtXU2FlfXEsXRabRjKN/FGzXO9pH3U9S862HM4mxEaKx6w/ewJej0kB0cUEgQsiC2JEGZMeAoEdOyaMetLKNhsfi2GsW4gtFjZMFNOnT/duEiTPwLWQXWasEexGd2qZyMIrtAl9ij6G8MelDPccRBgJYdg5xjLbysV1sF6wWKZvsfNLvA3xXFgxcFcdGSN43XXXSXiFBm3iM5YDrKQ8M1YxRhH0HwQYY1MrLGChjxDTwuKV/jBr1izvdoqrFsKLzZ7a8UfCK33HiEl4jbxL+in9lbEtzKuIMsY3xrVWz6fBK4Qsm/RZNipxmcYzhD7LmEdJMzcpxmtk6+v/qQjsued/u4F1t1lSCcve944dCqzSOgIWl5br7XPdJ57pek79gOuaPs9ncVTK+OY0AdmLWMCw0GVSIMYCSwRCDL91/o8rGJNguwtuEVgcwu4yu3b8n0Uy7mAIMhY9WCM6uaSZ3Ebez5e+9CV35ZVXepemkYJg5Gs78f/hDCxYILRwJSOgm4N02SnGCsv/W1WId6DvzJs3zy+gWUgTp4P1lIUJggwLR22R8Kql0byfGZ8Ym+gPWOnJjMmilj5Cv2FswuLQ7EIcF32EGFKs7PQRrAYsZNkAGm38kfBK3yoxCy/6LA/GNuZQ+izjGhsIYWMzPZnk72SeZPMIN3w2CLDKErcazrKkb1PSzE0SXsnbQ++oJeB9x0tuzx3fcQM//5GJLnO5GhqofYV+bhYBLBRm0cLS1TXzONe9eLUdkrxGhyM3i/co12UXDpHFRMGOXQgQxnWCBU6YTHhmgEa0Yblg0ZPVjjMLGxa57Cjz4GcG9mDdYpGzaNEi79KDdQvRhSUsTByj3FbH/Yp4AFKr32UxTj/4wQ+8K0rSSn7uc59zl19+ebTCa+T9hg2AYPliUc0im77GohsXWDYH+H+jBWGO0GL3N2S/RLjzQHgRJ4jrDQ/EFv1rtHLDDTe4r3/963XHeLHIIf4HKxqLdvpu0kIyjxtvvNGLDZjVW9ik4DMvuugin22v3vd10utCX8DlkAQcbBA9bzGqjFP0Dxa5vIbvV6OxqvQPxpQwFtFPaC/GHIQXSTToJ/zMOMW4NVrh+00sLe6S1PNghc+gnT70oQ+5T33qU35hfLD3jPZ3LC1f+cpXvNvYaH8/0O/4fFzQ6KtsPrSrBOH1ta99zff5pPXg+3vBBRf4GCae21W4D/osY1o4ToP5lD7LfBv6bIhfbKSejFVh7uR56tSp+y2zjAF4hTB/0o/p2yNLmrkpCK+rr77a/dEf/dHIS0b/f7kaNrkJK8VBVzGhtee/vu0G7r+1Gv+kfCZNpr7v8ia6cn39rnDcStf7votd19HzXZelxpelqzX4+RTEE5YIBFhwh+BnUtHjksgihwdxFiyKw24z7oi8L4vCRMGkwAKYiYKfeWaRg+WBQR63CRbELIxYIFE62bVwJBcWzEzAJJgg8B6eSctv/uZv+gU0ZwXFaPEaeb+h79HvEPW4kmHhCK6wCLKw0B753qT/p+/Qh4K4YjGCBYP4QMQYi2hew4N+NVbf+v73v+++9a1v1S28uPYll1ziF4LEjCH0kpZ//dd/dbfccosXFyzU6i3BUoxrEanOYyyMMTy4bzZ8eGY8IpMci1rcVvk/G0fBRTrtfdI/GGtqxx/aDJdmxFGwbrHQRciP1Uf4ft9+++3eQke9DlboE3zO+9//fp/wgD6TpiD0/vIv/9KzSfp+Pp+snSRcwDrSrhKE1zXXXONuvvnmxNXAqoOb8Nq1a9uaaCn0Wfor4xtzJxsHjGlYbumzuM+ywZTkOz0aEPolcyePuXPneuFMjCp9mUcY25g7R+uzaeamkICIOen3fu/3RqtW1L+T8Gpy85E+vbx7h9v7sxvd4Lrbm/xpurwnYIcg53otJsdEVmHOiT5lfPfxp7v8oXYWmaXFV2k/ASYE0n6HB77q7NSxwxwsXzyzcxfiwRBs4cHuMz+zSGFBQ2HQZ/BnImBnjsGbvzFxsLuMAOOB7zmLERZA/I1rjDZhtJ9S/TWAEaKVCZeJF5ZJCwtAxAKM4DeeCgsVdl6xcNHXgosZzHjQz8KDhQJ9K/QxfoYv/YT+xSP0O/oPC1meeeBqw2P27Nn+GZahf9bDk4UTh5NTVxb6ByvsMBNbgVimP9Pnk5YQM8I9wqnewveIz2RBhsvReClYDVjI0kfoG2GM4jtF/6F/0D70l8CLtmKBG/pHGIfCWMT3if4Rxh42NmCHtZ2+QrvRp+opfL85QoG6ISQOVrg2n0Ufoa+MZpU42DX4OyLvzjvv9M/1vL72NXx+EOq42rar0E60HYevs1GVtCCQ6evhkfT9zXp9mE/pt7RT6LP0ZfoIfZV+y/2HOZTn0H8R+qHPMl7xCJZZrOpsUNJnGc8QX9x/GA8Pdk9p5iY2qOi3iHQOlh9vRcKryS1a2vmKK7222Q3cd4sbevyuJn+aLu8JYOmyw6ALc5e43tMvdoVjF7v8IZZdxxJsqHQ+AQZqJgncEcNOM/+vfTCB8GBBw8RAQTwxWbAQZkHDRIHAChaszr9z1bDVBNgtpl/Rz9gh5oEwC/2rts/Rt8Ij9DsWk7iGhb7W6vrr81pDgDGJPsKYhADjmb7C7ykscFnchv7BM0KLsQkhjthgLGJs4m/1iqzW3J0+ZTwSYGyjX4a+GjY3GdMY33gO/Zf+SL+kf9JneSAy6bc88zfNo9n1Egmv7FiOeiUJr1GxNO2X+akzLHPhbFeYt8wE14mu65gFLn/YkS5X6GVl3rTP1YWzI8AuHLtxYVe5doeOn2stEUwYwaJQa/HCBYIdM3acOz0xRnbkdKWkBEJfYtEcLKwsSMLva/terTUj9DsEWFhMh36YtA56fecTYEyijwRLJM/0F/oJhUXuSIsXu/aMP4xF9BP6B/+nH2lM6vw2j72G9E0EVphHw2ZS7Rwa+m+IP6TP0k/Dg34bRJf6bHY9QsIrO5ajXqm042VX2v6CxXf9uxv61d2jvka/zIAAqeHtjK7CfBNcC0+xRBpnucIxCzO4sC4hAiIgAiIgAiIgAiIgAo0TkPBqnOEBr1B89XlXfGmDG3zop664/oEDvlZ/TE8gf4yliJ+92HUvXOG65yx1eYvvyvUflv6CeqcIiIAIiIAIiIAIiIAIZEhAwitDmKNdqrj1WTe0+Qk39OjPXPHpdaO9RL/LgED3ktWue+UHXbfFc3UdNS+DK+oSIiACIiACIiACIiACIpAdAQmv7FiOeiUJr1GxZP7L3tWXuP4Pfs7Sx08yl8P3niWR+QfqgiIgAiIgAiIgAiIgAiKQgICEVwJYaV5a3LbRDW15yg09cocrbvh5mkvoPXUQ6Ft7hTvkN75cxyv1EhEQAREQAREQAREQARFoPQEJryYzL1pijeLLT9sZXv/lik/d3+RPm7iXl/CauG2vOxcBERABERABERCBGAhIeDW5lUo7t7ri9s1u8P5bdY5XM1gX7PBby2bYe9an3CEf/nwzPkHXFAEREAEREAEREAEREIGGCUh4NYzwwBco797hSm+86gbuuskNPvLTA7+4aX/l/KpK067ezgvn+g7xhyX3vu9i13/eb7WzKvpsERABERABERABERABERiTgITXmGiy+UNl79uu/M6bbs8d33GDP/+PbC5az1U4LLjbzrbqn2QHCE8z3VV25bd3OWf1qex9p54rRPGa3GFTXH76bNe74kOub/XHo6izKikCIiACIiACIiACIjDxCEh4NbnNK8UhVxkacHtu/192iPItJoBaYHny7nd9LnfoZJefcrQJkzlV4bXzFVfZtcNV3trpKqUh50pF58ol02Qley771/jnJjPJ8vL5qTNc19wlrmfZua735A9keWldSwREQAREQAREQAREQAQyIyDhlRnKMS5kliaEzZ7bTHjdd7MJnn0iZ4yXZ/Hr/NFzXNcx813BDhLumj7PBNgUlzMLWGVgj6uY9a389huO2LPyGybE3ny9agkbtL/tMWvYnt1VEZZFRVpwja5jF7nuZee47uNOc93zT23BJ+ojREAEREAEREAEREAERCA5AQmv5MxSvWPPHde5gQduNeHzlqsMDqS6xphv6upyuYK5FXKGVf/hZgE60UTXEleYu8x1TZvj/+byef/2CgJr725Xen2LPV5y5V2vuspus4CZ+6Gv2+5d3kLnsNSZaMRF0VvGeDarWKViwhHxOFrMmP2e61f/PmZts/kDrpR2T4XjVjjO8CrMOt51TZ2dzbV1FREQAREQAREQAREQARHImICEV8ZAx7rc3gdvdYOP/l9X2vaCWZl2jPWyVL8njit3xFTXdexiL7YKR883wTXbRNhhLtfdZwKF5Bo8rATXwqG9XmBVioMOkeV/by6RWMWwiJEUxNnfKkP2GNhtgsriwoZMjNkzcWujuSRiLSu/uqVqNat+WvP+RWz29rvupWe7/vd/xuWPnFG91+Z9oq4sAiIgAiIgAiIgAiIgAqkJSHilRpfsjYNP3OUGn/p/rvjcY668/cVkb659NZarroLLHWKiyqxb+f5DTXQdZdaema5rxkLXNfN4S6Yx1eUnTa59V30/I8qwdO19yycE4WcvvhBbJtSwfFUG7RmXRSxgIwqWs+ILT9r9bTFL2mtVS9mI12T2354+l588zfWctNb1rb3S7vnIzC6tC4mACIiACIiACIiACIhA1gQkvLImOsb1hjb90g0994g/y6v04tNjvKqOX5M4w1Kod808zoTWAovhMuvW9LlVC1fvJOdwOcx3eTe8Oq723peQ/MNEVYVkG7gT7vu/f97/fxKEvDdJSPnN19zgcw+74tMP2WOdd1987wdk85vcJHOpnLnAdS852/Wt+pgJ0SOyubCuIgIiIAIiIAIiIAIiIAJNICDh1QSoo12y9PqLrvjSry2z4a1m9Xq06qo3VoZDE045E1iu1zIT9vR7l7rcIZNdzqxYeSxdk47wrnU+Y6Glisfak580xcSWCa42FlwQiR0b2viYG1p/nyubW2V557bsa2T3mTcLX/eyNa77+FWue94pnlP2H6QrioAIiIAIiIAIiIAIiEA2BCS8suF40Kvgolfa8bLbe+f1bujJe71L32hxUpZ+0GKVsGpZ3NbhR5oboQmrw6e5LuK2jlnk8kdM966EuZ5el+sycdaBpfjKs25ww/2u+Ot13vpVtZZlVFHPp8fi2U5wfede6QrzlpkYNWtXm0VnRneny4iACIiACIiACIiACIxTAhJerWpYi5/iAOOh9fe64svP+mQW+731LFGEMxGVI3YLV0JzGSRxhLNHzmKZvNXLxAUWL/8zVjDek6tmKmzVLdT7OT45h6Wr966VGx60hBubs7N82aHQXUfPc4WFp7jelR/2gjRX6DUW+5KH1FtJvU4EREAEREAEREAEREAEWkhAwquFsElWUdrxkquYAHtXQWx1mwXLRAVZCPdnI3zXi+L7T3HLUxbz9ZArPfuoK27ZUE3KYVkS98eLJb0lrF3matm95ExXOOF9rsfO7sofflTSq+j1IiACIiACIiACIiACItByAhJerURO0ooByxBItsDaQqZCs17leCa+CxfCceA6V35nlyu/9bql0H/elbY+44Ys6UZp60bnyIxoFsDExdwriWvrO/tTrvvEM6sul6TLVxEBERABERABERABERCBDicg4dXhDTQeqseZYCVcD5+6z6ebr7z5uj8rrLLnLUtXXzy4CMON0B756XNcYfZi13vGJa57/injAY3uQQREQAREQAREQAREYIIQkPCaIA3dztuslMzCZ4czl3fbwcwmwIovP22uh+tNhD3hKrvN7dLOBTtg4bBki3/rWfUR13PyeT6FPglHVERABERABERABERABEQgFgISXrG01DipZ2Xvbld8bYsrvbLRlSzJSHnHVld+Y5urmFti5Z23qgc0j3DFzE8+yqeP7zXh1b30HEs8coglIekZJ0R0GyIgAiIgAiIgAiIgAhOBgITXRGjlTrpH4txK5l5o4qpSHLT4r41uyJJwlMwKVtr6nKvs3O4FWG2VyWBYOOls17NghSvMWlzNYKgshrWI9LMIiIAIiIAIiIAIiECHE5Dw6vAGGu/VK7/1msV/vVK1eu161ZJxvGHC6819SUgsA6KJtK45S/xByV1TZviEGuOdie5PBERABERABERABERg/BGQ8Bp/bRrvHWENG7RYsD1vujIizJJvVCw2rDDtWFeYsSje+1LNRUAEREAEREAEREAEJjwBCa8J3wU6CUDF3BAtzby5IFYG96XdN4sX55rl7fBoFREQAREQAREQAREQARGIlYCEV6wtp3qLgAiIgAiIgAiIgAiIgAhEQ0DCK5qmUkVFQAREQAREQAREQAREQARiJSDhFWvLqd4iIAIiIAIiIAIiIAIiIALREJDwiqapVFEREAEREAEREAEREAEREIFYCUh4xdpyqrcIiIAIiIAIiIAIiIAIiEA0BCS8omkqVVQEREAEREAEREAEREAERCBWAhJesbac6i0CIiACIiACIiACIiACIhANAQmvaJpKFRUBERABERABERABERABEYiVgIRXrC2neouACIiACIiACIiACIiACERDQMIrmqZSRUVABERABERABERABERABGIlIOEVa8up3iIgAiIgAiIgAiIgAiIgAtEQkPCKpqlUUREQAREQAREQAREQAREQgVgJSHjF2nKqtwiIgAiIgAiIgAiIgAiIQDQEJLyiaSpVVAREQAREQAREQAREQAREIFYCEl6xtpzqLQIiIAIiIAIiIAIiIAIiEA0BCa9omkoVFQEREAEREAEREAEREAERiJWAhFesLad6i4AIiIAIiIAIiIAIiIAIRENAwiuaplJFRUAEREAEREAEREAEREAEYiUg4RVry6neIiACIiACIiACIiACIiAC0RCQ8IqmqVRRERABERABERABERABERCBWAlIeMXacqq3CIiACIiACIiACIiACIhANAQkvKJpKlVUBERABERABERABERABEQgVgISXrG2nOotAiIgAiIgAiIgAiIgAiIQDQEJr2iaShUVAREQAREQAREQAREQARGIlYCEV6wtp3qLgAiIgAiIgAiIgAiIgAhEQ0DCK5qmUkVFQAREQAREQAREQAREQARiJSDhFWvLqd4iIAIiIAIiIAIiIAIiIALREJDwiqapVFEREAEREAEREAEREAEREIFYCUh4xdpyqrcIiIAIiIAIiIAIiIAIiEA0BCS8omkqVVQEREAEREAEREAEREAERCBWAhJesbac6i0CIiACIiACIiACIiACIhANAQmvaJpKFRUBERABERABERABERABEYiVgIRXrC2neouACIiACIiACIiACIiACERDQMIrmqZSRUVABERABERABERABERABGIlIOEVa8up3iIgAiIgAiIgAiIgAiIgAtEQkPCKpqlUUREQAREQAREQAREQAREQgVgJSHjF2nKqtwiIgAiIgAiIgAiIgAiIQDQEJLyiaSpVVAREQAREQAREQAREQAREIFYCEl6xtpzqLQIiIAIiIAIiIAIiIAIiEA0BCa9omkoVFQEREAEREAEREAEREAERiJWAhFesLad6i4AIiIAIiIAIiIAIiIAIRENAwiuaplJFRUAEREAEREAEREAEREAEYiUg4RVry6neIiACIiACIiACIiACIiAC0RCQ8IqmqVRRERABERABERABERABERCBWAlIeMXacqq3CIiACIiACIiACIiACIhANAQkvKJpKlVUBERABERABERABERABEQgVgISXrG2nOotAiIgAiIgAiIgAiIgAiIQDQEJr2iaShUVAREQAREQAREQAREQARGIlYCEV6wtp3qLgAiIgAiIgAiIgAiIgAhEQ0DCK5qmUkVFQAREQAREQAREQAREQARiJSDhFWvLqd4iIAIiIAIiIAIiIAIiIALREJDwiqapVFEREAEREAEREAEREAEREIFYCUh4xdpyqrcIiIAIiIAIiIAIiIAIiEA0BCS8omkqVVQEREAEREAEREAEREAERCBWAhJesbac6i0CIiACIiACIiACIiACIhANAQmvaJpKFRUBERABERABERABERABEYiVgIRXrC2neouACIiACIiACIiACIiACERDQMIrmqZSRUVABERABERABERABERABGIlIOEVa8up3iIgAiIgAiIgAiIgAiIgAtEQkPCKpqlUUREQAREQAREQAREQAREQgVgJSHjF2nKqtwiIgAiIgAiIgAiIgAiIQDQEJLyiaSpVVAREQAREQAREQAREQAREIFYCEl6xtpzqLQIiIAIiIAIiIAIiIAIiEA0BCa9omkoVFQEREAEREAEREAEREAERiJWAhFesLad6i4AIiIAIiIAIiIAIiIAIRENAwiuaplJFRUAEREAEREAEREAEREAEYiUg4RVry6neIiACIiACIiACIiACIiAC0RCQ8IqmqVRRERABERABERABERABERCBWAlIeMXacqq3CIiACIiACIiACIiACIhANAQkvKJpKlVUBERABERABERABERABEQgVgISXrG2nOotAiIgAiIgAiIgAiIgAiIQDQEJr2iaShUVAREQAREQAREQAREQARGIlYCEV6wtp3qLgAiIgAiIgAiIgAiIgAhEQ0DCK5qmUkVFQAREQAREQAREQAREQARiJSDhFWvLqd4iIAIiIAIiIAIiIAIiIALREJDwiqapVFEREAEREAEREAEREAEREIFYCUh4xdpyqrcIiIAIiIAIiIAIiIAIiEA0BCS8omkqVVQEREAEREAEREAEREAERCBWAhJesbac6i0CIiACIiACIiACIiACIhANAQmvaJpKFRUBERABERABERABERABEYiVgIRXrC2neouACIiACIiACIiACIiACERDQMIrmqZSRUVABERABERABERABERABGIlIOEVa8up3iIgAiIgAiIgAiIgAiIgAtEQkPCKpqlUUREQAREQAREQAREQAREQgVgJSHjF2nKqtwiIgAiIgAiIgAiIgAiIQDQEJLyiaSpVVAREQAREQAREQAREQAREIFYCEl6xtpzqLQIiIAIiIAIiIAIiIAIiEA0BCa9omkoVFQEREAEREAEREAEREAERiJWAhFesLad6i4AIiIAIiIAIiIAIiIAIRENAwiuaplJFRUAEREAEREAEREAEREAEYiUg4RVry6neIiACIiACIiACIiACIiAC0RCQ8IqmqVRRERABERABERABERABERCBWAn8fwAAAP//FZKQHQAAQABJREFU7N0HmGxF0Tfwo2LOOevFjAlzFlExY8CsiKD4igHMIsr7qa+KOWAGUcGcc1ZUFBUj5pyuAcWcI8p8/eul5vaeOzM7G2bv7t6q55md2ZlzTnf/T3d1/auq+5xqUKRLSQQSgUQgEUgEEoFEIBFIBBKBRCARmBkCp0riNTNs88KJQCKQCCQCiUAikAgkAolAIpAIVASSeGVHSAQSgUQgEUgEEoFEIBFIBBKBRGDGCCTxmjHAeflEIBFIBBKBRCARSAQSgUQgEUgEknhlH0gEEoFEIBFIBBKBRCARSAQSgURgxggk8ZoxwHn5RCARSAQSgUQgEUgEEoFEIBFIBJJ4ZR9IBBKBRCARSAQSgUQgEUgEEoFEYMYIJPGaMcB5+UQgEUgEEoFEIBFIBBKBRCARSASSeGUfSAQSgUQgEUgEEoFEIBFIBBKBRGDGCCTxmjHAeflEIBFIBBKBRCARSAQSgUQgEUgEknhlH0gEEoFEIBFIBBKBRCARSAQSgURgxggk8ZoxwHn5RCARSAQSgUQgEUgEEoFEIBFIBJJ4ZR9IBBKBRCARSAQSgUQgEUgEEoFEYMYIJPGaMcB5+UQgEUgEEoFEIBFIBBKBRCARSASSeGUfSAQSgUQgEUgEEoFEIBFIBBKBRGDGCCTxmjHAeflEIBFIBBKBRCARSAQSgUQgEUgEknhlH0gEEoFEIBFIBBKBRCARSAQSgURgxggk8ZoxwHn5RCARSAQSgUQgEUgEEoFEIBFIBJJ4ZR9IBBKBRCARSAQSgUQgEUgEEoFEYMYIJPGaMcB5+UQgEUgEEoFEIBFIBBKBRCARSASSeGUfSAQSgUQgEUgEEoFEYA0j8N///rfz+sc//lFf//rXv7rBYNCd7nSn60572tN2pznNaboznOEM3ZnOdKY13IrVrRq8/v3vf3d//OMfu1//+tfdH/7wh/oZdieddFLFD3YwO/e5z91d8IIX7M51rnN15zjHOVa3olnadoVAEq/t6nZnYxOBRCARSAQSgURgvSGALPzzn//sTjzxxO5Xv/pVJRD/+c9/unOe85zdmc985kq6znve81bysN7aNqv6wgzp+va3v9199rOf7b7xjW/Uz777y1/+UotFui5wgQt0V73qVbsb3/jG3ZWudKVup512mlWV8rqJQLdmiNcJJ5zQ/fjHP+5+9KMfdT4vVnh7dthhh6qAznrWs1blc/7zn78qJf+f8YxnrB6hxV43j08EEoFEIBFIBBKBRGA1Efj73//e/fKXv+x+8YtfDMnWb37zm+7Pf/5zJQ1+F/Fi25z+9Kev9o+oDbtHxAYJ23HHHev/25v9c/LJJ1eS+rOf/az71Kc+1X3lK1+phIttibTCDikjIoZnO9vZuhve8Ibdnnvu2e28887dpS51qdW81VnWdobAmiFexx13XPfhD3+4+9CHPtT5vFgRLqZczne+83UXutCFumtc4xrVg3GJS1yiu+hFL9qd5zznqR6hU53qVIu9dB6fCCQCiUAikAgkAonAzBFApqTIIQhf+MIXui996UvdF7/4xe773/9+98Mf/nBi+QiECNglL3nJGrW52c1uVu0ghIx9dOpTn3ri+RvlR5HA3/72txW/l7zkJRXD3//+9xXXUW1kF9785jfvHvnIR3ZXuMIVqg056rj8LhFYCQQ2DPGiUES8KBdhd14fJEzOrrDxrrvuWpURT5DoWEoikAgkAolAIpAIJAJrBYG//e1v3e9+97vqfP7yl7/cfe973+t+/vOf1/VJ0uP+9Kc/Tayq6I3o19nPfva6VonT+bKXvWx37WtfuxIKkRy/b3T561//2n3605/uPvaxj3Xve9/7aiaVNE2kti+RKbX77rt3Bx10UI0SsiFTEoFZIbBhiNcogBAsCogH4y53uUt33etet7vMZS5TF1IabCmJQCKQCCQCiUAikAhsSwSkxoly/fSnP60pcW9+85u7Y489tka9bKaxHLnIRS7SiXxZv3SjG92oZv9s9A04RLte9apXde9973u7r33ta51oF+Gg9xIZPMtZzlKd9Yio5Si3uMUtuv3337867JeDd56bCCyEwIYmXsLHPEBC7zw9ol577LFHd/GLX7zuYLMQOPl7IpAIJAKJQCKQCCQCs0TAmiNRmne+8511ucW3vvWtzvokURqEbDkSm0dc/epX73bbbbfumte8Zk0/XM411/q51sU9+clP7t7xjnfUnQztbEhggXDB4XrXu16NCtoJ0novBPVqV7ta7gq51m/uBqjfuiBeolZ2nTFo+mFyoWPeIluDGjxC8bwbcny9iMgXAnad61ynu8c97lHD7le+8pU3wO3LJiQCiUAikAgkAonAekbgBz/4Qd1x761vfWtd627HPaSLcCCzYRAGSyVEZyJaI3rT2j+2SxftYQuxiVrZtGlTJV23uc1tutvf/vbDTTnaYzbCZ3bf5s2bu8c85jHd29/+9nlNsvSE490mGlILrf1nU9qwBMaw9Z6SCMwSgXVBvK5ylat0t7vd7WrurZ16WuENomTkP9vx5/jjj6/50QYSDxKhuLwMOFuG3vGOd6wDr71Ofk4EEoFEIBFIBBKBRGC1EXjb297WHX744XXzDJEudg1CRSyLEJWxVl1ExtKJS1/60nUZhU3FWvvHlunHHHPM8JlVbTtcQ4od+2ffffetm45ZC7/RhO1nbdz//d//1VTDtn3sP7sXIl3e4Ye8ImtBcL2nJAKzRGBdEC8D5H73u193xStesbvYxS42Dw8KimeHh4i3x3Ma7ABkN6BvfvOb8xQYpWPDjb333rt72MMeVj0dBt56EiFz7eWV8aKUF6MoIjLovLgGxTNLWW6dF1s3UVCTkYkr2uh9MTgttkz9UDuV3WK72Oss53h18CLauti+sdiytwXOi61jHr92EdiW/YduiPHC6OL1Xm9zwdq9s1mzaRHgHLaZxmte85ru+c9/fmdzjVjTZc6SqWODDLaPLB3PmLJjoe9sAKHPmnfYP5zP7B+7IFrX5NlVHhqMiLQSSy7YVYjIcqUdR+YddVb3aSXO904nON/ctVSR8fTd7363e8pTntK9//3vn3cZ6/yt5fKSAbVcWW3bpl9fuksd4N7aOv3jVuL/1SxrJeq7lq+xLogXRfHABz6wKgnbw/fFYPUymVJilM2LX/zi7k1velMN10fIHcHQOe973/t2Bx988DBs37/eWv6fcqWsea/s4Oh9MUouFLTz4jVrg2O5dV7s/aDAkXAKKdrofZYEM7yO+mDcF2WupkhNUQ9i4lL+YvrGYuu6LXBebB3z+LWLwLbsP+YE4yVekcK1dtHKmm1EBGymYfdCKXGve93rqg3DliGcAfrlTW5yk2qzWKcu48d8HU41BnfYPuYec56XTSXi0TyejdqKZ3uJnv3P//xPd4c73KH9aUmfYwwhjOZYa+qRp2nFnBXXoBO0eTmbf6wm8Vpt26aPqbWB6mCeN9+zPRaDff96k/5fzbIm1WMj/LZuiNeDHvSgSrwWerCdAUwBvPrVr+6E74WcPQ+jlbve9a7dgx/84Bo9EwWTnri55ARj9KH0dF6dWGj/cpe7XHv6yM+UnrI98ND15Fm3QpmItl3+8pcfPlneMzlsecrLFaJc3qwLX/jC9Tid3YOlPfjPtXmvKFYKmOfLNrGu2xeGhePjRRkhXfGiuKONkTsu/1nZnvlBeU4rMIOdukmTQHwRn3i5H+qszJg05FLDxNo95XrJt16sWNMXbfSuTIpImeqkPBOYe6ld8VBJ7aSoFkM6TQqueeKJJ9Z2Rvu8w9W9goVr8kbqW9oYZUrrUI9JZMgk5Hr6I4+lPhWiHXbllDLrmgi4SdXkDXdtDuKlDoGxeylSbMLVZteZVvRrbebQUIZ+Dd9ROJss2zKVtxScp61bHrf2Eej3H4vejVN9NV4xTpfaf5wvzdy22/R938MvUhDzBn3hGPqUnjK+nC99izGqzy5FD639O5E1XIsIyM7hILaD4ec+97l5VWQDxG6EnM90vvljGrE5h2sjc5/5zGfqWDN/EWvmzYWeWbXXXnvNmwfNY3Q828Rzw1oxLthD5hNj5ic/+Uk9xjhiX7A5znWuc9VnqLJNzOnt/BqOFtenA9hlxm1E+Zxv/tTG0AXmE/bJpPmrX2fzsDqJdokAtmJ8s8G8fCbsIG3aVNbA+d4c2RdzrfnP3N8+xJquocfYNuZV56qvl/l+WtuGTjKXu7ayCOxcT53gTleZe9kF5vyw5dQBAXe8drhP5l2bhSh/MSQ2SHBrU5n7la2dsEWuw75g4yhTWwVF3H91nqWTu39v1uP/G454xU2IhzHz+kg5bEWY+e53v3sN2+s4L33pS7uPfvSjVQFQKCQ6FMKHqBGde5w4TweV4uiBfRRfK3KyrVW7293uVhWT3zxfws47BnMIRbPLLrvUHXcMNgpEWyhlijQM8dilUSSQ0RBCcVFwBmWkXEo9sHjXYDKoDSBicBgklDBFqbzrX//61QBRX78vNICUx7hy3c2FLHhK/Ne//vWqRCjvvrct6mkSMVBh4mHXdlrSjmnLjHYipfGQSe1UJqOqFUqCMoeZMkxmdjTSbngrc9K9dS3lUUraqRztjPaFwmzLjP4DVwadXZSkdShzEvmiRN2ro48+unvDG95QCU5cF4njody1TMLawYjVNz75yU/WiVvfCOJlEqAQKV8461PaDXfXWai90WaToTZT9tr8ne98Z3hv+zhT8BQvYqhM5elPgbMypyk32pvv6xsBY6bff4xVeglx7xOkUf3HOGVIMGTGjVP6jIHFiWVXOHqolfvc5z7dbW9726qn6Iv3vOc9tQ7GbYyXSD/yztBJSQRmjYB5kw1wyCGHVGeAMRGir5uP//d//3e4+94kh12c176b75/2tKd173rXu6ptEn09jnnc4x5Xl3DQ2fHcKjrdWPrABz5Qx1Ic692cwx4yp5kTjilryYylds41x9rA7KY3vWmd08Po11bjFJljj0U6pM+cIWGTRHnOu9CFLjR83eAGN6jzCV1gXiMxl4yqM3sMnohCK0GOzMHhgDRXq7c5ml0ID0J/hZ1hrkWOOdXVGQnzXTvnuj+ua75Tdw6fsG3oFL+7r6OE3oI57GNedU+0FZ5wR8rorHjUgPIRMXWAL1EuQgkvaZXXuta1qmN+ob6jna7heoix+0NPe0cKYdnvP+rW2nHme8+Mc4/YXOPaOqr929t3G5Z4MRI//vGP1+1EhfJb8SwLm3XonDwDr3/962tYnlGp4xFeEAPTWrB73ete1Vg1qMaJzq+DMoI9P0KOcSsUUbwY4sRWp5RfDDTfUQKOk8vN2GBEGPAGOhJGofCujCJe6sB7ZLB4URAGqvMoN78xhIJcUlyhLJQbD5ymMGw9u/POO9dFvOo1TlyTQvCgws9//vOVNPBkKY9h5X2UwJLnzSBVLgVBSXkx3McJ5aBMeFhILJcd7iYZ7VSmSaEVCgBm4elzzyknREhb3Y9Q5u158RleyqQU9SmkGjnStmhnf+KI/qNMilyZyKwy3VtlIr19CeLFW/fKV75yXuTUde585ztXjNw3fUx93GPtV8/wavpd/9WH1AERErm9+c1vXhUypa6O4yRw1v/c26985Su1zZwL0eY+zjDWJmQ2yqSI3Vttdl/VJ2XjI6Af0qWIDv1lnIbzxzg1iYuCt9LvP8aMfiuqb5waP/RUXxhXDKJPfOIT3Vve8pY6HtpjePV3Lc4KzgNjl15ktOjHMV6SeLWI5edZI2CuNm8iLs973vPqfBaGLb28qURf2Cf77bdf1Z30ahCNaeumf3/wgx+s87JosDmsFc4IaYyiFTGuIvXx3e9+dx1L7fFBvNTPmDaWzEHtnDuOeDnW/GnONv7oAHOJFz0QNkmURxeYK8xTXuZr85dnkZlPOA/DHhtVZ0QCxv3rmhdd27sX0Xb1vvWtb11TOtkkBF7qd9xxx1V7iv6Ao+ieuc/v7Zzr/oQOU+ewbTiXkWhEiD4bJfQWzNmq2kNcw5yPDCJeSDqHLCzZP8rXZ+gw7Y1ztAcBY2PQe8oeZ2/Uk8of7RTBVD4nP5uUjnSf6PEoJ473zr5o7ThRSWsR3R/3CqYpoxHYsMSLZ5VyeOMb31gjIm3zeVFvectbVg+KDsnTIDL2kY98ZB4Jcs4BBxzQ3fve966KMAZke634bCAiewaGfG0GRysmfw9xNggZFITnQrjfYA5htFIujFSDgTeJ0dIa9jr8KOJloCjXANYWA4mSaCUUj+8MVoojvCVxHAUrAoWcIqkUgDJHCQVAkR555JGVBFD2YVBRRF7OpZDCqxLKKowe12VYGbCiiwwtHi/ntBLKVLvcX/hRFJQDQhmiTGTLe5TpvRVK3eJiE4++QCGa3FovTZxrYqEMYWoRtPK1MyTKC0XuPG3r4yqtUpk8a8oclToSxMs9FDk1OYdExIsB6l7DHQ4MT3UIUf6o9iJDNpYRNdtUJnaeOee157qGupu0tJkSlrb71a9+dZ6hGm12j3yONreTADyNGe2FM0NC+gxvWL/MqHu+r38E9AF9klHGaGFU6Kst0Yn+E+M0xku/3zIieFI5o/Qhk3vfCGWAGAeyFkSJ6cxWbJ3N4YGYMf5aHRXHJfEKJPJ9NRBgzBof9PzLXvayeQ42cxNdSW/e6U53qrp6KXUyD5ur6HGvvqNM2rp5ryVem4ujjQOVU5jt1Aon2j777FPHj3HGwWqeaKVPvMwPjmFjyc5gk/VTGMMmiTnBvNnXBzAxf7EPbIfPbjOf0h/qLDojaiRtM6Sdi+I7ZYTuie/oGFE8RPQBD3hAnZf9xpaityLCpL1hh8V1tC/mffVmh/TnfTgjP2xA93WUbQNPmNNj2kPYXRzC6nXPe96zO+KII6ptiQS19k49eMQf+Mh04WyFmfne3NtKzNuc1/Qj+9XLPWvtuGhn3CPXaJ34cU2RPf02Xspzbsp8BLZL4qUz6sy8AToK451Xn1HdVwoiDAzVSd4KkArFegYHBSOn2iBt5eEPf3hVWkhXRFdGES9GBW8BJSMFMdbUUCIh44iXsl/72tdWhS4KwiCJwRPnum6E0l0TuXNcK44xSA0eJBAR4nEaJUFaDVoRQ+WF4jHoeMeQSMrdb8pCBhk/0iHjWKQCNrZ5VSZDqU90nQ9Xhlx4fhATSiKuo44UIUWtfOdQVN5bo44yEGnjodEX3F+EE/4h8DFZmSCla0hlYrghR6H4KCJt5PlRpolAedrZn+gcg2zZTUmZ2qjMViYRL+cjqLAKb5T7F3VwHW3U1r6nT3vVU+QJqeYE8K4vtWTTNdTb9U1kImraHOQ2MIw260vqpUx1d2+jbPfB9U0AIqhSJrz3c/+VmbJxENB/OJMYbsiQSJd+Ycy0/cdYizHjHEZNf5waw/qP6Psee+xRnTMcD/pViLE2iXgxGPW5iP4ro9UXrpPEK9DM99VAgD5FcGQ2GCdtmiH7gN1xq1vdqqYZmjuXIvq4sRGv0MtxLYTD+DMOjTOyeQLxUg/zJKeKupu/W7vE+X3ixX5hU1lvj3hpt/NaCZsk5iK6wDHeY56N+cv16QIORA5054jOcAyKCMVzu7TdNczFrYRNYv6KNsOAQ4cOsHt22B1sKWQoIkzsjGhvXIedBEdCf8k8gU8rfheB4gDiQELCnNfKJOKlbpuKo1Qb2SLa1tdf7bXic9gbyoQXAkgPtgJfONPTHABsOHandkYZMFZfRBBuQb7CPm2v517S19qKaPoceLbHbe+fNyzxkvKHTDEeddhWeFCttUIoTMoGLk+MkL/oUgwu5yBpPK06kmjVOKFQXvSiF1UDnacklIvOr8M++tGP7qw1ENEK434U8aJgdFQDm7HCeNWZDd4Y4H7ToRnuPEAUomMpihe84AW1bMqWON9gYSAbdM6LwWfQURReMGA4U85hHDHyYRRRKG1RP+JcSs2zR3iZtJmSJQaqNotuUBhImzIdb5AjTzxxvCwIWHiRnKM8isLEwwul/iGia0jAK17xiu6Ykl/eEiCYKFc58NBeOCtTGeoWr1ZxOd49pnRF+Ex6QUScy2hEpJFya9fc1+gfCJDjXQOhcp/U13naCFNl8m46J3BlOCqTFwoBU16UOYl4Rd9wP11T+5BHdVAX4v5pr/6gDvBu76n+557w7Im66Q+Rhx84a7Mxo82iuC3O+mDbl/RV/UKbGQ/6EtKm7cr1IjyrvLfGngnTvU7ZmAgYJwwzKdwiXohOjJlIQ41xaszo18YVJwI9ypkSuiQQio0GeG+NVf09xsxCxEuZ+ig94xz9N75zffqA3uEQWcjBFvXJ90RgOQhwTHAeSgXkvKRjQ8wldhw0N3DChm6P32f5vnkC8aKzEQjzmPHpf3OPedf8axwZp8Ynp144tWUTeUkzJMagMW8cOp4u8DKvmT/pAnqATWEOi/nTucqybtkSEPiY/4x/x9I5nKNsE9dgK5iHWjFfhQ0UhMA86jOnILIbdXj2s59dsz1cC+ki9Ij7wcZQ55h//WauZdewU5TrHHUhYdtwZrM9+ymHo4iXetFTYQPBLWy5cFjRq+ZeuhNWPkeZteDyh24TMbPeWhtbga0USimvImqhd5UV9pR7zimu3coP4oWksRWUC6NWONCRvWmWq7TnbS+fNyzx4vnQmRiOOkcrPKcUG6XGCNVZKQUP3JNaZcCEkUx5SIHjCdFxx4mBZot6nh0TfBgaOiwvzf3vf/9qeBpEOjUZRbx0akqMYnKcaBEPichMPzpiIKgfI5uBYwtZHhplR/kURURZkEfXC28Lo9iARTbVRVjdBBDnhicIVox0Cs93hJFNOR566KHVwNLmGPCUkTZTwKKF6mDAwpQRZpBSku4RDw5FRbRZXRnmIoTaTfnEQOcdpMBFYQz6llCYAJSrjYgypY5QmAxMcoxBfeGYQtjcb/Ug6uY8Spwy10YKhyAwvGg8dSJ6rgOb6BvqZ02afoHAU67ur9+RSuRFebzxygwSgrwoUwprPE8OPmQS8Yq+oX7qTanBWNm8YkS7pJUo26TO29jeU/Vz/90X58LaRNSKNjMGtNn9aXFGxhmn2swRoa+6JpxNPBS3cvUn+IUDQJsRaeTWjqLuc8rGROCwww6rOiEmZeMhxgyda9zoPxxHxow+ZFwxnqQMcZoZN60Yy/qpCf0hD3nIvHG6EPHSP5WhLONE/1UPulm9jE390Zg0/umSlERglgjo6zJkkC+OPbozhFH/0Ic+tM5l+mvMufH7LN83TyBexpG5xzjiMDF+OSuMG7aIcWS+jgwXc7B5gDMYIeGUI+Y684G5R+YFx6w5ib1jjjPfsAlgw66xfjOiSI5xrHVP1mSZf9WF/WGeM+d4hy+nMF3SijlTuh/9Yy4jrkk/hFNRXdlC1uqzIekm8xtxP+ivmANbBw67kdOIE19WjjaoCwnbxlKDxz72sVs58UcRL/WCedg/6m7OhVtE/eGiTO1kG7HJ2uipspE898mcD+9W6GgOMkEKdkrg7D67r+ZrdXYN+KhTiPvCjlMuvFqBD/si1pS3v+XnrttwxMvAY/wJ38ufll7Ssngdec8996wGLyYfBiDvCAXB2KR8wjCnBOUTP+pRj6qdyACKgRAdiNeAof2kJz2pGurxvXcDRcdF9qTQtTKKeMXvlBayRblRLpGP7XdKAMnRFkYCI9vg4e1huBB1NHi0kcdj15JWyduiPRQnCWOZcS0yaPC2Ss4xFKq6I17awctDhJkZ+B76qOxWKAXKDZlxbivKhC2yZ8AiRMpXVy+TjHbb0IRxREk7h/Kz+6Sy2nvqfjgGThQS0oUoa6PrEYrJOQgbQuEzEkUoEufzdIlKwpliV0eRG14ghM85oUQpadcWlWMIUuCMONcJxYSIO8e5sQGGehD3zbGUoF0pTVSBqzIow1FrvOrJ5Y97SJHC2Bo8k4HviH5B+SKmlKk+0SpUx8CG50tkkScMSSbONXlqs/Gj/jF23Be4wDfaHOfVk8sf5zKCpS3oT/qSepAwfEX5DjzwwDrZmrRSNg4CJm1OlWc+85ndUUcdVfuCPkGi/9AhJmRjhp4wDowHQqfoLwwuBg9DLcZMjFN9dv/99686AkkiCxEvZdBjvPD6PV3B2GNYEGPdMcZ0qzfqj/knEZgBAuwFhj0dbf5GHELMBf/v//2/OndGRCl+678jKcYd3R2Ovf4x4/6PPu/dPEo2L0C8HGuORFwQEPaNOhrf6sDuMIYQMMeab21pbxxzENMHvudEMX+ZQ9kozmnFHMaoH5WKiQCEUR8O4fZc5bAplvoAZRiIArk36gBfpErd2YLKpkek7ZvXvIj200VsSPqPjWMOJXDRbrYYO9E7fRO25CjiVU8sf+guc6+2siFbe0O9EC2bqXEshw3XkkU2Lqcnm4rTsxVt5ayPTT20lT50/9wjNop7zb7g7G1F22y6xV7QZucpl7Dd6FnphmyrlPkIbDjiZcDpDDoyzztlFJ3BANGhRK/sJmiwR2dCIkSMRDcMuAidMgoY1QbLHe94x3p+GAoBJWOBcasD8na0guzovAzl8LDE75OIlyiGBz1LSaPo1DWUo/N5ag1aBgkC8/SnP70qCwqLqCOFqPNrLzJCoRv8Mdgdh9QYuPKYtV8anyhYCLxE1Qx41zGgCOJiEbsNILSjFURRm9Vdu/ui7gz6UHBIL+Xipc4MKmUin+pK4VEwj3/846sXq72nPOHOQyAoFecz6J0X7XT/nYOUUhCUOUIS4jjtY9CZSBhlQaZtx+t458OKuL4yDzrooBpOh2mfkDve65jiuUe8XEM7Q5TJCEVEkBmYkWmIl35kUxbnU4gUePRJ2Gqv68CXAeth4mHAKsM4YHQ6/zGPeUxts+/1ee1+6lOfWjdLUf8YO8gdbHjNpJ5qc0w4ziXK9qKQTVz6krVxJO6HtrpPvHdwTtk4CHBU8DRLuaYToj9oYfQfEem2/8QYdYy+xngRAaC7jZtwJPndsQweKascDryqZCHiZawyPPQ7HliGW3/MRP+M93rh/JMIzAgB8y1HovlBVkI4KBRn/pPmhpSY39sx0q8OQ5nDgsPZHBlzVP+4Uf+bK40Nr0g3N2cgG4xxzrdWjBnHIgDG0qaSLWQsmXvU0XiP8RPv5gLRELpBPc0v5koRFBk8yBvbpt9GRrw2yYqRiRTRMvVxPLuCE2ZU2t5yiRd7KOwTdqF6mz/VHdmiv8yf5kASdQ99x+EIP/eWLgtxnPayYziJ4R/z9iTixRZ0nnKl6rf2hjLpTRFT9Yv0SH2BLiVIsVRKmUvs3la0NXZrZPf5H+7sPuewi9h8cY/bc9kHonpsT/O8c903grTR+TJ6rO1OmY/AuiBeyIPICQ+pnOBWdDwdgAJiOPIkMXB5kfobZTBSkRiDdd99960KIMgMwoI8SbPqL3Y1yCgaYdcIubZ1YCDw0iIuvBxER3VtIfFIjQkPa5w7ing5z4DknbWFKMKEgEQ941zvlLXOrlwDjpIIzxklydjgVbK2jMJAMiMi07+OQcfYQaQoS9clylU+rwcjnQLwHWUkJC/i1VfQIiGO5xmSDmAQq08rFANyAHcvx1D+6ojY8PDEOZQexfusZz2rrmNrryNaxBgLg07dRmHlHEpCn0BUpTC0gsxETr1rIpW8QEgLBdoKrxeihOyZhCYJQ1RfjElWX43JUX92X9wfUSQyiXhpF+8VpS0Vxb0Yd08pQNdyT90j7Yl7qg84j9fNc2K8w9990Iekj5oIWtEfKX5kzfGThOLWn57znOfU+9WmoS5EyiddN39b2wiIXhtXsflNW1tEO9KAkaZJYswwBjiyRE5boVv0f7oYASMLES8OA4YaA0Df5TAYpQfbcvJzIjBLBJARc625hW5uiRdHL93JebmQIDTsD3YP/W1+mVYQn3iJOpHNE4iXucdca84zFzDM+863ftkxF5iL2GfmfQTE/O56bLJR10AanIN4PeEJT9iKeJmPEC9jmp3TynKJl3vBnlR+1Bux8R3nNVvB/DlORJ8sOeHkbYmX450re4pTGubR9knEi7OSrmNT0aOjxH2HmbneLsT6BewJoqa+HMuigK1oq7navTFPa6N7xNZgj20q5Np9HiXK5IBHvGToRETTsWxG95bNaK1XSg+BQlzWhJQOOnjiE584KF5M+37PexVDeFA63qCQn0ExFOe9Sr7soLDqQQlpDspAHBRiNO/cuFaZaAfFyB2UdLJBiWpt1ebSSQfF0B4U78qgEKRBUQ7D6xQvz6B0nkEZHIPSobc6t6S/1fqpZ5RXOvvAeeo7TsqmFIPi3Rqe49xCNgZFGda2FuU87tT6ffFwDIpHeFA8KIOixOZdp3iFBmXADkr0YlBS1yZeJ34sCnxQSOmgEIJ511KvougGhbAMigIaFA/LoCj5QYksVtxbrByr3YWcDIp3ZVCigfXYMsAHhQzUVxmw9RquU0hIFD/2vZClQVHAg0KMtqpXIaaDsinKoJDmsefHD0WhDAr5GJQo0KAooHmv8sysQVnnNygpgvVwnwuZHRSisFWZhVAOSirBYKH7E+UW5TQo5GpQvIODotCG1/O/PvPyl788Dh3oh0VxD8pks9U9LcpzUAzHgT4P12mkTOxj72lxaAzKOoNBWRw7KEp7MAnnQqAHJZpbj437uNC78ax/64sxLvSt4vQYFI/gNNXPY9YRAvRHcTIN9Ku43/FePKe1rxUjc8EWxTil7/u6hZ4rJGpQomrD69BJyqZrixG2VdnFaTcwvvXvlERgLSBg7iiO1TrXm/NjnHgvxGtQnLJTzY3FyVyvUzJEqu3QXmehz+ax5z73ufPmseL0GLBLisN4Xp1cqzg9BiUFcmBOKc6OZcFo3jf/swW8zD8xn7AVCuEZFBI4KE7AQYmezKuL+WTXXXcdPPnJTx5p2xQiMWBPmrP6GLAvzUvFQbSk+k+qt/rTXSXlr+rBUbYD2644cwfum2ND2JCFaA8K0dmqziVFsNpabK5Jom70nPtaAhRbXecRj3jEpNPn/eZabVvdn/49Yn8Wp/KgZGbVe9T2Y7ZNyWgZlKyXedfNf+YQWBcRLxEQ0SIh5oiClAFVpTSjenlKJ66eTx6KYPpxDG8+70oZrHV9lzQ2XqVWyqCp58lJ5jUQ9RG6JcoVeeJhEcHqe1he+MIXVi9DUVrDND3lOW5UXm2UOyrixTPBK8LLsc8++9QIXRzffxcO510RpZNHzeMQImomVUHESUoO78NCIq2Ht1qecOxAFOeIOgpTi3jwVpVBWPHm7fCgX15nGBL3CGaig8LUynb/LILlCYGNd/97SV+YJFJHpQbyIhUDa96hvOd26BP9Ec2cJELyvDTt2pE4Xn3VSV/z2TO7vPSHNkXQ8bxPylSecPpCYtcfUSReIREl3jPCEwUr6YwiqkT/HbfGS92E/qVLiZAV0lbPmfQHdqIG0mf7abC8nbxgxoW0P1GGcTjDV6qt+2g8TSOwU6ZIm/5B9An9UfRjGo/uNOXkMWsDAZF361ZGZRuIJkuxEeU15idJjNNDDjmkK06Jqocjku9cXmcZCzzHZKGIFz2qr9Gr0rhSEoFtjYDlCbbvLiSm6l32S4isnkIqqr41F43L4HD8pMhZXG/cu4yUeLGJSCE7Y1MNzeXGnTnI3DHtPNAvn53AtvJiqxm/Ii3tu+/Nm9onih7zh2vBZJYRr359/V9ISLV51EsGTkTA1CsyOnznN/M3HWidtyhkK3CTycRuEb0Pe3ZSxIv+siEHu4ldN07Ywna2ZifFmq322EK8aiS1/W7cZ+2K9rhP7f1x/7xkPbFnZIpF1JbuJlJQ2YkyaiyZSZmPwLogXvOrPN1/wtnS9hAZHTYWRdpYg4E9Thio1igwWBEpwkAWcjVYGKrSw1yfEY+AMJylxRiUYSAwMMZtMBFljyJeCymVONc7AiGczcBl1AdR9BsD2QBn8BjgBsJCwvCWMul6Xq0wWuw0CAPGS4TIkU7bjhuAiCAFRQG0gnjFS3gdWfGujowonyPNkDLvTzTIgPqom10nW0FCGGA25HCtlRI52tZHIQ4UaSsl+llD6No0qS/FOXBhkEYqakuQHSNNVOqg/irkP454UbrtRifyqBcSqZUW3WqLNrWCOFLqSL77Kzd9HM7ueaSrtteY9FmfkIrQjgtkEYlDXo3FlI2DAKeN9Cn9130noYcRH6nC/VTxSa0v3viuRJbrtSJNlj5HvmxKg8gRRoLJf9wDlDk19DV60FyQkghsawQW2lyDoU3XS/OaRHDM2XbvM09xFksd60uQBu+tBOnyPg3xGkca2mv2P7MFvNhFXgim+YDtglh5BQHzfXw2R/qNI1Kb2rovZCM5dzmba0Qbwr4LEmJuVidLLJShbuobKZR0lDkP2dKWICFxPe/jMJxEvJBdBIatMcmOg7NlH+Z5+hCJbmUS8WLHuj8Ilpd2sVu0B8HSnrg/jnNP4CCl0Wfnt5LEq0Vj688blnghS26+js7QQ4IY5wiU38aJCJJtXkV9Sri6HhbrrqwtsCObdSquITeWAhEhs9seL0AMNmsJxj07IcpeLvHiUUFGrONhMBsYIUshXrwWSA4Sx2vSCuza6EhgyFgXHbO40mDnJekPQhNHvBhOFKd331EmJhf3SP4ywqrurTCo5HqrG09SK3bMMUkh1uNykdvjp/3s3ogUaVsQ8DiXIWcDCvUPHOK3Ue/6if4hMql/UWit2LiFISmiRYmNI16wkluvzdas9HFqrxmfTcZxf7SpFVgzSEVy4c+zOA5nxFhk0liYVsIb2I4L5Ni9Ejm22Ddl4yAwinhx0FjcjWhbJM/JMq1EJgEDIsaM/mfMWTcr2k6SeE2LaB63VhCgl2MtZD+iw6E37Xby5mzGtmwVa5jp2r4wpNkp3ltZDeLFFlAnWSOiV17GM9Ji3CJicYz3+Oyc+K3vzF0t4mXeRiw4e61fZW8hXHAMshF1Zvf53Lap74CG/VolXtrp3oiUebHjtKVtj3uijdrq5TckzP1pibF2JvGCwnhZF8QrUtdEQsYtijYhm+Qd48VIFRGQIseoFJqextvJyDbQGN0eDEx4bdUB4bJYUKoUI5TyRAQimuFY9VO+3WcYBwbaOC/vcokXr7KNIuJFmYUshXhpT7S9b6RrB3IgLa0NkfP2qAeyihhR8JRTeIEoqElCiSIc7k+8GObqj5wR7TO52G3JblCt2BWQN0j0xj1fKZnkgZrkORpVPjzU386G2iAdoRVbB3vOm4gWhTaJeFlMLH102v5skhu3S5X7GMTLomle03E4G1/6tbGwHEGOpRtqh3TNlI2DwCjiRW8al9JUjdNporSBiI1tpFAbD/0x045BBkBGvAK1fF8PCCBJnKXmNs7Tdu6mI2PDJQ7PSfOaaIR51xjhnBClCWH4m38Z1Zxv/bS31SBe2okcmoM4HW0+JlLCiDfXETZTvMwx4ZSlO5CcfrtmTbyQC7ix7TiWOeEjdbBPXsPmVH+f1T2ck8iLyFEra414aSf7xH05pqS9sv/oUt/DoZWwAdwXzi/vvqN/4dLe0yReLXJbf14XxIsRzkjkORVlGCW+l4LihjPkGeIMPHmmDFrfGxgLCcJgoEsdlEIYYmBJtTrggANqup10OYqE4rQFPa8V0SGVZQ2L7catJdNBR8laI16Ut7Q0Ea9+Wto44kV5GnSUq/Plrkt/4D1BwvrKvo+DgesFM8TYWjrRSZNCrMNL4jWHmgl4JYlXP9XQBDOOeJlQ3CP3ajliLEpblHomhSJl4yCQxGvj3MtsyWwRkLKGMCFfnJatgc6pa9dOuwfuWhydk1LoGbsyXczBDOU2yoKEmX9Fw9gz0u9aWQ3iJb3eLnucukgYMiKSpZ5R1zDi2UlsPPODyDh7QKobQsAuC5k18ZIyCDdOHyn6Prs/yEiQxaiLOZG9GfYnm0UbCDsIcWtlrREv/ZDtau28Ne2IPCdAP8qoDWEDcAywyd0f37H9IsXSvSVwyTVeFYqRf9Yc8ZI2xzvTikWd0qEMSDdzlBi0BmS8HMu7alAvxlg0sCgzi7ot7jbgw8uB/EkfVBfRLwrBYkaDK5SaQWcdC+IlXUAHHSfLJV48WepAeVMQbaqhweG5WzZhkL/N4F1IJq3x4nkL0mkjBriGGKQUKs+J6NfmEmUROTSokVj4eQlLhxdIXX1uFZl7iCxL6bSOyrojeCKDUhmtZ+srMpOHBx9TaIvxpkfdx727N8rUF00arUi5RMrVdxoyL2VBVFSqIc+Z/1uxkNp6PH2XckdgkV/rZVpPv3so1VDESyqrlJSFxFoCuClbe1oxrvQRa7xEGaXWItzwtsaxFX3fdracG4sZT+01fJayqB0idrbUTdk4CEhPtmEAXcirTYwP/dp6lbJTZ9Xh0/YfD7S3fpQuiTFD7+hD0n1ja+SMeG2cPrS9tMT8Z/0tPX/YYYfN0/P6t0cg2MRCRoKUcGNmsdkG5hJlsBHMJeb3VoxJa8A5OpVBzN3jMiTGkYb2mvHZ3G7McuR5lEpkwfidTkBWGO5IJVuFXWdsM+TZTL4zT4jA0CnsiBD6xPzBDpvFdvLmaKSYTWXubCM55j+kMNasB/FSd7aK79k02i6DhD3byjgMJ2XYzGKNV0RDOcotg9BO6ZRsNBLtsTRHm/RJ90x73Rev2BTNvgjIPfLlvpMkXhWG8X/KDVgTUoy+us2nrYJLbee9yk56g+I1qVtXFiI0GPcqE/CgGPiD0nnq1peFECypbc4rA2FQDM1BGWTDuvhsa89CtgbFAzIoHpG6zXrpmMNjisKo23kWo2FQBt/E8kdtJ1+UysStUtsLFmIzKIp7UFK2BmUgDOsAvxIdGRSCMCikrG7n3p437nMxtgdlvVEtv38PCgmqW6gXElK3fe1foyibinnxeNQt5+FTiGHd7rUY8oPiDR/ApGyEMSjpgYPyUMBBGdzz6lwmlkFRynU76qJs65bpZfKoW+bb2r0Y6vOOV8fFbFPdr/Ok/21fb5vUMiFtVWYhK4NiWNYtbyddI34rHrP6mALbyxbFvdX1yjNb6ta6+l2ZkMduJ18UXd2WvpDCkY81iPLad/fUtrvFc7pVuYWQD8o6muHWtmWyqdsF27K+f//dM2PUdvtlEl3yq3gTaxuN0ZSNhUBJzx4Uh9O8Ld2N6ZItMCiphoOSJlx187StNuaLw6c+niL6o/FDdzzzmc8cXqZM9oPisR27nXwhabXvGocpicBaQKAY81WHlkjUoJCPefq2kKw6n5e1vINiENet282vixX2kPOLw6NuBR9jKN732WefQXHIDUokanjp4uQYu518IQ0jt0Ifntx8MD/SB/e+973rI1TogCi3GPAD9oT5tThW6qNgCrGq9pK5xRzIxlN/v/e3Rl/IRmJ3mauWup18IYuDQkZrufRX1Ns73cPeUq/iIK3zcMyHbB71pufYhsVJOu9c54/DcNJ28oV4DdwXuEwS9sOk65T07OHpJRo6KE7dQXHG1kc4FSfyvEd3sDXcI33H45cKKRsUYjVwn2IO19ZC1AcHH3xwtdkK2Rq21+fioM/t5IeIz/8g3LsmZBLxYjQyNlfzOSwl7Doo627qs79i4Jn0y1qYapyW8Gp9xgSlSRHEMTobclHS4+ognATucomXAQA3z3VC+KIO3g0cJJGCYCxPIyXVrCrKEv0YXivIkOdflLSBOlkYtNNISX2ohhaC6N6V1MwBXBFXdXZfS8rmsKyof0mBq2RB2xBpz6yiUExEcUy8L/Y5XpQjgqEO7ausv6rKJYyzknc/KOv55t3/KNMz5dxfSmchifrrS4g7BRfXoZy0f9rneBWPWiX1ZXe4AQI8jYy6p1F+8apWXEuUspLp4ukbFO9kfR5eHBPvsC+e0/ocr2nKzWO2PwSQn3HP8VpM/+G8MU5LqnZ9pmJJ4xmOmeIlr8/x8iyckCRegUS+rxcEECn9nIPPHNY6Ts25nJIMX065Ek1YlMMCBuZejk/Pu/P8yxJFGo6h0OmPfOQj65yHOISsFPEqSw3q8zVLuuSw3LAlSqZFNdYZ/UgKY36cLMVGWirxYte4JzDr23Ul4lPJKyLp2ZfhRIJzX0qWSZ3T73CHOwzbHpivFeLF8ckp6zlprb0X9WSbPeEU0oWYI32c4P1gRklNrM9r5SBjn8T5Sbz6vWL+/0m85uMx/M/DlEUDRFSiM/FE6Vzl+VjVeEce4jfvFEvZma9G5xjlvFqTZClKpb0ejxBCwxAvaXbzPBbqSelR3Iz0/oBpr+M3SociFO1oJwGeqjD4SwrC8LSIcGkjZdW+fDepPBeJ6FrZnn4ehnAs4e36UGzeOF4VA5/nrqwL2upYUZuS0jlAnBYqE1HlpfLwZNGz9iWKhaTy7JCywLROHCbF9h77rM688SbEhYRXqaQcjCSNSFdJl6iKPK4zKeKFtFGSPG5lMWyNksV5/fdJ9zT6qnuNCOtH7idnggiqqMWoNiO/JY2sX9TI/5Xf9g1K28t3+tpC92rkRfPLNY0AnSmq3erM6EfGTPSfhe69cUqveeh4nB/vJYW8jqUjjzxyiEUSryEU+WGdIcCZ5WHFnI3Rx+PdnG7O45gzj0yrN42vsk6nzhGjHm7LTmHLlHT5alDTySErRbzYCuXxMzUjKNrDluCkLo+AqfNrlDnqXRvMSTKPjPm4hvdZRbzMTxw+7IO2PJ8R17JsY1BSNqvzeVSd4zs2BJusbLC21XXWCvHSP9hXD3vYwwYXv/jF59VT/xA8QJ7p4nHiHiH3CHxZijBATgO3JF7jUJv7PonXGHx0qLK+Z94T3MNjwxgv679q+kx0NEpFCJ0hzZjVsSmOSbJc4sXbQlEwaETiRLmiPlL2DChKXdRjUn1cA4mQZoj0tFEZn5GbsgappqRFe5A5ETApgRQV7wgiasB6enrZWGMi8Zyk4PvEC/kStVMH3m+TRrSTBxyBoOh4zialsImcUeQwEX1qX6JYUiOQDyIKVPKza1okDNpUifJg7EFZ/FwJk/JMiOOkrEmrHrRR6XslT7169RGzkEnES7ulkDJsjzrqqAHPmslilEy6p2XnqOrRM6mXHPphWi78KFupDX2cpVjst99+lZiNKq/9DiauJWVDf9A3TPLIqiijMqeNwrbXzc9rGwGpKB8vUS+OqRif8W5i3nvvvWufEAUe5SmO1iFwvM6jCBzDhUFnbIYk8Qok8n29IWBOkmUgKhVjJd4jylLWedXUNRkjC81xoXvLWt06TtgFrtPOmaI5Mlg4Gs0frZ0yaV4eRxpGYT6KeKkDp662asskYa8gMGyLfrRuVsSLXhLBMV/FPYh35I8jyJy2UMofJ7F7JrIX58f7OAzZcOZjtk8cG++zSDVciHiVZyTWOZpTdpzQu+UxATWzSjYYuyLqnMRrHGpz3yfxGoMPhWSA8Qj0jdDwukoFiI6G6Bg0QtFStqaR5RKvKIOxY9AybqI+8S4EXBbvViVGaRtIPFxe0UYKjqFjHQbyGOd69z9PD092m1pXdsKpRE04nYLRdh46itV1kL0gX61i91l0TOQJ0dlrr73mladMxAaJK8/vquvFop2UsChRm9oJdxE5Rh0CgzhRKpSo9mmnNmt7WSw7KBuEDKTYRRuRaQrDGiY4UrzEBIbYSBE0UbVkVHnyzstziSpRkZ7o+ChPmcii7+V6U9jtvUHilGkCosjbKNIk4hV1hgESKv2Wsau9EXFUD6Rr0j0tC5gH1puVTUlqGmfgG/2hbPs9KLszzcMZ4SuPZqgOB04JZTje/QzvpHbD3eTtXhgL+oO+oR8qMyYvqRopGwsBfZ7DwtpSY8TYjD5rIrZeUp/TN/WhdozqS843ThkhdEg7ZmKcWu/L2dPq2CReG6sfbU+tkRbHOSetnY5t02pj7Bg39KY5ml4tm2TU8WN+MV5Ew8xbxp6xZR6zrtH4Me7iOjHvcPhZ74Mg9GWliJeMEWO9XbMfjkNrr9TReG9tA3Uxl5jD2AdlQ6qhUR9t8D5L4sVmQbxgRedEuWw+WTFsNves72wNu8b9QGjLI4xGrudeK8QL9pZLuEeWx0Q7vWu3dVvsPbq1L5xmdDf7qGyoNNJBlsSrj9r8/9fFroYl37Tu+uaZXEWZlL4xeykKoO5OU1L16o50tkYvRnEtuHiQ6o4upfMNt4EthkbdpW233XarO3gVY3PBSto5r4Rp606AcXBRKhN37Inj2ncPJ7Tlum3tvVqxOxDcSpSu7oRXjPbh9rTFWK+7HnlgnmeJFGO4bidaBtbwEnYe8oypQhK6EvUY7mRjF5uSJlHLs/NQUTx1C1LvdsuDg92S7IQHG5gRmMHSzkl2/LFLofq3Uoz0uiPkjW50o7pDpB12iG137QJV1n7VLUx9VxRkfdka3QOYPVjYe5nE6s46zi2TUt3e3m59ReHXHaRKCN3pdYcl9bMLZSF7HXzK5FfbU5Ro5x7ZNVJ7ywRXzymkqe76oxzPiCue+bqrYiGpw10OCwGsZSrPzojOLcqunu/6yvRQWQ8RLkp9uENhIVFjdzWsJ5c/+kiJ1nWevaVsbVdvUshP3V3IcznG3dPinapbFdsR0vPmlE+iz5fJZfhA7NidDo7RN90XfapMInU3KjtRFcO5bkNb1gvU++Oh13aHKhNoxaQY4fU+qa/nwdlFURtSNg4CxRip/e8Vr3hFHTdlYh4+TsL91+/tsGrM0Av6kHHgN/2WXigphnWHLXqskPvhmHGMY+3oWSJeXXHODHVRcazkc7w2Tjfarlqi3+u/dLUdZc2HsUNyAGFeMQ97HihdXRyBdec/OwGG7jW3FEJQbQm7y9m63Xgyx8d8HvOOZ1/andl8XrJiopj6XoztFdnV0PxjK3nzgF3vSDHo61g3X5Wsk45dRweEbeAYeJhz4GCu98ieQgbr934nMQ+t9K6GbBfl24WxRHzq58DOnMn2NGeWtfP1UTf0ESkmdT22OJPqXK/NdhF2P+L8emD5Y860g7E51PWKQ7f+tNq7GhZyW+0T96ZkKM3rc+4T28QjDewwTde2wi7St7TzmGIDsh/1uVYK8crt5FtAep+TePUA6f9bvBfV4Ne5KLNxQgna+pVhwCBGeBaSlSJeiIVtQW0XXiIo1VihzAmDxSCwXawtWCnaMHgpZUq+eMmq4RLEIuqNvDjPg6ApHNdxPeK8sk6rPmSakcTwZngRbS9elEr2GFglBbIaTX5TLzhSqAa9ugchKR6xeiySyLhSX5OO7wlDHmGDG7JHeUSZlLFjnVMikbUO6kuxUYja6HwTQiva6Plstt0vXsV5jytQV+UgTyU6V0mEdlK0RHm2sLcdu2v4P/BhQEaZPrfiHOQU2TMBOU/9ySTiBQfHeneciVh73aMg+iYOE5Wtgz0IsX9PlWPyNvGWXPtaD/enFefZTrcs/K6E0zVNSkSZ7q1ytdm9NnHChWOCUkY03Vv3Nfqh+wBr40N/cg1tSdl4CJRU62pIevc8P2MUqSf6mj5DLyBg+gBSr/8Yp/SYcdOOU/1d32G0MBpHjVN9liHAgOH0aMXW83QzQ4cBm5IIrDUEjBN9mAOV7uXACt0ZdY05zviJVxAvupehbwx5tcI5yVlo3ufwMoYY1u28E8evFPEyBj0fik3CYdqKMWiOD2cwAqOOdIQ53bnGf8maqbZCzPOhQ+Bg/llp4hV19NyxsnSh2ibmMxJ2lHLN2xydJZuj/qZe7hXywbnrXpqDS7So6rV60Cl/1grxMqezw9S37GVQ8aanw7bhVEaKPfKFfeH+IGQE6UKOzfH6rPNcL+6TY5J4QWG8JPEaj039BaPXwXhfGO7jhDEtelVS76qCa704485ZKeKl04skicwwPAz8sgarFmuwULoUNEXL6xVeFgrDeZQGQ77vneHtMPA878MgdJ0YfKHoPWODYi1pD0MCRUkpx+DjKYKF8om6Ksv5ok7+D6PecYwxRAYhMeAZXVEmRUa5eRikaFlJrRg+N8JxXtoYXm9jwKQAAEAASURBVHT/UxjKcK52em+FB76sXRpGjgIbx1AoiItoFy8+JaOdvieuz2ikgE0GUZ7fKCFlefncigkH8RGdg6vzvMgk4gVDitu7KKHrai/c4E3cU4TafR11TxmfnhGzzz77dCVtq57rvraCMJk4PPtFn4JBtAE+ympxjknTfdSHlOve+j/urWeBlHUFNdKmP3FURJvbsvPz+kcgHEGHH354JWD6gzFI9DX6gV4wTkOn6LeOCX0U49TY19/0e4RLn+Uxb8epcZ3Ea/33m+25BfowvYt4cVggLTGHBy4xTxg/8aJ7GcvmJLrXGOLEaMUcZS6WgeK5VxyTnpcZ12uPXSniRf+Xdbxd2QSne+5zn9sWMSQx5k0kzPxlPKu3eUakmx4IneA7c1q0a9bEi73H6YiUhM0XdpR5D+nlCPIisFdnNo2XY+k2n9kLrawV4mVeppfpTfeHQ9v/MV+rvz7jmWqcZe5PzNfuLZvAu/uC0PsNkdOPSRKv9q5v/TmJ19aYzPtGtELYG8Eo+dV1kIVXIA40GCmyAw88sHr0KQaKcSFZKeIV5fAUizZQGAYUz5fBP61Q4gaQwWYw8SgJiYtsiHS0Qsl7ld0E60QhIshTZfLwfSsUfxj3oUy9t8Iw31TSM6UoMq7GRQ0pB55t90LUTJke1BxkqL3muM/aSNkjIcglb7j0RvcNBiHus4mMd8eECFueOIZleMLi2EnvFDHFZaLRRmQWQRf10e5WtE96HqLff4AyZYaUOkdkYHNJC3GP+3i314vP2qufSvXbtaR4eEk1GScmEqkiZR1AbTMMeFQXg7Nru/dlvVjtQ/oT0qk/BREfV35+v34RMGaMD1Fi/Uf0lZc0yPi0LTNm9FleeuOUl16kuD9Ok3hNi2get9YRMIebS485JYWLfjcnIB19u2OhtpjnjB+pieY38055rEPN0jCGRok5hREu7VH2TCvjSEN7THxWX+PSdaSyxVwVv3tXP/ODF3spbArGP1Ij6uI7Kct0Rzhj1H2WES/lyeYpzx6tjiMkkE5rxfwVGLJltNU7vGUVwco8zmZoZRyGq51qGLaNOnrwPXsKyYy+ps7slrg33sM2QoS1l40o4ICYud+WqrhPJIlXhWHsnyReY6GZ+8FgZ9yXXdmqIYrhh1cgTmVAiyJIaWHY6rBeC8lKE6/wdkn9kzMuRa6fLz6pTpQf7zLjWDuQLgTIoKMkW4lJgEGFnBq8jCyREuSrlT4WcW57jGgIwiWMLwo0qkzHU27ugXuCGGijNV8UwbSijSajSLcT9aLoQ7G011FXSgURQWblbpuYTI7TCuyQLuWI9jAiGZPIUB/XScRLHctDGatS53EyOWh/H+9R9aIk9dOy4UVdr0dZTiI/CBYliuBpMzKvzSahxYjIhsneWjL9SZqje9vvE4u5Zh67thEwZhhMjEaGZIwZBMzYnVb00U3FUWGcIu2cWyb0/jg19jPiNS2qedxaRsAczlkqxd28Jvpirlus00IbOS6MHySF04KNYt6bpH9XinjRAV7mKO0QQTJX9aVvK/lfvc2P1lKZD50r0yWM+lkTL/pEuWVTsrqUgqO178Du11tbRYnMsewn+oqDuDwKYF6T1wrxUil11k6RVfZi2QisOpnZOiH9dsZ5zmUjstXYH7KP6OBwSCfxCgRHv68Z4iU9jkHr5XMrbq4IgRSTfuSlPW4WnxkQyEV5YGc19CmA8LxEeQiDTsioptymFYqo7FQ0bx0OUkDpIDwG71LaiwghXKIz3oWARSsMEIqdUe1l8PDQGCSMHEpZ7rJIiDpQIgz2ScL7QSEqi8eDB0WKAWJgUCuTsYW8EOROmV4UleiNcpXnhZz4fyFRJkNOmd5FZOLeuD/q5d4RmCoPCUCAtNGCUal+POjS3ij7cYLsuZZ2KcsLIWFYRoolZa2dMBXdMzlEG5WpPO2TSmkyRKIiCtiWC7NxES/nSBWJdXMmBNFYZNc91mY4qytCp3xpEfBktKqDfgVjZfdJX1sP7XAd/QbGvID6FYwXwtl9VbZIlz4ktQXOPvs+ZeMjYMzoj8ZHjFFjxgRNn/rNePHOkaU/ckToO7F+hedYnzVmRKeN31GZBK5jTIqAMyCMy1boZesZ6VJ6LiURWMsImKONE3ManUu/R8aBec/8Zr6hn40zEk7T0L3mHOPIuDGfix6JTnC29R0XLRbGpnFqfRXi0Ip5y1hijxlLo8Zie7zPxr+2IJKxUYZ5K8a+d/Ux/qPO5ioROqmRzudgVS9zI1nIRnKcOcparVERJ8TICwkaJWEfOdcyA3ggpGyasGfCjjKfsZ+kTLIrZHOov7nPWj0Rv1bGYUhvwVxZ8GnFmryya3OdOyPK1v7efp50HU7bsuNse3i1B+FFf6ov25vNqI+FHRX6Wd+KexTr9CwHgTXngLoHaVNPuHD0qn/KfATWDPEyODFvLwZuKyZgBiPF4cavtljoKhQsrQ6rNwBb4ZEt2x93ZbvsrXYJao/rf9bZDZRQKH7njWIoG6AUw1LbGxELeBpQBgXlFYOJwqO0EaswkCkNOCtzUjSk3474XzuUZ+AawMiAMuFHYRHGlTK10TujPMo0UBcrIjCuT6lrJ6OL4jJBRXSGwaYsmFKK7hPyoY3TTB79Orn/2kUp8+gHAVMmTF030jW1k0JWprL9NonwwHAh4mWDCl5MdVcPfVLb4cAzx5iNfoTswZfTQvlLlcXgrM1eHBIm6aXivNS65nlrDwFjhm7gAecs0FeNFy/OAn2EA0S/YSjSfV7T9FkGqDHIOKJ3XLMVY48hR6/RPymJwHpCQN/Wrxm3xlDMN/S8vk8Yuvp3ODI5LIwdL0bytMJwNqfEHN6e5zrmEvMZJ+Ckeaw9z2djko3H3pHS1o5/pAuZUmdjH+EyP2sPG8LcxgGovSTmtnE2kuMc7zxzaSsII0yUNY1TG8FlW9BbHEhsU20JR2vYT+rLlqFr6Bjtsw7bua2MwzAIj3vbj65x5sMERpMcxMqZdJ3yLNG6lKOtT3yeNL+HfmZ/wy4c5DDUD6JvqnvYXOpJp6s30p8yH4E1Q7wQAkanTqdTt8KrwJDVoRfqeO15K/VZ+NTmCjwvOll/YrdLW3keVfXoMx6mFYOTMuI9CeH9iWjJQpGYOGfUu4gFcgVTA4JCDS9ZeHScpyyeDKRHeXCGMWW4WNEO5cFH29zTUFDRRmRBmV7uJ69clEmhLla0RTsZdtqpPIM/Ij+upz3K00Yv5UXEaZL3b1xdKHblKFPf8Nl36kFMSNoWbYz+iwDCVfh+nCyGeGmLsnkFTZbKD09c9CPtpOx5+pW/VFkMztFuk5KytXkpOC+1rnne2kPA+NC3jRkvfdUY9QqPKsNC39FX9VuvafosZ4dx4Pr0jmu2EuPd9Zei19pr5edEYLUR0Lf1a7ZR2EfGE50cES/9Wv8273gZN17mCAbwtGLsKI+9oMxWXIc+N58pa9I81p7ns+uyBxApc2Y7/l1H/dXX2DdvGPvmbeeY1x0fSzxiblOPUTZSzFXmxD6JoV8CF3bPQuJa5lc6Cx6wURffe7meeqhv2E9sHMcgf85rZRyGrh2ELmylOC+yVmC0ENmddB2knJN9lARm6tu3o0I/61f6U+hmn/UDZUa/dB2inurLkab+KfMRWDPEa3611s5/OpIBHKmGQv6UATHAKIeDDjqo23fffeuAXoySWzutzJqsFQQWQ7xMgimJQCKQCCQCiUAikAgkAusDgSReC9wnXgvrWw499NC6sx2PR7B6bF4apAfi3fnOd64h8IU8EgsUlz9v5wgk8drOO0A2PxFIBBKBRCARSAQ2LAJJvE65tciU8L2QqdApEdES4ZJeaGtVa3pakXtrHYsFpzbXSEkElotAEq/lIpjnJwKJQCKQCCQCiUAisDYRSOJ1yn2RPmi9lYWfHl5I5ALHjm5yk/tru3bfffe6awsCZneXlERguQgk8Vougnl+IpAIJAKJQCKQCCQCaxOBJF6n3BeLCu1AE9uoioBZOIlweUCvBY+xuNOiQgu27WS4zz771J2ELDhMSQSWi0ASr+UimOcnAolAIpAIJAKJQCKwNhFI4nXKfZFS6EGfH/nIR+qDgK3lstsOsuVll8AQW2p64O9tb3vbSr6s68pd2wKdfF8OAkm8loNenpsIJAKJQCKQCCQCicDaRSCJ1yn3xnOujjjiiPp0dc/Xsh1oSGx3aqtTpMuzGqzt8twrz29ISQRWCoEkXiuFZF4nEUgEEoFEIBFIBBKBtYVAEq9T7ocH5D3jGc/oPvWpT9XNNWLnQqRLNMs28UjXzW52s26XXXapD4ab5jkQa+t2Z23WOgKIlwdlembcYYcdVp95EnX2QMm73e1u3a1udav6IMvcTj6QyfdEIBFIBBKBRCARSATWPgJJvE65R57Vdeyxxxaj90dlE425h/96EG88eNa6LoYu8uUhdB7yZ9fDlERgJREQafWAyeOPP747+uij60Nh4/rWHEpx9ST4TZs21Qc3xm/5nggkAolAIpAIJAKJQCKwthFI4nXK/bF5hq3kPbHde7w87RvhssOhCJcndeezutZ2p17PtbOeEPny9HjPj/vXv/41bM7pTne67mIXu1h9Grz+6P+URCARSAQSgUQgEUgEEoH1gUASr1Pu08knn9yddNJJdfdC7/EZ0fIS3dphhx0q6ZJ+mJIIzAIBm7ggX54p95e//GW4k6ayEP4znelMNe1Vf8wNXWZxB/KaiUAikAgkAolAIpAIzAaBJF6zwTWvmggkAolAIpAIJAKJQCKQCCQCicAQgSReQyjyQyKQCCQCiUAikAgkAolAIpAIJAKzQSCJ12xwzasmAolAIpAIJAKJQCKQCCQCiUAiMEQgidcQivyQCCQCiUAikAgkAolAIpAIJAKJwGwQSOI1G1zzqolAIpAIJAKJQCKQCCQCiUAikAgMEUjiNYQiPyQCiUAikAgkAolAIpAIJAKJQCIwGwSSeM0G17xqIpAIJAKJQCKQCCQCiUAikAgkAkMEkngNocgPiUAikAgkAolAIpAIJAKJQCKQCMwGgSRes8E1r5oIJAKJQCKQCCQCiUAikAgkAonAEIEkXkMo8kMikAgkAolAIpAIJAKJQCKQCCQCs0EgiddscM2rJgKJQCKQCCQCiUAikAgkAolAIjBEIInXEIr8kAgkAolAIpAIJAKJQCKQCCQCicBsEEjiNRtc86qJQCKQCCQCiUAikAgkAolAIpAIDBFI4jWEIj8kAolAIpAIJAKJQCKQCCQCiUAiMBsEknjNBte8aiKQCCQCiUAikAgkAolAIpAIJAJDBJJ4DaHID4lAIpAIJAKJQCKQCCQCiUAikAjMBoEkXrPBNa+aCCQCiUAikAgkAolAIpAIJAKJwBCBJF5DKPJDIpAIJAKJQCKQCCQCiUAikAgkArNBIInXbHDNqyYCiUAikAgkAolAIpAIJAKJQCIwRCCJ1xCK/JAIJAKJQCKQCCQCiUAikAgkAonAbBBI4jUbXPOqiUAikAgkAolAIpAIJAKJQCKQCAwRSOI1hCI/JAKJQCKQCCQCiUAikAgkAolAIjAbBJJ4zQbXvGoikAgkAolAIpAIJAKJQCKQCCQCQwSSeA2h2H4/DAaDzovEe6BxqlOdqotXfDfr921dn8CgrUfb5lOf+tQVk/a7/JwIJAKJQCKQCGxEBNq5MObHaGfYB95TEoFEYGEEkngtjNGGPYICPemkk7p//vOf3d///vfub3/7W31HLE572tPWdp/mNKfpznGOc3RnOctZ6nd+m5VMU58ddtihO+95z9ud9axnnUk1/vOf/3T//ve/5+HhO3hE2895znPWOsykAnnRRCARSAQSgURgjSBw8sknD20DNsK//vWvajewDcyLZz7zmbsznelM9f10pzvdGql1ViMRWLsIJPFau/dmJjXrEwuK9M9//nP3xz/+sb7+9Kc/dRTqGc5whlo+onP+85+/O/e5z13JFwJGyZ7+9KcfkrPlVLRfn7/85S+1PuoRr7Y+FPvFLnaxSnzUUV281NNxixWTCvL5j3/8o5It5XtF2d4RMWXF9S9wgQvUOvjOy8QDD7+n12+xdyCPTwQSgUQgEVgLCERkizPWnOjFRmjtA//7Heky/5397Gevr3Od61z1/YxnPGOdD2NOjHlzofb95je/6f7whz/MOyzKYHfMytk6r8Dt4J///ve/1ab5/e9/X+9t22T3Lki0e5syGwSSeM0G1zV71d/+9rfdL3/5y+5LX/pS981vfrP79a9/XZXdX//616pMkRDkIZSlKA8FKup1kYtcpNtpp526q13tapV4XPCCF1x2O9v6fP3rX+9OOOGE7ne/+10lQwjPqPpQDOc73/m6S1/60t2Vr3zlWh/EcCmKWaQPHt/5zne6448/vtu8eXP385//vJarbHVAzlpSFWTrMpe5THe5y12uu+pVr9pd8pKXrOWbKFISgUQgEUgEEoH1hkA4Qn/wgx903/jGN+rr+9//fsc+QMLMiY4xJ4adEOQI8WIjXPGKV+wudalLdRe/+MWr3TDtvHzEEUd073rXu+ZBZp43z17vetfrdtlll3m/5T9LQ4BjmY3zpje9qfviF7847yLsGfadl88ps0EgiddscF1zVzXYkJzvfve73be+9a064L72ta9VkhNRHZ6QcSKqc6ELXai7/OUv313jGteo7wamtD+pdy0xGXeN9vtR9fnqV7/a/eIXv6jetfbYUZ8Rwcte9rLdzjvvXOtD0W/atKkLr9uoc9rvTB48bD/96U8rHl/5ylcqJoiXOkwj2o+IwsNko3zRMHUQgUtJBBKBRCARSATWOgLmQ8TqV7/6VXU+coKaE9kI3/ve96oD0jHjxPyPYLEROEPNixyjSJMX5+1CaYiPeMQjuuc973nzijCnXvOa1+zueMc7dne/+93n/Zb/LA0BkS524FOe8pTu/e9//7yLXPe61+1ucYtb1Nd1rnOdeb/lPyuHQBKvlcNyTV/JQPv4xz/effrTn+6OO+64mk4nZSA8WJFiMK4RFCvFiYBRsAgYr8iNb3zjqhhFgRZDNkbVh1dNhGmSgo/6KStC4uqD/NzwhjesnjGKfyFB/ODxyU9+suLxk5/8pGIif91rGlG+l/JNEDxy17/+9Wsd4JSSCCQCiUAikAisdQTMvT/72c+6T33qU9073vGOznwo84SNgJCJcLERxklEv9gI0gI5Hy1RuPnNb97d6U53qhkqHLSTJInXJHRW7rckXiuH5VKvlMRrqcitk/MQjB//+Mfd5z73ue7DH/5wx5OF9CxXLnzhC3c77rhjJTs8I1e60pVqmgFCNGmdE0UuovTZz362e8973lM9av36ON91kL02khaLekfVXcRL1Ok2t7lNd6Mb3agq/bOd7WyjDq1RLl68D3zgA5WIKl8OeyvKjTrEphoIoTqMmoBMNDC4yU1u0t3hDnfoLnrRi9ZIYHvN/JwIJAKJQCKQCKwVBGS5WFfFRuCURbyOPfbYOh9ygi5VRLg4H69+9atXG+EGN7hBTcnnqBwX+UritVS0F3deEq/F4TWLo5N4zQLVNXRNCvXtb39797GPfaySL2mF00SUFmpCEBMbXSAc++67b434WJzpt3GCdKnLRz7yke6DH/xgRwn06+N81xFF8wriY4JAJEcJkiTXHOm59a1vXaNOl7jEJUYdWsPryv7EJz5R13Ypn0evFeVGHWLdlvVg6jAqJVMdHWeC2XvvvWsETrpFSiKQCCQCiUAisBYRsEmGpQcyP17zmtd03/72t4fOxVEOxmnbwHnqhWQhYQcccEC35557dtaF24xjlCTxGoXKyn+XxGvlMV3sFZN4LRaxdXK8yMyPfvSj7gtf+EJdsPrlL395uGlENAFRkJMdL1EbaXNBnJAckaBf/OKX5XVCjVQhH62IKllQe5e73KXbbbfduitc4QojIz2IDSVvwe5RRx1VvWoW7UZaH+LEQ4YsiaRZmCs1AfkJ4kVhSH9A3qzN0j47MrYizVAEDvmxILcVZUmbsIjXwtLNZT2X65EgktpyiUtcstu06eIVF+UH8RKtQ7xsxgGTH/7wB3UzkLYMkTfl3u52t6spFu1v+TkRSAQSgUQgEVgLCMSarne/+93VESorxrrnVsx/bAIZHOZGm1343/fOZyN4/b7Miz/64Q+7E088sX7fd06yDbykHrIRzPcxr0d5SbwCidm+J/GaLb7TXD2J1zQorbNjeKpEtqTSSS8UXbJbYCuIBtJ0rWtdq67RsjMf0oCEBdFAcOR62wHRjn9InMW31oW13jA53SI9FKuIE+LUV6qiSjb3kMrw1Kc+tUMEW3GNuZzwW5RUwV1qioK69CNeFLv6fPrTn+k+9KEPVgLWKnkTgvItHL397W9fvW6R+ohEqoPyjzzyyLb46pVr2xEbiLTEKyJe0jXVQdTMerk2/10qBcK43377dQcffPC88ucVmP8kAolAIpAIJALbCAEkS5r9oYceWubSD80jTOZMc7jNs5Cu61//BiWL4+qVNCFg5jgG/JwT8hfVCfrRj3602gl2SkbKWhvB8TbbePjDH97d8pa3rOvAkK9WZk282vqETdCWv1E+L9TOJF7b/k4n8dr292DFayAyY6Hsy172skq+bB1q8WwrdgqKV+xOKAVA1ClIE6LBm0WRuoYtZj//+c/XFD2RHwSMIGpSCJA4kSZ53RR2q1gpYtEuG1q88pWv3GqdmXOcb7OOq1zlKtWzpi4IYihJESt1Uh9b4b/3ve+tZLAfOUPYHv3oR9eoEw8d8kZMMgjka1/72q128xFpEymzOQYS6bzYnTDwQB5F7SgudZDCidi2kTNtVt4+++zTHXjggYvaTrdWMv8kAolAIpAIJAIzRoATVLq9LdztYGh+C6Pd/G0etWEVO8GSAv+bE83L5jhzIVvDnMypKQPFzsQckuZk34VTVLqhHX/vcY971B3zZKa4ViuzJF7Wq6mruZy9IgWytU/aeqznz2wybfXObnKv+u1M4rXt73ASr21/D1a8BkiXqIytWY8++uh51xfBEZW5293u1t32tret67NslLGQRFqC6NkrXvGKkmb3wxo9as+zbSziddOb3rRuKausEATO2i5EBWGSKtiKVEURKtuZjlub1R6vjbx0rik/vSWW5znPebr73Oc+3a1udasaxYtNNiweFgXUBgSyFaTrXve6V00TFP2bRkxYtmOVooF8tXLnO9+5e+ADH1i9hUhcSiKQCCQCiUAisK0RkKGBEL361a/u3vrWt1ZbITJiEBMvG1Vd+9rXrjaCzaoQp8iEGVV/1+QYtV6MY9Oc7NmYbeRLiqJr3exmN6tzveUErSyXeCGNXoigcpGPICJIlywgjlykkQ0U2Sz+R1CQMW0PR29bt/gMN8SGvcGmaQU+smZcF16TroPkwku9WtvF9dSDE1y9kKZJ1wlntPYiwtru5bO2euxOtE2bfYYDYpzbybd3b3U/J/FaXbxXpTRkC7lACkSZWhHdsg387rvv3u266651YLYEqT22/UzhGMxSBF2XYkVkWpEqiMDY3AKRkl4Qwvtlm1reMLsmSVFoBUmx+FY6wjRERcSNkkeg+sQL0ZL2aOKQPhnESyrE2972tu4zn/lM9cy15Yu0PfjBD647L01D/JyL3PIUwgERbSWehyHtkacwJRFIBBKBRCAR2NYIMMyRhuc+97l1Qw1zM8OdMPaRB05Lz83yrEwEKQjZuLojPMiXNdNsDk7RN7zhDXVpQuyOiIyYD5Evm21Y69XKcolXkCzlI31sjHhpr3ogMQgJYsM+MTeb72XccEAjh9o6TpAW1+RsFS1sJewfm2ptKo+XQaDGCZxiGYflCq1I5UROObLPfe5zbxWxao/lwJbFo712alY/bXUvtBPREml0Dz3zlFMZThzXSbxaJFf3cxKv1cV7VUqTymfzCArIOi0SCsd25x5GaAMIuxEuVqQceqgiT5ldkAxwL2KQywe3scRDH/rQOuBDiQlvv+Utb6mkzVbyUvVaecADHtDd8573rMqGAltIkEDrtRAe7YyJw3kmDwSOQqVY1Ysgo29+85vrVvbOacVkYF0WBUzhTSPKp4QRsMA5zpOaYdJSvrSNlEQgEUgEEoFEYFsjYJ00w1tGDHLUCqcnZ+Uee+xRM0A4LUVKphVGvQ2vEK/nP//53eaSCRIbYCECiA2n5OMe97hKAnwXslTixSksgqRN0h2tv4452bwsmodstqIeokHmZ7aCNd2c0giTjBmEZ5SwW9gclhmI7LXiXM8ss1QByZnk0A476n3ve1+9Vnsd9bjf/e5XndjsqT6B016RMm2T2smRzZ6xlALW0VbYOpc9pW7aCHvLQuD1tKc9rWYAtWWHw9hDlDnRU2aDQBKv2eC6Ta/6zGc+s66jomB5QEisPZJi+KAHPWi4Q9FiKxrhcTsDHnLIITVcHh4tg5xCkzJ40EEH1bxwXi4iQvXOd76zDnSKQt1asSlHPIOLIlxIkD1KHuGihIL8OQ/Zo/S81CmUu/Vlom7KF6lqxboy9UZMPQh5GgkPm/Lh0gryp3ztn5Si0Z6TnxOBRCARSAQSgVkiYH20jbKQLqn/rVh7ZR6WAcIZae6M+bM9btxnkS9GvSyUl7/8FZUM/OpXc3N9OH9l3DzqUY+qmTfmyUilWyrxYgMgHDJx3vjGN1ZCgiCxS8zL3pGVVrSJTWR+Nk+zWy5/+cvXNW2c0v0dkePcIF6wO/zww+Pr+n7JS16yLuFgQ3DgTiKsol1f/OIX6/o6TvJW1EMGkPV1nMdhQzkGvpzO1tuzpzixZf6IWiJc2hlthasXGwjOIl+iaewcTuFnP/vZW93/JF7tnZjd5yRes8N21a9sQBp8PBmiXi0hoFh4PqTz7b///jUKROEsVV7/+tdXjxkvk50OCcJjkEtTsLlFhMr9JvwtNC/qZPvazcUT1oroG4UsTdEmG+q6nPq1147PJhtrwqwxs7C4FZ4l5IvStOUtJdVf/Nsen58TgUQgEUgEEoH1hoB52Bx8zDHH1DS1tv6M/fvf//7DCFD722I+W0MkBV9UBilohfFvZ0Ppb+yFpRIvBAOpiiiXJRbWcLN7IgPGtREszk8EhoPWeQgZx2krUg2tbbNMgR0yygYI4iXa9ZKXvKQ9vUYKbR5ijbsNSSYRL/aPZRIcwchiK1IwOccRX9HHlnix8US2pDo6V2SP/YXshmhzEGZtj/YiX9JIre1XhnLZRK0k8WrRmN3nJF6zw3bVrxypbzwZFAPviBcRXuZJEfHysGODMxTeUioa66UoV6mHIa4Z66UQmVgvRWHIQRZ14inyoMZWKEYhft4YYW4KYJqUw/YaC31WvroeVZ4jJsTfCqWEnEoTiPJ5/1ISgUQgEUgEEoGNgoB1znY8ZsCLvLTCaSoNULqb+XipggggN4z+NhvF9SL7BjlobZDFRrxcH6lji7z85S+v7ZFJ09o9yoiIljVd6oOUycDhDG7FsewQ9gs7hA3StwG2NfFSb2mOCKZol/ZqUysc4OyZeCGnznMf/MYuQ36t1+9vcpbEq0Vydp+TeM0O21W/srxh+ccvfvGL63qqtgLC4AYVhWLHveUKb01Ej/qbbNiS/b73vW+NXPEgEYrYOi/nvfSlL62eFv+3SoOiQA6FwXl6kEXKsn3Jy0aQHLtYUR7vEHys9aJ4EUJC6ZoQeOGULd1xU8mLbsuOz/Le1SElEUgEEoFEIBFYTwhwyj7nOc+pa5/igckMcvMf++CJT3xi3QRjpTNOFsJoscRL3aXryaIR/TG3R6RLJM066x13vES3006Xq05c8zZSJtLFTvr+939QnMHfreu02SdBEM39MnDscizyBRf2AdmWxAt5Et3zDFJttnZNdI8EaeToZut5cVyrexBNbUa2kV12F7xi/V29SPmTxCuQmO17Eq/Z4ruqV5f3a5GlNMP3vOc988oWWhbel0bntVyRVxx54hbStiLMbkck0SNpg62IdPG2iXyJQCE+EZWL4ygRSl+onyKJlx2RkCEpAQiYycLL8ZRJ6z2La416t+j3Va96dfH2/KSSwX75zgkvWZQd7+rAW2RRblu+z9OWP6pO+V0ikAgkAolAIjBrBESH7GjHkA/Dm4EuNY5T9slPfnKd32Zdj/71F0O8zNnsnde97nXVAWxDjdhUwjyMZO1adm0WvbJDILuBs9Y8TRxvN0GPhPHZlu6Reii1z7EHH3xwzQ6yOVek+21L4sVeUtfDDjusrqFr8XPv1JONJ9WR85sDmcDFvWZzWWZhfbtrjbJ7kni1qM7ucxKv2WG76le2pajwsd0GhaJbsY2o3QwpI4RoucLzYpGuZ3pRXq3Y0cfOhhSAPOVWeKlEveRjyzPndQmvTRxHccZEQIHa+tW7F8Jll8B4IUSiZKJRsXthXGfcO4Vrgw2LcSkh5bc50s5TvrSDtuyogxQMuz/FQyaVb42Y8p2XkggkAolAIpAIrEUEXvSiF9V0wth4Qh0Z7jJMbHJlffZKp/lPg8O0xEtkypxtG/UXvOAFNeUOIYo5nI2AaO21117VBjE3m7vDQasujpdmKXJkIxCExlIN4jgv59ulULphPOt0WxIvKZXqy26xtqsVW9jbtRDRRJ7cS7YLgQsHt/YiXLJ9OMthKA2xlSReLRqz+5zEa3bYrvqVJ+1WJPIUUSgRqeWKTTUirdHW8q2Irlkn5dWPrhnodlpEfCzutAhXnjIlICROqUbIv71mfKYQKRSkRyoBQsm7IxIlCmUCWShFQvmUkPItNFa+XPEgYG36Y5Tbvlugqg7Kl5agfMpZ+UEAw7PWnpefE4HtDYFRXtUWg4V+b49duc+i45OvltHryfjkr+sXAc/veuQjHzmvAYiJCAmHqY0dzK+rLdMSL5Epj3FhQ9jBuV1jrs429bKroEfUTNqh2HzPCYzQ2FmQM7m1PZAYm23BJNZ6bSviRU9yqHskjy3k2V+EnvJia1m/z7bjCB4lbC8EzFILm6NZmtLf+CSJ1yjkVv67JF4rj+k2u+J6IF4UG8Up8oX8iNJJjzz++C+XbVG/WUP+se5qFJCUjEiUVAAkC9ERgULAPDDZzogWBk8S5VO6ypeuIG1S5IsHzYMN+4tu+9eKaJgIFxJmkpJTrXxeJ3VQt5REYHtEYG4/n7mNfRgMc6+5rZDL3yEk878ffl2O99l5W75b7Kc5YjWKYJ2qpBvNGSyuGYZLXN//5dvh93PXiV/zPRFY/wisd+IldU5mjzXmyAjnbSt27bM2C3GyXnycBIGzRt3yA4RGFJBeIuwI87ldHu32SLYl8fLctaPKxmAIk9RBwhaxnm3vvfeukUo7MUekqx7Q/GF7cSpbhiJqJtLXxy6JVwPYDD8m8ZohuKt96fVAvPqYBPkS6hc+F+7nhaFcvUTBvHymOFqPVHstXh5KkudHKqUHIE6TeqgsC055zSzUtf2tOkT5cr99ppCF7MdFw5Av5UvlFOWT3jDuIYxtvfNzIrBWEQgDZMu7mraEKD7He5Ar7/F5UMfsfDI1Z9jEMXH9wOEUu2doAMX3i3lfDvHaQsbmiNscGUPS1GAuVBaf57/PEbl61NwPi6lyHpsIrAoChx56aDXS2/mUA9HGUlINH/KQh9RU+lWpTFPItBEv69Kk3HkGmSUVEf2JSz34wQ+uG2Nwhk6K3NE75nW2x7Oe9ay65ssGXJGyyKGLfNnl0W6PZFsSryeWTU9sTNZuCsbBK7Vyv/326x7/+McHBBPfrc33OB3PIsvt5CdCNbMfk3jNDNrVv/B6JF6iW4gVZSIFUArBCSf8oijTn1aFyrtjy1PKtc1J76NLAdlpEPGymJbnhuJdSChZ5SNY6kCxqkOUKSKGHPo+FF7fUFSGKJzybdUa5G/cQxgXqlP+nghsawT0ca8548z73P+DAefHHNGK332HLM39P0eqyn/DJvhtToYf4ot63vCfrT5sffxWh4z9Ynwu4dacaMux83+b+z4iZKc6lc184jukbG5DHd/NbbSzJVKWm+2MvTH5wzZGYNQaLxkkSIp14AcddFDd2Gq1qzkt8RLtsSW+qM1nPvOZuk68resTnvCEmmYo8rPQsgP6TcaLDb+OKc81swaKnUHM6Zs2beqe/vSnV1x8ty2J14EHHlgjc5y/4YDm3LXkQcTroQ99qCouKD/+8Y9rxFA/sOFGKxnxatGY3eckXrPDdtWvbM0V8mXDCxtXtIIQyFWWs9zf8KI9btrPCEk8E6u/g6K0vz322KNGfyJEP811KRRKVbofBffrX/+mpCR6n3v53kuaoqiUVz8t0TawIk92Z5L6J3edAp1WkCt1UOaJJ/6qRMBOqIrdd7xh/Tr0c6TjIYwmsHve8551N6TFlD9tPfO4RGA5CGwhVkGo2vc5EjV3TBCtcb9v/f1y6rUWz0XGIgo2966WW0iW7+bI19x3fvN/e44z5r5D1uZfz28picBqIXDEEUd0T3rSk2pmCYcjka5mrrSZBOJic4bVlmmJlzn4Va96Vd2hT3qgebmVZzzjGd0BBxxQ22RN+EKCbL361a+uqYuWHHDEhtjB2Doy9oS0PrYHO2s1H6DMicPOeexjH1vXZ0XdvFtXLtvH+n3PZ51GrGlHNrWrvyN1Eq9pEFz+MUm8lo/hmrmCHQJFiORwWzzZilznXUsa3G1uc5v65PL2t6V8pqCEqz3Mr+81EenhgbnOda4zXJQ6bRmR/hBenfbd4lc5yV/5ylfreqwvf/n4Sr7aayM5Jg2h9913373bcccdF/XMLeUzOJUbr6gTpasOCKf2S1GQptgKRa8O97nPfarn0Bq0fOZXi1B+3tYIzEWm5PufXNJq5rynPkc/n3sXbUKqxtfWdbZXQZ4QrHES5GouEjYXKaMbvBCw05xm7jEYfk9JBFYTAeuinv3sZw/T6pWNVIgOIRi2mmfQr7ZMS7zMw1LuOJfZA7ElftSX/fOwhz2sOj7iu0nvnMjS7myyIfXO0oIQjtRDDjmkElL4IH2rTbxsioFc2uafU70V6aEczeHobX8b91kb2C3aJWrYShKvFo3ZfU7iNTtsV/3KFFAMUM/yaiV2AKRYPRhwuWI3QNvIe7cpRSsInp2RRL7iWRLt70v9rG2iXNZhiexRlNaFSQtst0VFdu5yl7vUvGyKZKW2xrUhhzpIRVQH5SOfyvd9KxShRblyxCnHlERgtREIgiU1MIiV7+J7777f8l0bvdp+SdVK3qe5lMMtEa45IjYXDQtStiVihqDNkbSIlq1kXfJaiQAEOEul1jG+N2/eXEHR75AvjtnHPOYxdWdA8+hSxcYVIkde/awUjknOSOmNytTXyWKIl6idTBubc/WzThCvhz/84VNXHZEK4mWXw3HES33N86tNvKQ+IksIcd+u27RpU93JkL0h6jWNaIN773pJvKZBbOWPSeK18phusysaoJScB//xCIVBpULytz3zas8996ykiKINhbfYCrsu0kUJIECiQCGuaXMJ29XaVj48Z3NG3n9rneLYeI+6eJ9WrLvyMEALbEXcpAiGUOpSHK31sliYclJ+ePTjuHhfSvnOjd2BlN+PfEnnvP3tb1/TOu1ymJIIrAYC+jmZ6+9zkduTTvpPjWzNbQ6zhWitRn2yjPEIBLmK6NdpT7tDjYjtsEMQMPoQSRt/jfwlEVgsAuZMz3L63Oc+V3cUbs83b8kWsR27bdmXKpzA0vURBmn6rdjIw5xsBz5kJub9aYkX5+uRRx7Zve9976uO177TcyUjXlINERQpmNsq4sWu00b16Ee84BgRr3vc4x4tzGM/uycI61Of+tQkXmNRmu0PSbxmi++qXj1S4+TuUkxC8kFIKA053Lwi8ZyOpXi0RJZEfqQr2N6UQohQP++VnQRt52qBLqXgf94vueTSAijjVpAki2CF9CftQNSe4zNljvQhPwggZRxCsUtz3G233WrkS8RJvUWm+tunxqLieCCyNkwryuchowxtSduKiWvXEvmzrm7Ss0Tac/JzIrAUBHAtRCuIVTgYRLN83uJ02BLRWko5ec7KIxDky7sUxNYJhJDtsEOkJ26JhK18LfKK2xMC8ewqxKU/b1kjLepl7rzpTW+6ZFhs9/6Od7xjZDYIQrfPPvvUbBCpt/o+mZZ4IQ7WWInWyLZp537XQVDYOGwPa9cWEiTEHM6Bak6PCJ3IHBvG9axZZxus1BovUTPYS5e0UUgrHNbqjwTLGIKPOtld0TO4WpHN41miHOqeWzaN2KhMphD77eijj553SqYazoNjZv8k8ZoZtNvuwpQIj5bnY0mJa4VSvfe9793tvPPOdcDGxN8eM+kzooXAWNxqW9pWKDrbqIsyCfUjM0S6AcL1wQ9+cCsPm2N4lTzgmcKZVigiCljaBM+NBaMh6uFBgiYOXiBpluogLdD2s60gfXY/tEDVQxIR1GmFEv72t7/dPe1pT6tta8+74hWvWNuE6Iq8pSQCK40AQhWRLQTr3/8+qZKv/zTrtla6zJW+3pzNNWd4rfS1x10PZmtd6GXEi/EXkTD/byFmq4vZWscr6zc9ApyPNqWwoQTyFXrEFThAkS+pa4x5xGUxzkjOX3Oz69rkAsGwWzHRp09/+tN31oDbKdAc3cq0xIvT9a1vfWslXscdd9xWuxra/e++971v3Zlx3DOtlDunO0+ua7Zf+MIX1gcyt8sWOIWRmieWbdw5kwk7Zlyq4SVKRpElDkgrAsMOGSfsBksV2CP9dL8+8YKZukoB9bwxDjb6nnCms6FsrKHd09hz7ELkm8O6T7yTeI27Yyv7fRKvlcVzTVzNMy68DGqDrBVrjqy9uutd71pTAherWHlKKArXpzhaobQpnVve8pZ1fVUoPaSHQkPU+udIRdyxbICBIElRnFbkYSNbvGqewWFjkZBxxIuXrE8WKS7EC0mjNBcTBZTuaKMN1/Qwx1bsInn961+/pih4kGNKIrCSCJiIESyTcKQSRqRrzpCaMyxWssyVuNacYRBXmkuj810r842H+b+1x43/vCXdEhZ9mcMnjlmbOKkzHBCtud0QEbHTFCPY5j07VEIGtj52/bbm/4lAHwHEBYGQkmdOlA1CjxCOR8+Fshb8fve7X10q4HlW0wqSZZdAxIthb46W8ULYGps2baqRHFuf9x2t0xIvGTbsDzvysXFsKNbKXnvtVevPzuEIHidIokwcKZeIYGysEaSGQxgJVS92DZlEvBzPhvE4GTYQ22KcKItz/Nhjj63lt8eNI14czNbmcTjLOiIcM4iZaBeCCGPfjRO6D2ac4KJdCGArSbxaNGb3OYnX7LDdZle23sjDgKUbivJQfKFMKFXPfkC8PN2dIpTiZ7BGrnW/4hSUgY7cuJ7QuO1IPQ+CmPydj9RRekLkIj4RPZKjjHjZwtbaMEQsFL2ykS+7AArnT/PgY/WRXmBnQQr+da973bzNLXiqpPeJNFlnRSGaXA4//PC6M5DyI53A878QRgqT1wgJhNEkCQOXt83T3+EhtaIVW9kr34MX83leLTL5eTkI2ChD/zMGTjoJ8Tqpvvt/FMlYTln9c8swL4Is1Q/lPY6YI1B+q0cMj4vf53RE/Bbnz/3v4Dh/7vi53+d/N/fL4v62BKs9M3Sh7+aOmfu1xa/9HMfNvde/5bz2fXXIG/08R7xOWwys056yM+LcWt0WUzVLSQTGIcAeMCd7jpO584QTTthqHZY0eZkrHIg77bRTJRHS8scJ/YPQsQk8W+uYY46pTtZY6uA8SwBi7bW5ftOmTfMuNy3x4nQVsePsRBxF8JQfou4emyO7R2ZPRInj93hnE2wum4vYIEwkSZphK9Zmm7ttRmY+J0hPZPw4pxW2C7KHdHEkh13VHqNMxFGZsoY4xsOOiuPGES/2i92qEdvW0ew80Un4sXUi0yiuF+9zTrqTarlvectbKumyUVgrSbxaNGb3OYnX7LDdZlemmERjrPWyAYWBbsATaQNIEmVKSVCA8bwr3pK+MECQFMqBp4SHRpiakg3ywhMruuV6FuZaX3WBC1xg6Hlh6PB8veAFL6g5zXKM4/kh6qJca6EQQQN/0oOPoz48NZQu4tPmZau/qJVUCaRH1EketDrYuYiyVH4oLnVXvlRHXj7lW581SWBp4rKz0pve9Ka6uUg/z1wEzfUobimMKYnAchHQ90W5pBT+85//Ln3aVvCrs26LYe8V6W7aEt/NrU0KAjV3nO8QqojWlFMbmfdP/X7+73Ho1sfFL9O9j4p29c/ccgwyBePAtPxXD47/6ZD297nv53/Xv/pK/7/lHpymeLrnCBgyNs5pttLl5/XWPwJzffjkmrkiaiQLxTqnVsIhag5FYpCB2CirPS4+szk8XoUzUjTK9cyxEe1yHGLiMTMe84IQ2VyjlWmJFwJhyQOCZ1t867zYItpFRLlEqh74wAfWuosImef7wgZhz6ivzBkkrBVOW3XlxI2NRhBJSwxe/vKX1yUG7fHK0UaY7b///t2OO+5Y7aL2GHYTsiXihESxi8KOiuPGES/rwTiakTbkq5Ub3OAGlWiyO/opnHGc9opIssMQbnVx31pJ4tWiMbvPSbxmh+02vTLF9KY3vbkM8A/U6JcQeesVR04874oHCjHw2XfC4zGJUzJIm8H640K85ANTqEL7rUIVNaJId9nlRiW17o418iXdL64DCINcZAh5ozApnFYoStcw8JFCdeFhozAZG4SSUCdeGsqLwqSAXDs8XpQf0kfBU4CicBHBcrzw/mc/+9mtUjCtA+PhQrrsEhRYKD/agXCpAyytnaMEET/RQESMILbqENvJU74iaimJwHIQsFGGPo50ec1FsbeQhuVcOwjU3PsWQhXfu3YQKGOh/d7n+M1nEr/7Nz7XH9bBH8bbltdchbf83/62ZX3d3O8RPZv73plxXhC3+H+5MASmcymHO9ToF70T92G518/ztw8EZMb8//bOZVeWJj3LtY57rb/FwAyQmNiNhBl0I9kTkEw3EniGGGEGPTEyDPoy+hJ63pfQN2AmxmBGtNQI4ZEZdstMmPvf/zpv8slvfyuicmVVZWWdsqqe0M4dmXHOJ2plxptfZCQzNRAA3JO51+d9nd8TDyS5J2L14j7KPTLvy8STlvse92QePPIaQm4cc7/kN4/j4WcuqoE4wCqTM2KS9lDhRZmUzTR/rHaMS3iYShiOsQfjGR7mMvuGb5giiLgv5zUKUfibRmgx3Y5zp92MI3A8DCYtn4PhHW3u4TndkvPlfs979ExPZDyQwolrI8x4AI1o43y591MW4wj4MnaCOTOS2GCXY5e28ua/PuFFHDN8GLsgmpgeiQBNviwgxnkyc4eHzbSXh+G0hzaz5D4P43k/LT8DBK9u3Qqv7IXd+gqv3fI9WOn8sSGWmBrIRYKLFBeInGbDRYKLAX+YPHnixVA2LjKE4cjPxQmhw1MeLhyUyx9r/sGTjovan/7pf2gsVv+mvUjztCwvcMTjuEBx4eDpGisiMj2gdlzsuGByseICwmIXlIP4yrIQa5j5ecLFRw+5mNCePCfK48bAefC0i7nWXIByigQMuHAhvrrvmiULbi60AfGH5Y283GRwnD8suEjTBurnwgmL5IEIpQ3Mj2cVIspl00lgLAF+W8/PL81vHUvXx7+/seWSj7+tuBbwLhHXhHk/BvMhtthf7lJ4LU91jLH5972o7V/Hl+21CJFMeq5LWCixTIZwLqtMLipnnfDou4vmGvWpGdzxbgfiiyXodRJYTYCBO/ezX/ziF+3MGO733M/S8fvivoxA4j7KNDbuy4gm7otYULgH8jkZ7ss5RoiHQvE3kGUx84MHs3/yJ/+uFXP8TvO+nmmGCi/S8/dFe3mYm+IpZ9FQLmMYHsAiGlkKHjHDfTnvxYgtNqxHCNBsM2XzqgJpuX//p+YViHioEX9X1MvGGObnP/95y6+e7ULdCB7qznEMZSG+4MS4h3EI3GCA+EnhRt24RcKLvkE4Ifh46MsrEymcOC/6itlLzN5B/P3jZkVE6mZ6JDOEEGuIVPqcMM6j6xReXSK7OVZ47YbrwUvlD5I/VATKX/7lf21N6r/61f9orVdccGvHRQHxhYDCz4sTVjOeAiE4EE7kq0UOZXCRwErEfGr+4Hmy1X2SRToubFiKeNrDlD+mK3KxzqdUpOECR/1c5CkHIUZYXqA5Hy5YPDWibX3t4cLx4x//y2aKwL9tLz60JYUT9TOfnfqZgonVKldcon4cF03aQP3wqC+6XCBpAxcuyqH+LktEHzcZnraxWIdOApsQ4Ob49valuck+tMKr7zc/pPwc6OAjoNLnb6vElWmChNcbdeTf4ZD6zjVN9hd+blwz63CO6dMICzHGcffaOoQhfYLg4p0vBBjTDu2nIeRMAwHECoNxZm4w7ZCBPfe4HNCThusD91Fmw3Bf5F0tBvk89GTwz72Y+zJjBO7ztePhKdYnVgVkgQrECMd9bh3hRX7q5SEoM1kQYNyTaTsu20x7mdGDzzkQjuOBMhYgfEQIjnEP93usfMwEYpohfp9D7PGeFFMraUPtYMMDWMYxadmjXNqLSMPaxjgDFjxMRvjVbpHwyjEUq1Eyc4hZP2mly/xY2BDI+IxfaAcWOsY+jLc4X8QYwrlv/KPwSpK79RVeu+V78NK5GPIHxpxi3kniYsPFNm/66zYwB2N5kfrJT37SXlQRX5i7Vznq52nNX/zFf2ku9v+9FT71RX5V/r542pTt+bM/+4/Nu1X/vn0yt2hOOhYvvv/FEyCemlE/PMY66ueCzsUVMz/L9TNdkQuoTgKbEGBAjtXk228/NwOdMnVnaJnl7zWsWfxGGZzz9xLWLQbqQ0sz3TYIYP1CZNGvXHuwZuLHdYgaEGXDa6KPEV/f+943jQDT6jWcnCn5HfJAESsM4wOEBAN0wvg9jnF5P+Qa88Mf8lmVf9a+75wrAy4qc13hRfsQfnx/i7YjRJhyGA82Yrn1RXV1w2kzYgRrFwuP/fSnP126oiMWJN5p++Uvfznjg9S0ZciDE8YJweWHrRDN973q9iwSXqRh7MYsJmbsMGVwnfELdbPxgJyxGrN/yF87hVdNY3f7Cq/dsZ1EyTwh54kHJm7mFHOxwOfpEFMD1nVcmHiK9YMf/LCxKP1h+3SIJ0qEEbfK8USKpy6//vX/bKcI/PVf/+92hcRV+RbFM6UAy1h+N4uXTBGBWK0I73NYAf/mb/7P7K/+6r+14osVGrtPjvry9YVxIaMenjBxQfujP/oXjcXtR+1FmzboJLAJAQblT0/PzQDj8cPT5L5yY9CT0wdDXHGjn7dylamDpNftlwAPeeLBV/rzVi8GcCHGwjKGEFvlENP1lEP7dRUx4yHA7xDRgCUmxMT/asYHv26tONwX13XcD7H4YHVBQHBP5GEk0/aXLe1OPesKL9rO+IYpfCzPzriGmTSML5iVMtTxMIp7OK8X8E4YM1ZoM9aivtk7lMt4ASsSC15gKYTVsjr5e4QLlrc/+IM/bKYBBg9EFAt71G6Z8MLqRT1Y2f78z/9zM375VVt3d7piXV7uY2n8/ve/P/tXzaqPCC9WVURo107hVdPY3b7Ca3dsJ1UyT4aYVscfGsuwcqFgWgHTBZjuly9axoAgpsbE0/Hrd2sSUxL542XuMNP5/viP/3V7IRkjMBA/XHRYVYhpDnU7uLjkDYFBCPu4eEof0wG4iNEeFs5A9HExYTEN3tFifvUql0+OaAP185SPemkHW3Kon57lE6PkQv3ffPO9ZjoBQvQHbf3MKacN+Z7cqnYYL4FlBHinixUMEV+rnkCnuOLvhIF4WrfY58bvYHwZ6cPGcb3Jaw6WsKcnvs8WnwGJa9By8cW1iemGvOuFAOO3oJPAugTWuS9TdgoKrjXc8xAqTKNDPPzoRz9u3jn65+3sjyHt+NnPfta+b1an5V7K+0q8ysAKzH0uxzY8VOa9LXxWOs5xDeKsnqLcBeFYAAAufElEQVTdbTNTJxFEiC0WxeJ1AY6HuBzD8K4YYyoEEPVSHy7rgg1T/PggM5+ZYRxFGsZiXeHFFEQ+AE17/lH1zn3dHqYoZt2MX3iInq+D1Oda9wsPp3kojbDk/PiOG1Mma8dMHVax5Nuj7Ot2Q0DhtRuukyuVQRs38pxjzFMhpv0hONh4ipKLZ+QFiznCXCzSysVTEi5KPL3iwsEfL+b5MSID4cPFIudZMx2SNvzmN79tniT9v/bixYUECxkDDxwXSOaZ0y7qpz2/22y/97u/11iY/mEbxpMr2rTKcXGifurE3P63f/t/231Y/Pa3v2nr5yJK/QgxHEILFghN2sDTI24MbDzNo03w4kkZAyGdBDYlwLtdCC/+dpmitshxg2d5cR5IMO0sHhJ8fE9rUX7DD08gHzAxvTQf+GD5SqtnXgf7Wkp/0++ILoVXHyHDhhBY577MAx7u/dwLeZ+J+x/3QsQCPlP9CR/6YJbPw2A9qh35KY8l0rHG9Lkc2+Q7VFjueG+KsQXjCt7h4qEz9/JFbUYQMa5hfMM9fsgYgrYwhsj3tKiTmUXMJqLOeBgCH95Z/wftypAs3MWDa9pBGt55Z8pf7eCGOMMCxztiXNO7jrEJdfO+O+MXzplpi5QJB84VR98wTvr93/8nzRL7/7RdOZoxFPcTpiryPbTawYAZTGy0U7cbAgqv3XCdfKkIMEzlv2kEGPOiuUDVwguxwUXvd37n7zdi5++1+wgNBAYXhr6LwZiTRlxRL/VzweJiSbuoP4VXPunngsjTNC4mWLW20R4uQFykuIjRhhSCiM8UXvi4nAPOjQQ2XNDY4JFL1o9hYB4JLCIQwotphrwHtEp43b6LL97fQoyx6Y6LAAb+L1/4fMBb8wAoPh+AP0R4YfG6v7/T4nVcXT651g65LyMseBjJvZAN4cUUQ4QSDyCJW+f6w1RBBETteJDK/T4FXR23aJ/7OIKEsQ37jHVSeG27zbSBh7jUwfgF8UWdCCDOHWEKGwQUlizGT4xjGN+Qhge9tLN2ufAGD7ZJi0hb5HKMQr0IL9pRC68cpyD46Bc26mbMxXRF2lw70jOeYWMmkW43BBReu+E6+VIRHGz84fKHyIbA4eaeU14QV5iq+cNnH+HBxXTdC+oyGNTJhtChDbSHduUTX+LySTDtoD1pPt9Geyg760+xRRuSAXE54OGinW1IHrSBiytt0klg2wSGCy9W8uLvNFa4w+e3ypSzdQY/226/5a1HIERXfD6A6yCCK6YOxVTERaVxbaLPFV6LCBm+DgHue3lfXHRfprz43YWlnfsgYwPuidwPiVvH8QAUwVe7HHtkuXXcov16LEHb+fth43xw22wz5TFWiL/V+M5n1kkc117GCrBhGiZsOCfGFORJtqRNBzvSkoe0y67flMN5wY13+SmzPlfqhh2zcKibLfOQnvprl+mpm33dbggovHbD1VIlIAEJbExgqPCiIm7QOQDH4sU+fli/OA4RRrplN/ONG20Bgwggslg4g4FQmV4YAisGi69fB1GLLZ1ZUfa7wiuJ6EtAAhKYJgGF1zT7xVZJQAISaL/f9fCweqphjaoWVbHIRliKeXrKcT5FbfSX7oAE0qqOyIp3ucLKwBRD4nDpr2qmwmsVIeMlIAEJTIOAwmsa/WArJCABCXwgsI7F60PmJgArF4Py+S3D0gIW1jAtYn0ENwvDmoV4yq1r2QprV7zPVVu+1q1V4bUuMdNLQAISOAwBhddhuFurBCQggZUENhVefRVgEcupiAzYsYDFlMT0Y2GOvrzNhMZmmmJ/zDmG5nTBvnNHbCGmsGC9vWHNYj++PcSS8SnG+vKuG6bwWpeY6SUgAQkchoDC6zDcrVUCEpDASgK7EF5Umu954XctXXVYN657nGUx8D9Vl+IqfaxWiCbezwpxhR/TAsPChZUrjlNczaeLd7qijO1QU3hth6OlSEACEtg1AYXXrglbvgQkIIGRBHYlvFY1J8RXWZCDgT2iK7eLi7JcfYQhvMIUNm8RmzePzcfVrdi9JS2EE3XG+1NZewl/D2l3MjzEE0EptBBOLHiBRatspMjV4EoeQnfvFF67Z2wNEpCABLZBQOG1DYqWIQEJSGAHBA4lvDiVsIq1e1+nF4Y4IjziIy72MyzeG0OMZXgkj/AIa/+fm7JI+iy3zfj+33yd78E9OyF25kVVJpsXUWGhIi6tTuEXy1WWRb75NOU480fZUW+dL+veh6/w2gdl65CABCSwOQGF1+YMLUECEpDATggMEV5dwZJCYScNWlFoiLWwjJE02xb+vIgq1i/Sl7SlikiPJa2kLbHdvRQ93XCO54VXEU/JKvzlwquv3F2HJb+sJ9ubx+krvJKEvgQkIIFpE1B4Tbt/bJ0EJHDGBIYIr5wGmNaZmAZ3WGhdwZCtSetXHqe/XFjNT1fMPB/9fmtXnS4FWAlLS1UJib1iFevG7POYhU+wBqaoZIGOPqfw6qNimAQkIIHpEVB4Ta9PbJEEJCCBlsAQ4ZXf5mJlQqxDCK/YEA9sZbEHsU6TAEI1t5x2iZiKj19ftB9SZiVE3iH7KB75bMDl7ObmeuYHlKfZv7ZKAhKQQBJQeCUJfQlIQAITIzBEeDHgvrm5md3ff2qXhkd05Ud5Y7GHXNK831oysVM+y+akyKo/ch37l+0CHnxE++npqfnQcixD34Wk8OoS8VgCEpDANAkovKbZL7ZKAhKQwGyo8Lq9RXjdza6vr1sLF6vtIbpi6fNiAcul0BFnWMPqY3HvlkBasrBsIZTCj32OiQ8/V5MMn+mFDw8Ps8fH50Z4vbT91m2pwqtLxGMJSEAC0ySg8Jpmv9gqCUhAAmsLL6xffS6FVnzEFwtYTFvjmDj8jws3TOM9p77zmXIYgqrrUmzFh6oRVDGNMC1cHPfloxymGCq8ukQ9loAEJHCcBBRex9lvtloCEjgDAutavBYJrxRVaeGKd7/yHbD8FlWIr4wjbQq2eK+opDsD9CtPEaEUW6zIyLfNaqtWiq2PYbFKY+ZHdOE47nMKrz4qhklAAhI4TgIKr+PsN1stAQmcAYFtCa8hqGrLV4ouwor4KsIrhVxZ6KGsKFjCqHVR+HyLsrz50O0eha7pFzdZU1+aoocib6YpgioWt0B4YdHKcPzLS1YljLCsY11f4bUuMdNLQAISmC4Bhdd0+8aWSUACZ05gn8IrLF0AzymG4RdRNH+MwIo8xXIWYWk5+/i9rLS4zXdryV+Hp4Ar9dexi/fTCjWfoliZCA/rUoSxEmSEpeVqPp60IaZiOmCWnwKslFfyUybx8/W01az9n8JrbWRmkIAEJDBZAgqvyXaNDZOABM6dwD6F1xjWKaSKAENspfAKoZZCrhZl3booh3S1S2FXhw3ZT2HUTRvhKbLwU3hFysxX0hXx1Ce8uuXv6ljhtSuylisBCUhg/wQUXvtnbo0SkIAEBhGYuvDiJLoWqbBUfRRRccLz4QkhrVt5XPz+9CW+by/EVW/Mh6j5gLBi1Tk/irM6dh/7Cq99ULYOCUhAAvshoPDaD2drkYAEJLA2gWMQXmuflBnWIqDwWguXiSUgAQlMmoDCa9LdY+MkIIFzJqDwOufej3NXePkbkIAEJHA6BBRep9OXnokEJHBiBBReJ9ahI05H4TUCmlkkIAEJTJSAwmuiHWOzJCABCSi8/A0ovPwNSEACEjgdAgqv0+lLz0QCEjgxAgqvE+vQEaej8BoBzSwSkIAEJkpA4TXRjrFZEpCABBRe/gYUXv4GJCABCZwOAYXX6fSlZyIBCZwYAYXXiXXoiNNReI2AZhYJSEACEyWg8Jpox9gsCUhAAgovfwMKL38DEpCABE6HgMLrdPrSM5GABE6MgMLrxDp0xOkovEZAM4sEJCCBiRJQeE20Y2yWBCQggaHC6+bmZvbNN59m+LrTIoDw4nfw+Pg8e3l5mX358uXDCV5eXjZ9fz379Ol2dn9/N7u8vPiQxgAJSEACEjg8AYXX4fvAFkhAAhLoJTBEeF1fX81ub2/aATe+7rQIILw+f36YPT0pvE6rZz0bCUjgHAkovM6x1z1nCUjgKAgMEV5YO66uLmd3d59aAXZ1ddVaPC4utHocRSf3NBKrFhui6/n5pbF2PbX+29tbT+pZ099avHrBGCgBCUhgYgQUXhPrEJsjAQlIIAkMEV6kRWQx1Yyphkw3wwoW080umrgsTf8YCCC43t7Y3lrBhaUL8bVIdHFOCq9j6FnbKAEJSKC5XzcX+Y8TxiUjAQlIQAIHJzBUeNHQtHzhI7zYsH5hDSOMTTdNAiG23mavr6+NlSv91+b4rRFcr60QW3arpm99x2uafWurJCABCdQEFF41DfclIAEJTIjAOsKrbnYOxBFfDMhTgDXP2r5awMJ3OmJNbT/7CKh43Fl8BFaILqYWIr5e2uOhLcr+dnGNocRMJwEJSOAwBBReh+FurRKQgARWEhgrvBBUbEw3xA+rV0w/TBGWYZF2ZVNMsCGBFFsILDamEyK4eI+LaYRfvmDdine70h9apcJrKCnTSUACEjgsAYXXYflbuwQkIIGFBMYKr26BIcJiuiGCKzaEGGEh0OatYbVFLPa7ZXo8TyCFVdeiFcchqEjz+hrWrK7wmi9tvSOF13q8TC0BCUjgUAQUXocib70SkIAEVhDYlvCiGsRX+rEbgirEVwiwsI7le2EIMsKv2rxfs7dl+N88AQQVAistV/FuVhznNMKIK9MLMw/5NnUKr00Jml8CEpDAfggovPbD2VokIAEJrE1gm8JrUeVhDYspibVlLC1hFxeX78KLeDZc7HcFXYnL+jJ9Hk/Zr0VQWqqyvXEcAouwjK/D2U+BhUWL/fQzfZa3TV/htU2aliUBCUhgdwQUXrtja8kSkIAENiKwD+HVbWCfUMqweC8shFgIszJVkcF/iLEi4urjbj1TPE7RlCKpvGsV72PlcYqpEFa8n1UE2fx5pYVrPnTbRwqvbRO1PAlIQAK7IaDw2g1XS5WABCSwMYFDCK9ljS7iKlLFcVq/5q1hWU6KL47rKY7NUZtkfgojZbQp27ht/IeIamRRW1SZ1ZeCKP0inCJ9bdEiK+kibfERXCWsreBA/ym8DgTeaiUgAQmsSUDhtSYwk0tAAhLYF4EhwiutUdmmFA55PBU/BNhQkRaibBttZ7XAZFL7IZqmIZz6zrNPgGb7u+kVXl0iHktAAhKYJgGF1zT7xVZJQAISmA0RXrE8PB9M5gPJF+1S5bG4Q1pkNl+8YVtdkSKxT1QUy9f2RFe0O8TV/DmUsEViZj79/o5glKtO4pc+jWXoi9WutEnhVVi4JwEJSGDKBBReU+4d2yYBCZw1gSHCiw8k39zczG5vb9ql4fkAb/lWFIs7dN9BKqLjrOFO4OSLEI0plnF80X70mn7lA9i4x8en5sPKL+3WJxQVXhPoTJsgAQlIYAABhdcASCaRgAQkcAgCQ4UXouvu7lM7UM8FIBigh+Xrtf1Ib3yoF9FVPtR7iHOyziCAyGKBEsRVWi0RUGXRktinDx8eHmdPT88KL388EpCABI6cgMLryDvQ5ktAAqdLYB3hdX9/11pKahq56h6iqxZeDOYRZmUri0mQv8+qUpfr/moCCKuYPlmsWWnRavRVuwIkQgvRleIrRRelR9pZ228PDw+N1UvhtZq6KSQgAQlMm4DCa9r9Y+skIIEzJrCp8AJdLa5idT7C3hprWPnA79sb0xMJy6mJIcrOGP3Gp56iKsQU1q34MHV3SX7e4UKgpdBKPxuAYFZ4JQ19CUhAAsdNQOF13P1n6yUggRMmsA3h1YcnxRjiK6YehuDK71NFfBFtlJF5YnGHtJa1MU1c7bN/Wg4x1LVecYYRTtzHeMIQWfEB6lkjvJg6mFvkGUJJ4TWEkmkkIAEJHAcBhddx9JOtlIAEzpDAroRXjTJF03xYCKtaiMW0xbCS5X6KsVjAg7jprKBYn88m+wgorFYpslI8IcTCqpViqnxYOtN26yV8XafwWpeY6SUgAQlMl4DCa7p9Y8skIIEzJ7AP4bUIcYoqhFnZT0sXPjnzuKRpQ5vIEh81UMbXvTauHGc8fuaLsG38j9apBU/u1xqoCKW0XFFz7EdcHhcBluVm3uLP17fpOSi8NiVofglIQALTIaDwmk5f2BIJSEACcwQOKbzmGrLGQYq0XF0xxVSG45e4UnCGl5Dt7CGIsFilqwVShhUrVggrwrv5Mu2+fYQXvwNXNdw3eeuTgAQksH0CCq/tM7VECUhAAlshcIzCixMPkdXutRzejV3vFq2Pli3y7MohomrXdxxJaovXdi1Xdf3r7Cu81qFlWglIQALTJqDwmnb/2DoJSOCMCRyr8DrjLtv6qSu8to7UAiUgAQkcjIDC62DorVgCEpDAcgIKr+V8ziFW4XUOvew5SkAC50JA4XUuPe15SkACR0dA4XV0Xbb1Biu8to7UAiUgAQkcjIDC62DorVgCEpDAcgIKr+V8ziFW4XUOvew5SkAC50JA4XUuPe15SkACR0dA4XV0Xbb1Biu8to7UAiUgAQkcjIDC62DorVgCEpDAcgIKr+V8ziFW4XUOvew5SkAC50JA4XUuPe15SkACR0dA4XV0Xbb1Biu8to7UAiUgAQkcjIDC62DorVgCEpDAcgJDhdfNzc3s/v5udnt7vbxAY4+OQBFeT7Pn59f2G2ndk+AD0Dc317NPn27b30H9wehuWo8lIAEJSOBwBBReh2NvzRKQgASWEhgivK6urmbX19ezb765awbeN7Pux4GXVmDkpAnwUenn55fZ588Ps6en59nr62tvexVevVgMlIAEJDA5AgqvyXWJDZKABCQQBIYIL4QW4uv+/lNj8bqdYe1gI1wRdpy/JATX2xvbWyu8+B1g+eK4zym8+qgYJgEJSGB6BBRe0+sTWyQBCUigJTBEeJEwxdf1Ndavq3baGdMPU4CJ8zgINHqrcWHlenl5aUUX0wuxdC0SXeRQeEFBJwEJSGD6BBRe0+8jWygBCZwpgaHCK/EgwGrhdXV12Q7K0/oV7/5gCcsc+ockgGUrrVu1//z83Fi4EF4hula1UeG1ipDxEpCABKZBQOE1jX6wFRKQgAQ+EFhXeFFAiqywgl220xDDEnbdijIG6ZHmQ3UG7JFACi3e4cKihdB6fX1r91OQYQFjf5VTeK0iZLwEJCCBaRBQeE2jH2yFBCQggQ8ExgivupB43yvEV1q/GKTHFu+A5XTEWrDVZbg/nkARUGHZSrGVPtMHEV0puPK9rnVrVHitS8z0EpCABA5DQOF1GO7WKgEJSGAlgU2FV1YQUwtjfmFtCUOMsTBH+rUgy7z64wik6ApxNS+wUmwhtMIhzMbVQy6F13h25pSABCSwTwIKr33Sti4JSEACaxDYlvDqVhlWLixfrIAYUw8zDJFW9ssKiZQR4WXFRETcubkUVOlz/gioPMbPY0RXhqc1q45nfxtO4bUNipYhAQlIYPcEFF67Z2wNEpCABEYR2JXwWtaYnHKYUxPTT0tZEWsh3NYRX+ukXdbGbccNFUDopC9f3toVBkNAsR/LvjNdMMNi6fcQY9tua195Cq8+KoZJQAISmB4Bhdf0+sQWSUACEmgJHEJ4UXGKLwxaud/sNfvlOIxdaf2qw+fTlfIiTR7j41KMpR+h8/+XNsyH5xGCZ5l4yrj0yVfvp4UqwjNu3ooVoivD2pRtGXV4lluXR9iuncJr14QtXwISkMB2CCi8tsPRUiQgAQlsncBQ4VWLllpQbL1BPQWmGMspiyGSEFRl9UTCsJSly6mMeZx5mlwZNOdHfIi8uYj2oEzt+xgXITCpucQxFqqIT6EUx6QN8ZVTBUv8dqYGLmpnNzzF7dezeG9vN53Cq0vEYwlIQALTJKDwmma/2CoJSEACsyHCi0F3ihoEQ4qFfeJLgRA+NYfVK9pQ738NKQnbAITVKrcsTS2qFpXTTfPxOHOGuKpFWCPDFoqezLULn2meCFgcUxyZztjnFF59VAyTgAQkMD0CCq/p9YktkoAEJNASGCK8WJWQ73QxSMcxOE/xhbjAWnMo4dA2yP8GEUirXlgDY9GT6NOLpg/5zlf5xle3QIVXl4jHEpCABKZJQOE1zX6xVRKQgAQGWbxubq5nNzc3s0+fblsBhuiKD/IyWI8P8xIWAkyoUySA2Lq8REDnB6/zY9eIri+zh4fH2fPzc7O9Npavj9MdFV5T7FXbJAEJSOAjAYXXRyaGSEACEpgEgSEWL4TX7e3N7P7+rhFg1+3APMRX/e2orhUs3m9iEJ/bJE74xBvRZ9UiDOGUq0fiY8UkjDhENL+DpyeE14vC68R/I56eBCRw2gQUXqfdv56dBCRwxATGCK883XxHieOweMU7QmENC1FWh2c+/d0QCIF10YqqnB4aU0RDZOV7etRO2nRYLRVeSUNfAhKQwHETUHgdd//ZeglI4IQJbCK8aixp1YrV+fLbU2HtSvGFUMt0tR954ltVdZnuFwIIpRRWuR/HWK1CSNXvbrFgRkwvLN9CI32fU3j1UTFMAhKQwHESUHgdZ7/ZaglI4AwIbEt4LUOVIguBlVMUU4zVx7Gi3qrV/VbFL2vJ9OJCC/ULIlqb8UVEIaRi2mA9dTCnDS4SV8vOXOG1jI5xEpCABI6LgMLruPrL1kpAAmdEYB/CC5whvtIPS1gJj+MUaHXaTJNWsZImymr+J8m7Ja09eD/Oo/37aYXKmtNKVZbBjyXwMzymAc6HlTLC2pXHmaf4YfHieIxTeI2hZh4JSEAC0ySg8Jpmv9gqCUhAAoNXNawX19gltiKsUoyFqMIaVsfllMZcgC/iyjeoUqgNaWuWsSrtOrqmFkWUWz72HCIqwuKjz2HNQjSlwAqf8CyH9LtyCq9dkbVcCUhAAvsnoPDaP3NrlIAEJDCIwL4sXoMa8zURIipd7Ob0wvTT2pWphh1XxZaMzV4KurnAzsEqAZTWqDpb1wK16PhjXgRXlNTNU5e/rX2F17ZIWo4EJCCBwxNQeB2+D2yBBCQggV4CUxRevQ3dMDDEVV8hIeaK2Cuir6RebXn6KJ5K7qnvKbym3kO2TwISkMBwAgqv4axMKQEJSGCvBM5FeNVQP1q++sRWnSP3+9+hSutUpjo2X+F1bD1meyUgAQksJqDwWszGGAlIQAIHJXCOwuugwCdYucJrgp1ikyQgAQmMJKDwGgnObBKQgAR2TUDhtWvC0y9f4TX9PrKFEpCABIYSUHgNJWU6CUhAAnsmoPDaM/AJVqfwmmCn2CQJSEACIwkovEaCM5sEJCCBXRNQeO2a8PTLV3hNv49soQQkIIGhBBReQ0mZTgISkMCeCSi89gx8gtUpvCbYKTZJAhKQwEgCCq+R4MwmAQlIYNcEFF67Jjz98hVe0+8jWygBCUhgKAGF11BSppOABCSwZwJDhdfNzfXs/v5udnt7s+cWWt2uCSC8Pn9+mD09Pc9eXl7aD0p367y8vJzxG/j06bb9HVxe9i+t383nsQQkIAEJ7JeAwmu/vK1NAhKQwGACQ4TX1dXl7Poa4fWpGXzfzBiEXzQfrzr271cNhnSiCflo9Nvbl1ZsfffdYyu8Xl9fe89W4dWLxUAJSEACkyOg8Jpcl9ggCUhAAkFgiPBCYF1cXLbWLixebFdXV40A0+pxrL8jPiL99vY2e35+bgXX4+PT7PX1rdfaxTkqvI61p223BCRwbgQUXufW456vBCRwNASGCC9OBvGF2GJjylnsXzb+ZWUBU4hNteOxbqWF68uXt1Zkvby8tdYuphcy3ZD4RU7htYiM4RKQgASmRUDhNa3+sDUSkIAE3gkMFV6ZgSmGuBRgt7fXrQWMgTmbbpoEsG4xjRCBxRbvc4XYWia48mwUXklCXwISkMC0CSi8pt0/tk4CEjhjAusKr0SFAMPalZavFF7hRxz7IdR8Hyy57dpPyxY+UwcRXCG6Pu4TP9QpvIaSMp0EJCCBwxJQeB2Wv7VLQAISWEhgrPDqFpgi6/r6qlmIo0xHTCGWlrKSTzFWWIzb61qqQnTx7tbrnHXr+fnlqwBbPJVwVQsUXqsIGS8BCUhgGgQUXtPoB1shAQlI4AOBbQmvFFYsuMFCHPixjx/TEGsRRvpI4xTFD53SExCvX8V7WggsrFjhx8qEadlilcIQYJEmjiPtkle4emqcD1J4zfPwSAISkMBUCSi8ptoztksCEjh7AtsSXstAMmjPRTiKCCvCi+mKCLGvr499LWr+OIVd1tM9zvBj8hFI6ep9wkoUQorj9FNwYdVi+mCZUphTC7PMbfoKr23StCwJSEACuyOg8NodW0uWgAQksBGBfQivIqoQUymowo/jCGdwj/giLK1lzdG7ZSzjMg9xGbYRhD1mThHVSKl3yxSiCosVjviwXiHKijUr0qRQSxFW+xHXFXBtoVv4T+G1BYgWIQEJSGAPBBRee4BsFRKQgATGENiH8BrSrpx2SNoivGKVxIxLkTUvvFLIRb6si7TFzR28B0ea/rj3RAt3QvR8jE4BNB+Tgmix8Mp8RWxRQoow8mcZ8yXv50jhtR/O1iIBCUhgUwIKr00Jml8CEpDAjghMRXhxegiq2tXCaD6qiK1Mn2Ks+MREeeTlvbP5Mkp9dT1Z3iI/xU/6mS4EFdMAIySEUlk1MN+9yvT4kfZrhvfjNua9nEhX0nB8CKfwOgR165SABCSwPgGF1/rMzCEBCUhgLwSGCC8G3Wl1QsyUhRyKsNhLY5dUEuIKoZWiLP3IFKLuo7Drir0lVbxHpehKkZUREV4sV5mO+BBimfLwfkzljH6lNX5A+fB9YgskIAEJbIOAwmsbFC1DAhKQwA4IDBFeNzfXs9huWqsRy5PnVouLHTRvb0V2rWGLKu6KrUXpphyO2GTJfxY8oV85p+++e2yXoF/Ubi1ei8gYLgEJSGBaBBRe0+oPWyMBCUjgncBw4XUzu7u7bT+Y/PoaK+rh5xS6XFEPa1hYdw4/Pe79JM90J6ddprUyLJdh5cpVJklDP3777Xet1WsRKoXXIjKGS0ACEpgWAYXXtPrD1khAAhJ4JzBUeN3e3szu7+9aCwmZU1whtF5e2F6b7eXrEudFkL1X1K7iV47c2y6BsNiVqZQcI6oQTGHdCqslgostRRn99/T0PPu7v/vcWjEXtUrhtYiM4RKQgASmRUDhNa3+sDUSkIAE3gmMFV4UkO8t4aelKz/Yi1+Hvb2FGKvj3xvhzigCIaxCXKXIqq1bGV/HsZ8blSq8RqE3kwQkIIHJElB4TbZrbJgEJHDuBDYRXovYFWtYiC+mIca0RD74yz5Lo+eUxCylXp693ie+e5x5Ts+vLVfL9lM8YYnKaYOxjxDj/S0+Sl1WblxESuG1iIzhEpCABI6TgMLrOPvNVktAAmdAYBfCC2yIr/TZTTGWIopjBFmmQwCkNSziQpxlGRF3uu+NIaRwabEqwiotVDE9MOPxIw25yn6UU46JXeYUXsvoGCcBCUjg+AgovI6vz2yxBCRwJgR2JbxW4UNcFTEV+ym8ap9y5tNy3Ia2VaRwaw++pi37uYe/ymo2VNSV96jq0r/qpiaoxNdh/ftRQoosjlJYZVgRWIipsqx/EV1Rxtj/FV5jyZlPAhKQwDQJKLym2S+2SgISkECzjPjD7OHhsV1YAQtUn2PJ8e7iGn3p1g37KJooIQTQvLiaLzkFW05XbHM1GSgvthBrWT5lZfh8SSnGIt98XP9RCqJaYJESYRXiCoHEPgKs7OfxvJCKOkqZeYwfeSNk/jjKKjGb7Cm8NqFnXglIQALTI6Dwml6f2CIJSEACLYFDCq+xXZAiKvy0VNWii5LnxVTm+VhniC/iV7kUPOl304eAitBMU8L6hFiKtRRq3RJ3f6zw2j1ja5CABCSwTwIKr33Sti4JSEACaxA4RuG17PSKflotpJaVs504xFYRV9spc7ulKLy2y9PSJCABCRyagMLr0D1g/RKQgAQWEDg14bXgNA1eQEDhtQCMwRKQgASOlIDC60g7zmZLQAKnT0Dhdfp9vOwMFV7L6BgnAQlI4PgIKLyOr89ssQQkcCYEFF5n0tELTlPhtQCMwRKQgASOlIDC60g7zmZLQAKnT0Dhdfp9vOwMFV7L6BgnAQlI4PgIKLyOr89ssQQkcCYEFF5n0tELTlPhtQCMwRKQgASOlIDC60g7zmZLQAKnT0Dhdfp9vOwMFV7L6BgnAQlI4PgIKLyOr89ssQQkcCYEFF5n0tELTlPhtQCMwRKQgASOlIDC60g7zmZLQAKnT2CI8Lq+vprd3NzM7u8/zW5vb2b5ceDTp3PaZ8hHo19eXmdPT8+zz5+/a/cXnfHl5WXzG7ieffp02/wO7maXl/GNskXpDZeABCQggcMQUHgdhru1SkACElhJYIjwYtB9dXU1+9737tuBN8Kr+ac7cgIIr8fHp/ft9fVt4RkpvBaiMUICEpDApAgovCbVHTZGAhKQQCHw8PA4e3h4aq0er6+vJaLaC6F10Vq7rq+vZ9fXIcSwhGVcldzdCRNAbDG9EEsX2/PzS+Ozvc6IW+Suri5b0Y3Fi02r5yJShktAAhI4LAGF12H5W7sEJCCBhQRqiweD71UuLR9MPWQAzoC8TDvTEraK3yHia0GFuGZ7fHx+F9tvb4sFV7YXkc0UQ6aaMuVQ4ZVk9CUgAQlMi4DCa1r9YWskIAEJvBMIqwfv+Dy0A/H3iAU7DLgRWjn9MIRXWMDYZ0oi8Q7MFwDcQzCGK8TWly9vrXWLKYSxvbbHCC2OsXxFusXCiyml9Gm+44foou91EpCABCQwTQIKr2n2i62SgAQk0A68EV/ffvu5fddniPWjxhYC7LKZfsgUxKt2kJ5iLN4DSytY+jNFWQ1wg/2YGYjAopDi04cIKoRVWLje3qcUrt+/TDG9bS1dd3efWgvnBk02qwQkIAEJ7JiAwmvHgC1eAhKQwCYEGKB/991jK7x454fjoQ7LFgLr4uKyFVS1RQxRVqxj7JdjLWJDCfenQ2xh0UrLVfr0HeIKP61ZtRDrL60/lD7C2sVqlkwrzXf6+lMbKgEJSEACUyCg8JpCL9gGCUhAAgsIMEBHcD0/P7cLbWABW0d8dYtN8YUYWya8SIdoa2TbnF+LstxPv1vXqRyn1YrzoT/Cb/9vjjMsrFohqGZtH4XQKgKsK7ragkb8B2+EFlMM7+5u2/e6nGI4AqRZJCABCeyZgMJrz8CtTgISkMC6BBjMI7ienlhePBZeSAGwblmkT0EV+7H2fIbhM7BPC1jZL1axCEOQxXbKg/55YRXWqhBQZcpgbckq1izolimGX/Xau3AjdoxL5t98c9eKrnhvz/e6xrA0jwQkIIF9E1B47Zu49UlAAhIYQYDBPkuLp/ULIca2iQBb1IwQX2ERy/0itpi2GOItRUD6aR3juLi0mHUFX0nBXp2n3p9Ptfqo5lHvZ84UQBx34znOsOJnuhBRRVjFMekyLC1aWdc2fcRtLpCCz/TCXMFwE17bbKNlSUACEpDAcgIKr+V8jJWABCQwKQK5Ah7f9+I7Xzno30cjlw3wiYupiwitYoFBMBAXYi39It6y3VE28ZEmw8f4KaBSPNVlvL4yVTCmC/K6XKbJPMGTd7EyLq1WdSm5vywu02zuw4SphSwXn0vGJ9fNS7cECUhAAhLYFwGF175IW48EJCCBLRBAIGBZYUU8rF/4+d4XooxFHWqrzhaqHFQEwiosXrVwmhdSIa6iuNyPfFlFnTfD1vfj/ENc1bkJT6FFeIitkiLiEFMpqNIvafa1l2KLqYRp6apXpkx++2qP9UhAAhKQwOYEFF6bM7QECUhAAgcjEFMPY/ENBBhCDGEW7nDC4WBAjrTiFK40H1GF9bC2cCHAFFtH2rk2WwISkMBXAgovfwoSkIAEjpgAU+Py3SL2c+nynJIY8ZHmiE/zpJueFq30mUaY73TlPsJM4XXSPwNPTgISOAMCCq8z6GRPUQISOA8CMUWOaYjxcd5cgCOsYDkFMa1gXf88GB3qLBFNadUqfoRhzbq5YUphfug6hNeh2mq9EpCABCSwGwIKr91wtVQJSEACByGQ7yelCMOvrWJhEYvpiLU1jHS67RNIS1VYsK6+LkDCCoXx7lYIsli+P/czz/ZbY4kSkIAEJHBIAgqvQ9K3bglIQAJ7IJAiLBblYNphfIS5TFHE+lVvNCqPs4FhIVOgBY+u1SoWFsm4WFSEI8RU+VD1vPCKaYT10vuR3/8lIAEJSOA0CSi8TrNfPSsJSEACHwikaAqRldEhqPL9MOJCkBWrWKQvlrMsJ0s4Rz/FVHkHKwQWQot3tVJUsbR+WLKgND/dkHCdBCQgAQmcDwGF1/n0tWcqAQlIYCEBxFYuRR/iKxbkSNGFBSwEGVMSF1vDUpTFzMWYvsh+hpcGhOArx31p6tj19/uETR2G7qmPu8KIGonPNLHfhjZhs1ZcEYYIy3Tpd8PWb705JCABCUjg1AgovE6tRz0fCUhAAlsgUAunbnEhzFJ8Fb9+l4w8IdrCJy5dCa/DMv123jVLQZR1po8lijhcpCkfe848+LGFuMo8dXyWN++nRWs+1CMJSEACEpAABBRe/g4kIAEJSGAtAmm9SgFF5ggLq1g5Jrw9mrN4lTDi0n20gGXMWB+h1HUpqCK8WLM4JnnmqX2sV03MXHzk938JSEACEpDAcAIKr+GsTCkBCUhAAhKQgAQkIAEJSGAUAYXXKGxmkoAEJCABCUhAAhKQgAQkMJyAwms4K1NKQAISkIAEJCABCUhAAhIYRUDhNQqbmSQgAQlIQAISkIAEJCABCQwnoPAazsqUEpCABCQgAQlIQAISkIAERhFQeI3CZiYJSEACEpCABCQgAQlIQALDCSi8hrMypQQkIAEJSEACEpCABCQggVEEFF6jsJlJAhKQgAQkIAEJSEACEpDAcAIKr+GsTCkBCUhAAhKQgAQkIAEJSGAUAYXXKGxmkoAEJCABCUhAAhKQgAQkMJyAwms4K1NKQAISkIAEJCABCUhAAhIYRUDhNQqbmSQgAQlIQAISkIAEJCABCQwnoPAazsqUEpCABCQgAQlIQAISkIAERhFQeI3CZiYJSEACEpCABCQgAQlIQALDCSi8hrMypQQkIAEJSEACEpCABCQggVEEFF6jsJlJAhKQgAQkIAEJSEACEpDAcAIKr+GsTCkBCUhAAhKQgAQkIAEJSGAUAYXXKGxmkoAEJCABCUhAAhKQgAQkMJyAwms4K1NKQAISkIAEJCABCUhAAhIYRUDhNQqbmSQgAQlIQAISkIAEJCABCQwnoPAazsqUEpCABCQgAQlIQAISkIAERhFQeI3CZiYJSEACEpCABCQgAQlIQALDCSi8hrMypQQkIAEJSEACEpCABCQggVEEFF6jsJlJAhKQgAQkIAEJSEACEpDAcAIKr+GsTCkBCUhAAhKQgAQkIAEJSGAUAYXXKGxmkoAEJCABCUhAAhKQgAQkMJyAwms4K1NKQAISkIAEJCABCUhAAhIYRUDhNQqbmSQgAQlIQAISkIAEJCABCQwnoPAazsqUEpCABCQgAQlIQAISkIAERhFQeI3CZiYJSEACEpCABCQgAQlIQALDCSi8hrMypQQkIAEJSEACEpCABCQggVEEFF6jsJlJAhKQgAQkIAEJSEACEpDAcAIKr+GsTCkBCUhAAhKQgAQkIAEJSGAUAYXXKGxmkoAEJCABCUhAAhKQgAQkMJyAwms4K1NKQAISkIAEJCABCUhAAhIYRUDhNQqbmSQgAQlIQAISkIAEJCABCQwnoPAazsqUEpCABCQgAQlIQAISkIAERhFQeI3CZiYJSEACEpCABCQgAQlIQALDCSi8hrMypQQkIAEJSEACEpCABCQggVEEFF6jsJlJAhKQgAQkIAEJSEACEpDAcAIKr+GsTCkBCUhAAhKQgAQkIAEJSGAUgf8PHoI9BOQLyiIAAAAASUVORK5CYII=;imageBackground=default;" vertex="1" parent="ue6O0AK6JI9zVMHHh_M3-28">
          <mxGeometry x="19" y="29.57000000000005" width="182" height="133.43" as="geometry" />
        </mxCell>
        <mxCell id="ue6O0AK6JI9zVMHHh_M3-12" value="" style="group" vertex="1" connectable="0" parent="1">
          <mxGeometry x="80" y="530" width="390" height="320" as="geometry" />
        </mxCell>
        <mxCell id="ue6O0AK6JI9zVMHHh_M3-2" value="" style="rounded=1;whiteSpace=wrap;html=1;strokeColor=#66B2FF;" vertex="1" parent="ue6O0AK6JI9zVMHHh_M3-12">
          <mxGeometry width="233.33333333333331" height="293.3333333333333" as="geometry" />
        </mxCell>
        <mxCell id="ue6O0AK6JI9zVMHHh_M3-4" value="" style="rounded=1;whiteSpace=wrap;html=1;strokeColor=#66B2FF;" vertex="1" parent="ue6O0AK6JI9zVMHHh_M3-12">
          <mxGeometry x="11.111111111111109" y="13.333333333333332" width="233.33333333333331" height="293.3333333333333" as="geometry" />
        </mxCell>
        <mxCell id="ue6O0AK6JI9zVMHHh_M3-5" value="" style="rounded=1;whiteSpace=wrap;html=1;strokeColor=#66B2FF;" vertex="1" parent="ue6O0AK6JI9zVMHHh_M3-12">
          <mxGeometry x="22.222222222222218" y="26.666666666666664" width="233.33333333333331" height="293.3333333333333" as="geometry" />
        </mxCell>
        <mxCell id="ue6O0AK6JI9zVMHHh_M3-9" value="" style="rounded=1;whiteSpace=wrap;html=1;strokeColor=#FFB570;" vertex="1" parent="ue6O0AK6JI9zVMHHh_M3-12">
          <mxGeometry x="33.33" y="220" width="211.11" height="86.67" as="geometry" />
        </mxCell>
        <mxCell id="ue6O0AK6JI9zVMHHh_M3-11" value="&lt;font style=&quot;font-size: 12px;&quot;&gt;Grafana Agent&lt;/font&gt;" style="text;html=1;align=center;verticalAlign=middle;resizable=0;points=[];autosize=1;strokeColor=none;fillColor=none;" vertex="1" parent="ue6O0AK6JI9zVMHHh_M3-12">
          <mxGeometry x="44.44444444444445" y="191.67" width="100" height="30" as="geometry" />
        </mxCell>
        <mxCell id="ue6O0AK6JI9zVMHHh_M3-8" value="" style="shape=image;verticalLabelPosition=bottom;labelBackgroundColor=default;verticalAlign=top;aspect=fixed;imageAspect=0;image=data:image/jpeg,/9j/4AAQSkZJRgABAQAAAQABAAD/2wCEAAkGBw8SEhATEBAPFhUVGBIVFhMYFRAVEhMSGBUWGBgVFhYYHCggGRolGxUWITEhJSkrLi4uFx8zODMtNygtLisBCgoKDg0OGxAQGi0mHyUtLS83LSsuMC0vNy0vLTAtNy0tLy8uMistLisvMi0tLS8tLS03LS0tLS0tLS0tLS0tLf/AABEIAOEA4QMBIgACEQEDEQH/xAAbAAEBAAIDAQAAAAAAAAAAAAAABgIFAwQHAf/EAEIQAAIBAgEFCwoDCAMBAAAAAAABAgMRBAUGITFBElFSU2FxgZKhsdETFRYiMnKCkbLBM9LhIyQ0QkNik/AUouLC/8QAGgEBAAIDAQAAAAAAAAAAAAAAAAQFAQMGAv/EAD4RAAEDAgEJBQQHCAMAAAAAAAEAAgMEESEFEjFBUWFxkaEUgbHR8BMVU8EiIzRSVLLxBhYyM0JyguFiksL/2gAMAwEAAhEDEQA/APcQAEQABEAARAAEQABEAARAAEQABEAARAAEQABEAARAAEQABEAARAAEQABEAARAAEQABEAARACQz/x1SnCjCEpR8o5XabTtHc6LrZea+RqmlETC86vOy3U8BnlEY1+V1Xgk8wsdOpSqQnJy3ElZtttRknou+WL+ZWGYpBIwPGtKiEwyujOpAAbFpQABEAARAAEQABEAARAAEQABEAARAAEQABEAOllHKVGhHdVZqO8tcnzJaWYJDRc6FlrS42aLld0ENlDPabuqFNRXCnpl1VoXzZO4zKuIq38pWqST2Xaj1VoIEmUom/wi/QdVaRZJmdi8hvU9MOt9y9Rq4+hH261KPPOK72ROfWOo1Xh/JVIT3Plb7l3tfcW7n8iXS5D7Ygz1zpWFmbYHz9alZUuTWQSCQOJIv1Ft/iqnMXHUaSrqpUhDdeTtunZO26vp6UW1DFU5+xUpy92UX3HkFhbnEFe6JgZm3A37/WpYqcmMnkMmcQTbVfQLbvFezg8owmW8VS9itO283uo/KVyiydnvqWIpfFD7xb+5PjyjE7+LDj68bKtlyTMzFtncNPI/IlWoOngcoUay3VKpGS221rnT0o7hOBBFwqwgtNiLFAAZWEAARAAEQABEAARAAEQABEAARACNzsy+1uqNF8k5r6E+99BpnnbCzOd+q309O+d+Y3nsC7GX86Y07woWlPU5a4xe8uE+wiK9ac5OU5SlJ65N3ZjYWOdnqXzG7uWr1vK6inpo4G2YO/WfWweOKxsLGVhY0XUhY2FjKwsLosbCxlYWF0WNhYysLC6LPD1pwkpQlKMlqabTLHIOdqlaGIsnqVVaIv3ls59XMRdhY3Q1D4TdvLUo9RTRzizx36x3r2K99R9IDNnOKVJqnVd6T0J7af8A55NheQkmk07p6nsaOip6hs7bt5LmaqlfTus7RqKzABvUZAAEQABEAARAAEQABEAMJySTb1LS3yBFpM6MreQp7mD/AGk7qP8AatsvsuV8h58d/LONdetOb1N2it6C1ePSdGxy9ZU+2kuNA0eff4WXU0VOIIs3WdPl3eaxsZRi20km29CW1s5cNhpVJRhBXlJ2SPQch5Ep4eKdlKo160/tHeXeKalfUHDADSfWk+rrNVWNp244k6B61erKPw+bGLmk9wo+9JJ/LWjtLM3FcKj1p/lL4FuMmQAY3Peqg5WnvoHI+ag/QvFcZQ60/wAg9C8VxlDrT/IXgPXu2n2Hmse9Z93JQfoXiuModaf5DF5m4rhUetP8pfAe7afYeae9Z93L/agPQ7Fb9HrS/KcOIzVxcFdRjL3ZJv5OxR5xZfeHlGFNRcn60r3tGOxWW1mzyRlCNenGpHRslHgyWtEcUdK6QxNJzhv8xqW811W1gkLRmn1t1ry+cGm0001oaehp8qPlj0jLmRaeIi3ZKol6s/tLfXcee1qEoSlGatKLaa3miuqqV0DrHEHQflxVjSVjahtxgRpHz4LhsWGZeV2/2E3qu4Pk2x+66SRsctCrKEozi/Wi1Jc6NdPUGF4eO/gvdTCJ4yw93Fesg4MLXVSEJx1SSkulHOdWCDiFyRFjYoADKIAAiAAIgACIAAiGkzrxfk8PJLXNqC5ndvsTXSbsjs+K15Uob0XJ87dl9L+ZErpPZwOI4c8FKoo8+doPHlipWwsZ2Fjlbrp7quzLwCUJVmtMrxjyRWtrnejoKo8up4ytFJRq1ElqSnNJdCZn5xr8dW/yT8S2p8qRQxhgbo3jSqufJz5pC8u07tS9OBC5vZZqRqxhUnKUZvc+s3Lct6mm9WnR0lNl3KHkKTkrbp+rBf3PbzJaS0hrY5IjJoA0+t+pVk1I+OQR6SdC2gPMZZSxDbbrVbv++a7Ex5xr8dW/yT8SD75j+6eYU33Q773RenHFWmoxcpOySbb3ktLPNvONfjq3+SfiYTx1Zpp1ajT1pzm01ypsHLUf3eoWfdDvvdFjj8S6tSdR65NvmWxdCsjb5n4/ydbybfq1NHNNavnpXyMs1sleUm51IXhFNK60Sk9Gjfsr9hrcp4CeHqyj6ySd4S0q62NPfK5glhDak7fXc7ED9FPe6OUuphqA9cRhdemEjntk9erXitOiE/8A5f2+RP8AnGvx1f8AyT8TCrjK0ladSo1vOcmvk2S6jKcU0ZZm9RpUWnye+GQPDumpdWwsZ2FipurS6uczq+6w6i/5JSj0P1l3s35I5i1NNePJCS/7J/YrjqqB+fTsPdyNlzNc3NqHDv5i6AAlqIgACIAAiAAIgACIQed0r4l8kYLsv9y8IDOZ3xNX4fpRV5XNoANrh4FWOTB9aTu+YWpsLH2wsc3dXyu8geSqUKT3FNtJRl6sb7qOjTy6n0mx/wCJT4un1Y+BH5r5TVKbhN2hO2nZGex8z1fIuDq6GYTQg6xgeP8AvSubrI3RSnTY4j1uUVnbk3cTjVgrRlZOysozWrVqul2GsxWMr4iVNTe6atGKS1t/dnoWIoxnFxkk4vQ0dDJ2RKFGTlBSctjk7uK3kQ6jJz3yksNmu0/poO0bCpMFexsYDxdzdH66t6zydkynTpQg4QbS0txTvJ6X2na/4lLi6fVj4HYNVlrK8MOkrbqctUb20b7exFm4xQR3ODQoDfaSvsLkld3/AIlLi6fVj4GUcPBaoQXNFHSyPlWFeLaW5kvaje9uVPajZnqNzJGh7dBXl4e0lrtKGMop60ZA2Lwuu8FSeunT6kfA0udNGlCg9zTppylGKajFPXd6VyJlEQecmU1WqWi/UhdJ8J7X2aP1K/KMrIoCDpdgPnyU2hY+SYG5sMStNYWPthY5e66Jb/Mqdq01vwl81KP6lqQeartiYcqkv+r8C8OlyS69PbYT5qgykPrgdwQAFmq9AAEQABEAARfGTeUc54xbjSipW/mfs/LW+wZ149pKjF23SvJ8mxdNuw02SMkzrt2e5itcuXeS2sp62tl9r7CD+LX42F8NGk+BCsqWmj9n7WbR67+AXNLOXE78FzRX3NZisRKpNznZydr6EtltXQWNLNzCpaYuXK5NfTYmMs4aFOtUhBWirWV2/wCVPWyvrIKpjA6Z9xfRcnGx2jiplPNA55ETbG2mwHguhYWMrCxWXU5Y2N5kjOGVNKFROUVoTXtRW9p1o0thY2w1EkLs5hsVrljZK3NeLr0DDZVw8/ZqQ5m9y/kzuKS30eZ2G5W8i1blt4GMYPAkfI+Krzkxup55X8l6JjMdSpRcpzStsut0+RIgcfipVakqktb2by2I4FE+2IdZXvqbAiwGq98d5sFJpqVsFyDcrsZLxsqNSM1s0SXCi9a/3eL3C4ynUipQkmudXXOth51Y+OJmjyg+mBba42Xt8j4LFTSNnIN7FelurFa5R+aOvWyhRgryq018Sb+S0nnu5W8hYlnLbtUY53+QUYZMbrf0W8y5l91E6dG6i/ak9EpLeW8aGxlYWKueofM7OecfWj1xVhFEyJuawLGwsZWFjTdbVlhq8qclODtJanoey23nNgs4MWv6i6sPA48iYeFStCE1eL3V1drVFvWtJUTzdwrWiDXKpz+7ZY0dNUyMLoX2F7WznDUNg8VCqJ4GOtI25tsB8Vq8DnQ00q0E1wo6GudbSno1YzipRaaelNamiNyzkOVFbuL3UNTf80b6r8nKc+amPcZ+Sfszu48kkr9qXYTqWsmim9hUa9B8MdBB0bdu6JUU8T4/aw6tXrQQrAAF4qtAAEQABFFZ0O+IlyKC7L/c3+bUEsPDlcm+fdNfYns5f4ip8H0RKTN/+HpfF9TKCh+llCX/AC/OArWqwpWDh+VbMjMvYSrOvUcKdRr1dKg2n6q2pFmazE5ZoU5OEpO61+rJ7LljlCKKSMCV+aL3vhsOGKh0sj2PJY2+CkPNtfia3Un4DzbX4mt1J+BV+kGG4UurIekGG4UurIqOx0X4gcwrDtU/wj18lKeba/E1upPwHm2vxNbqT8Cr9IMNwpdWQ9IMNwpdWQ7HRfiBzCdqn+EevkpTzbX4mt1J+A821+JrdSfgVfpBhuFLqyHpBhuFLqyHY6L445hO1T/CPXyUp5tr8TW6k/Aeba/E1upPwKv0gw3Cl1ZD0gw3Cl1ZDsdF+IHMJ2qf4R6+SlPNtfia3Un4DzbX4mt1J+BV+kGG4UurIekGG4UurIdjovxA5hO1T/CPXyUp5tr8TW6k/Aeba/E1upPwKv0gw3Cl1ZD0gw3Cl1ZDsdF8ccwnap/hHr5KU821+JrdSfgPNtfia3Un4FX6QYbhS6sh6QYbhS6sh2Oi/EDmE7VP8I9fJSnm2vxNbqT8B5tr8TW6k/Aq/SDDcKXVkPSDDcKXVkOx0X4gcwnap/hHr5LR5BwdWFam506iXraXFpey9rRZmsw2WaFSShCTu729VrZf7GzLfJ8cUcZbE/OF73w2DDBV9VI97wXttgullWF6NZf2S7Fcjsiu1ej7y7dBa5Q/Cre5P6WROSfxqPvx+pFflX7TCfWDgplD/JeOPgr8AF8qpAAEQABFFZxL94q/B9ESjyB/D0vi+pk7nB/EVPh+iJR5B/h6XT9TOeyab5Qm/wA/zhWdV9mZ/j+VbEic4F+8Vfh+lFsRmcMf3ip8P0okZc+zt/uHg5a8nn6w8PmFrLCxlYWOXure6xsLGVhYXS6xsLGVhYXS6xsLGVhYXS6xsLGVhYXS6xsLGVhYXS6xsLGVhYXS6xsLGVhYXS62Gby/eKfxfSy0I/NuP7dc0u4sDqsi/Zyf+R8AqfKBvKOHzK62P/Dq+5P6WReTPxqPvw+pFrjvwqvuT7mRmTF+2o+/D6iPlY/Xw8f/AEFuoP5b/WpXYAL9VaAAIhwV68IK85JLl282+cWUMYqUHLW9SW+yQr1pzk5Tbbf+2S2FXlDKbaX6IF3adwG/y8FKp6Yy4k2C5Mq1ozq1Jx1O1tmqNvsb3IeOpeThTc0pK+h7btvXqes1FPJNeSuqb6Wk/k2dbEYacHacWny7eZ7SiiqKimkNQ5h+le9wQMTfA6seKsHsjlYIw7Rs3K6JPOanatfhRT+V19kdzIOUW35ObvwW9ejYcucuHvCM+C7Pmf62+ZbVsrayhMkerG2y2nkLngocDTDPmu1/NTNhYzsLHLK1usLCxnYWCXWFhYzsLBLrCwsZ2Fgl1hYWM7CwS6wsLGdhYJdYWFjOwsEusLCxnYWCXW1zYh+1b3ovviVJpM28JuYSm9crJcy29L7hl/KDglCDtJ6W9qjvLlZ1lFIKShEknHmcOYtwGJ1qpnBmnzW+rLnyplClGM4OXrNSVlps2rad4l8JUUZwk9UZRb5k0z7Qw85vcwi2+Tve8d2WRK6V9ynyJq5TzT1Na4SMZg3RYE7NJ16NgUyNkUAzS7E7VR4XHUqnsTTe9qa6GdshLSjLgyT5VZlTkbHOrD1vajofLvMucn5U7Q72cgs7obaeB3XPiFCqKX2Yzmm49c1sgAW6hrQZzT00o+8+5L7nDm9hlKcpv+S1ud7eztM85V60Pdfec2bXs1OePczmQ0SZXIdq+TARyOPFWVy2kw9XK3h1cdhlVhKL6HvPYztA6VzGyDMdiDgq4EtNwoajNxlGS1xa7C1lFSVnpTXzTImW3pLXDexHmXcc3+zzyRI3V9E+IU+v/pPFTOUslSptuN3Df2x5P1NbYvTVY3I1Od3H1Hyan0eBmtyIcX0//U/I/I6NtsBmGt1Sc/NTNhY7mJydVp+1G64S/wB0HUsUEjHxOzZAQd/rHipzXBwu03XywsfbCx4usr5YWPthYXRfLCx9sLGLovlhY+2FjN0Xyx8sZxi27JNveWlmzwmRKktM/UXzf6dJugglndmxNJ8O86BzXh8jWC7jZamMW2kk23s2m8ybkTVKt0Q8fA2uDwNOn7EdO2T0t9J2zo6LIrYznzHOOzV37fDjqgTVhdgzDfrXxEblKe6q1H/dZcy0LuLMiKut877zx+0LyI2N3k8reazQDFxVNkXDqFOO/L1m+fV2GxOvgvw6Xuw7kdguqdgjia1ugAeHoneochJeSdpWhzkw6tGotd9y+Va13dp1825WqNb8e1NfqbHOH8L4l3M1eQPxlzSKCoAZlVhGvN63CnRm9Kb71UgA6VVyn84161PmZzZuaqnPHuZtK1CE1aUU0ZUaUYK0Ukt5FSzJ7xXGpzhbZrvm5vDfdSTODD7O2P8Au65AAW4NjdRlESja6ewscMrRgv7V3Iwlg6blunBX3+U7JT5Lya6jLy5172A4C+n13qTUVAlAwQAFuoyHUr5PpT9qC51ofYdsHiSNsjc14BGwi46rLXFpuCtHWyCv5ZtcjV+06lXIlVakpdK+9inBWyZFpH/0kcD53HRSG1co134qSlkyuv6b7H3MxeAq8XPqleCN+78Gp7unktnbXbB181ILJ9Xi59Uyjk2s/wCm+7vK0D934fvu6eSdtdsHXzUzSyJWeu0em/cd7D5DgvbblyakbgEqLI9JH/Tnf3Y9MB0Wp1VI7Xbh6uuChh4Q9mKXec4BZtaGizRYbAtBJJuUABlYQiq0bNp7/wBy1OCWGpuW6cY337aSrynk91Y1oa61r6d9vJSKecRE3GlMLG0IJ61GK7Ec4BZtFhZaCb4rV5f/AAviX3NZkGP7VcikUlSCaaaTT2PUYUqEIX3MUr7xWT5PdJWNqM7AWw4X81IZPmxFllzAAtFGQABEAARAAEQABEAARAAEQABEAARAAEQABEAARAAEQABEAARAAEQABEAARAAEQABEAARAAEQABEAARAAEQABEAARAAEQABEAARAAEX//Z;" vertex="1" parent="ue6O0AK6JI9zVMHHh_M3-12">
          <mxGeometry x="33.333333333333336" y="199.17" width="15" height="15" as="geometry" />
        </mxCell>
        <mxCell id="ue6O0AK6JI9zVMHHh_M3-14" value="" style="rounded=1;whiteSpace=wrap;html=1;" vertex="1" parent="ue6O0AK6JI9zVMHHh_M3-12">
          <mxGeometry x="41.11111111111111" y="240" width="58.888888888888886" height="60" as="geometry" />
        </mxCell>
        <mxCell id="ue6O0AK6JI9zVMHHh_M3-15" value="" style="rounded=1;whiteSpace=wrap;html=1;" vertex="1" parent="ue6O0AK6JI9zVMHHh_M3-12">
          <mxGeometry x="109.44444444444444" y="240" width="58.888888888888886" height="60" as="geometry" />
        </mxCell>
        <mxCell id="ue6O0AK6JI9zVMHHh_M3-16" value="" style="rounded=1;whiteSpace=wrap;html=1;" vertex="1" parent="ue6O0AK6JI9zVMHHh_M3-12">
          <mxGeometry x="174.44444444444446" y="240" width="58.888888888888886" height="60" as="geometry" />
        </mxCell>
        <mxCell id="ue6O0AK6JI9zVMHHh_M3-6" value="" style="shape=image;verticalLabelPosition=bottom;labelBackgroundColor=default;verticalAlign=top;aspect=fixed;imageAspect=0;image=https://upload.wikimedia.org/wikipedia/commons/thumb/b/b0/EBPF_logo.png/120px-EBPF_logo.png;" vertex="1" parent="ue6O0AK6JI9zVMHHh_M3-12">
          <mxGeometry x="180.55555555555557" y="251.98000000000002" width="42" height="14.7" as="geometry" />
        </mxCell>
        <mxCell id="ue6O0AK6JI9zVMHHh_M3-17" value="&lt;b style=&quot;font-size: 11px;&quot;&gt;Profiler&lt;/b&gt;" style="text;html=1;align=center;verticalAlign=middle;resizable=0;points=[];autosize=1;strokeColor=none;fillColor=none;fontSize=11;" vertex="1" parent="ue6O0AK6JI9zVMHHh_M3-12">
          <mxGeometry x="171.66666666666666" y="263.33000000000004" width="60" height="30" as="geometry" />
        </mxCell>
        <mxCell id="ue6O0AK6JI9zVMHHh_M3-18" value="" style="shape=image;verticalLabelPosition=bottom;labelBackgroundColor=default;verticalAlign=top;aspect=fixed;imageAspect=0;image=https://upload.wikimedia.org/wikipedia/commons/thumb/3/39/Kubernetes_logo_without_workmark.svg/617px-Kubernetes_logo_without_workmark.svg.png;" vertex="1" parent="ue6O0AK6JI9zVMHHh_M3-12">
          <mxGeometry x="72.22222222222223" y="272.92" width="20" height="19.41" as="geometry" />
        </mxCell>
        <mxCell id="ue6O0AK6JI9zVMHHh_M3-19" value="" style="shape=image;verticalLabelPosition=bottom;labelBackgroundColor=default;verticalAlign=top;aspect=fixed;imageAspect=0;image=data:image/svg+xml,PHN2ZyB4bWxuczp4bGluaz0iaHR0cDovL3d3dy53My5vcmcvMTk5OS94bGluayIgeG1sbnM9Imh0dHA6Ly93d3cudzMub3JnLzIwMDAvc3ZnIiB4bWw6c3BhY2U9InByZXNlcnZlIiBzdHlsZT0iZW5hYmxlLWJhY2tncm91bmQ6bmV3IDAgMCA0MzkgMzA5OyIgdmlld0JveD0iMCAwIDQzOSAzMDkiIHk9IjBweCIgeD0iMHB4IiBpZD0iTGF5ZXJfMSIgdmVyc2lvbj0iMS4xIj4mI3hhOzxzdHlsZSB0eXBlPSJ0ZXh0L2NzcyI+JiN4YTsJLnN0MHtmaWxsOiMxRDYzRUQ7fSYjeGE7PC9zdHlsZT4mI3hhOzxwYXRoIGQ9Ik0zNzkuNiwxMTEuN2MtMi4zLTE2LjctMTEuNS0zMS4yLTI4LjEtNDQuM2wtOS42LTYuNWwtNi40LDkuN2MtOC4yLDEyLjUtMTIuMywyOS45LTExLDQ2LjYmIzEwOyYjOTtjMC42LDUuOCwyLjUsMTYuNCw4LjQsMjUuNWMtNS45LDMuMy0xNy42LDcuNy0zMy4yLDcuNEgxLjdsLTAuNiwzLjVjLTIuOCwxNi43LTIuOCw2OSwzMC43LDEwOS4xYzI1LjUsMzAuNSw2My42LDQ2LDExMy40LDQ2JiMxMDsmIzk7YzEwOCwwLDE4Ny44LTUwLjMsMjI1LjMtMTQxLjljMTQuNywwLjMsNDYuNCwwLjEsNjIuNy0zMS40YzAuNC0wLjcsMS40LTIuNiw0LjItOC42bDEuNi0zLjNsLTkuMS02LjImIzEwOyYjOTtDNDE5LjksMTEwLjgsMzk3LjIsMTA4LjMsMzc5LjYsMTExLjdMMzc5LjYsMTExLjd6IE0yNDAsMGgtNDUuM3Y0MS43SDI0MFYweiBNMjQwLDUwLjFoLTQ1LjN2NDEuN0gyNDBWNTAuMXogTTE4Ni40LDUwLjFoLTQ1LjMmIzEwOyYjOTt2NDEuN2g0NS4zVjUwLjF6IE0xMzIuOSw1MC4xSDg3LjZ2NDEuN2g0NS4zVjUwLjF6IE03OS4zLDEwMC4ySDM0djQxLjdoNDUuM1YxMDAuMnogTTEzMi45LDEwMC4ySDg3LjZ2NDEuN2g0NS4zVjEwMC4yeiYjMTA7JiM5OyBNMTg2LjQsMTAwLjJoLTQ1LjN2NDEuN2g0NS4zVjEwMC4yeiBNMjQwLDEwMC4yaC00NS4zdjQxLjdIMjQwVjEwMC4yeiBNMjkzLjYsMTAwLjJoLTQ1LjN2NDEuN2g0NS4zVjEwMC4yeiIgY2xhc3M9InN0MCIvPiYjeGE7PC9zdmc+;" vertex="1" parent="ue6O0AK6JI9zVMHHh_M3-12">
          <mxGeometry x="45.55555555555555" y="275.76" width="19.5" height="13.72" as="geometry" />
        </mxCell>
        <mxCell id="ue6O0AK6JI9zVMHHh_M3-20" value="Processes" style="rounded=1;whiteSpace=wrap;html=1;strokeColor=#4080FF;" vertex="1" parent="ue6O0AK6JI9zVMHHh_M3-12">
          <mxGeometry x="33.333333333333336" y="50" width="211.11111111111111" height="30" as="geometry" />
        </mxCell>
        <mxCell id="ue6O0AK6JI9zVMHHh_M3-23" value="Pods" style="rounded=1;whiteSpace=wrap;html=1;strokeColor=#4080FF;" vertex="1" parent="ue6O0AK6JI9zVMHHh_M3-12">
          <mxGeometry x="33.333333333333336" y="161.67" width="211.11111111111111" height="30" as="geometry" />
        </mxCell>
        <mxCell id="ue6O0AK6JI9zVMHHh_M3-22" value="Containers" style="rounded=1;whiteSpace=wrap;html=1;strokeColor=#4080FF;" vertex="1" parent="ue6O0AK6JI9zVMHHh_M3-12">
          <mxGeometry x="33.333333333333336" y="90" width="211.11111111111111" height="30" as="geometry" />
        </mxCell>
        <mxCell id="ue6O0AK6JI9zVMHHh_M3-25" value="..." style="text;html=1;align=center;verticalAlign=middle;resizable=0;points=[];autosize=1;strokeColor=none;fillColor=none;" vertex="1" parent="ue6O0AK6JI9zVMHHh_M3-12">
          <mxGeometry x="123.89222222222223" y="119.99999999999996" width="30" height="30" as="geometry" />
        </mxCell>
        <mxCell id="ue6O0AK6JI9zVMHHh_M3-26" value="&lt;b&gt;Discovery&lt;/b&gt;" style="text;html=1;align=center;verticalAlign=middle;resizable=0;points=[];autosize=1;strokeColor=none;fillColor=none;fontSize=11;" vertex="1" parent="ue6O0AK6JI9zVMHHh_M3-12">
          <mxGeometry x="29.308125000000004" y="240" width="80" height="30" as="geometry" />
        </mxCell>
        <mxCell id="ue6O0AK6JI9zVMHHh_M3-27" value="&lt;b&gt;Relabel&lt;/b&gt;" style="text;html=1;align=center;verticalAlign=middle;resizable=0;points=[];autosize=1;strokeColor=none;fillColor=none;fontSize=11;" vertex="1" parent="ue6O0AK6JI9zVMHHh_M3-12">
          <mxGeometry x="109.00031249999999" y="240" width="60" height="30" as="geometry" />
        </mxCell>
        <mxCell id="ue6O0AK6JI9zVMHHh_M3-29" value="Flow Components" style="text;html=1;align=center;verticalAlign=middle;resizable=0;points=[];autosize=1;strokeColor=none;fillColor=none;" vertex="1" parent="ue6O0AK6JI9zVMHHh_M3-12">
          <mxGeometry x="44.44000000000001" y="214.16999999999996" width="120" height="30" as="geometry" />
        </mxCell>
        <mxCell id="ue6O0AK6JI9zVMHHh_M3-34" value="" style="shape=image;verticalLabelPosition=bottom;labelBackgroundColor=default;verticalAlign=top;aspect=fixed;imageAspect=0;image=data:image/png,iVBORw0KGgoAAAANSUhEUgAAAg4AAAByCAYAAAA7xFmqAAAKpGlDQ1BJQ0MgUHJvZmlsZQAASImVlwdQU+kWx79700NCS4h0Qg1FkE4AKSG00KWDjZAECCXGkCBiRxZXcC2IiIC6YEUUXAsgNsSChUWxYHeDLCLquliwofJuYAi7++a9N+/MfDm/OTnfOee7c7+Z/wWAjOaKxdmwOgA5IqkkOsiPnpiUTMcNAhIgAAiggQOXlytmRUWFAcQm/d/tQy+SidgtW0Wtf///v5oGX5DLAwCKQjiVn8vLQfgYsuQ8sUQKAKociZsukooV3IowVYIMiHCXgtMnWK7g1Al+P54TG80GAI0HAE/iciXpAJCoSJyex0tH6pCcEbYX8YUihPkIe+fkLEA8aTfClkiOGGFFfWbqX+qk/61mqrIml5uu5ImzjBveX5grzuYu/j8fx/+2nGzZZA8LZJEyJMHRin7IM7uXtSBUyaLUiMhJFvInZlJwhiw4bpJ5uezkSeZz/UOVe7MjwiY5TRjIUdaRcmInWZAbEDPJkgXRyl5pEjZrkrmSqb6yrDhlPEPAUdYvyIhNmOQ8YXzEJOdmxYRO5bCVcYksWjm/QBTkN9U3UHn2nNy/nFfIUe6VZsQGK8/OnZpfIGJN1cxNVM7GF/gHTOXEKfPFUj9lL3F2lDJfkB2kjOfmxSj3SpEXcmpvlPIZZnJDoiYZCEE44AKeVJAvVQzPXiBeLBGmZ0jpLORWCegcEc9uOt3R3tEJAMUdnXgF3tHG7x5EuzoVK9IDwOv12NjYyalY6B4AjiYBQLw9FWNoAaB6AoDLO3gySd5EDK34wQAiUANUoAMMgSmwBLbAEbgCT+ALAkAIiASxIAnMAzyQAXKABCwCS8EqUAxKwUawBVSBnWAX2A8OgSOgBZwC58AlcA3cAHfAQyAHA+AlGAYfwCgEQTiIDFEgHcgIModsIEeICXlDAVAYFA0lQSlQOiSCZNBSaDVUCpVBVVAtVA/9Ap2AzkFXoB7oPtQHDUFvoS8wCibBVNgAtoBnwEyYBYfCsfBcOB1eCBfARfB6uBKugw/CzfA5+Bp8B5bDL+ERFECpoGgoY5QtiolioyJRyag0lAS1HFWCqkDVoRpRbahO1C2UHPUK9RmNRVPQdLQt2hMdjI5D89AL0cvR69BV6P3oZvQF9C10H3oY/R1DxuhjbDAeGA4mEZOOWYQpxlRg9mKOYy5i7mAGMB+wWCwNy8C6YYOxSdhM7BLsOux2bBO2HduD7ceO4HA4HZwNzgsXiePipLhi3DbcQdxZ3E3cAO4TXgVvhHfEB+KT8SJ8Ib4CfwB/Bn8TP4gfJagTzAkehEgCn7CYsIGwm9BGuE4YIIwSNYgMohcxlphJXEWsJDYSLxIfEd+pqKiYqLirzFIRqqxUqVQ5rHJZpU/lM0mTZE1ik+aQZKT1pH2kdtJ90jsymWxB9iUnk6Xk9eR68nnyE/InVYqqnSpHla+6QrVatVn1puprNYKauRpLbZ5agVqF2lG162qv1AnqFupsda76cvVq9RPqd9VHNCgaDhqRGjka6zQOaFzReK6J07TQDNDkaxZp7tI8r9lPQVFMKWwKj7KasptykTJAxVIZVA41k1pKPUTtpg5raWo5a8Vr5WtVa53WktNQNAsah5ZN20A7QuulfZlmMI01TTBt7bTGaTenfdTW0/bVFmiXaDdp39H+okPXCdDJ0tmk06LzWBeta607S3eR7g7di7qv9Kh6nno8vRK9I3oP9GF9a/1o/SX6u/S79EcMDA2CDMQG2wzOG7wypBn6GmYalhueMRwyohh5GwmNyo3OGr2ga9FZ9Gx6Jf0CfdhY3zjYWGZca9xtPGrCMIkzKTRpMnlsSjRlmqaZlpt2mA6bGZmFmy01azB7YE4wZ5pnmG817zT/aMGwSLBYY9Fi8ZyhzeAwChgNjEeWZEsfy4WWdZa3rbBWTKssq+1WN6xhaxfrDOtq6+s2sI2rjdBmu03PdMx09+mi6XXT79qSbFm2ebYNtn12NLswu0K7FrvXM8xmJM/YNKNzxnd7F/ts+932Dx00HUIcCh3aHN46WjvyHKsdbzuRnQKdVji1Or1xtnEWOO9wvudCcQl3WePS4fLN1c1V4troOuRm5pbiVuN2l0llRjHXMS+7Y9z93Fe4n3L/7OHqIfU44vGnp61nlucBz+czGTMFM3fP7Pcy8eJ61XrJveneKd4/e8t9jH24PnU+T31Nffm+e30HWVasTNZB1ms/ez+J33G/j2wP9jJ2uz/KP8i/xL87QDMgLqAq4EmgSWB6YEPgcJBL0JKg9mBMcGjwpuC7HAMOj1PPGQ5xC1kWciGUFBoTWhX6NMw6TBLWFg6Hh4RvDn8UYR4himiJBJGcyM2Rj6MYUQujTs7CzoqaVT3rWbRD9NLozhhKzPyYAzEfYv1iN8Q+jLOMk8V1xKvFz4mvj/+Y4J9QliBPnJG4LPFakm6SMKk1GZccn7w3eWR2wOwtswfmuMwpntM7lzE3f+6Vebrzsuednq82nzv/aAomJSHlQMpXbiS3jjuSykmtSR3msXlbeS/5vvxy/pDAS1AmGEzzSitLe57ulb45fSjDJ6Mi45WQLawSvskMztyZ+TErMmtf1lh2QnZTDj4nJeeESFOUJbqwwHBB/oIesY24WCxf6LFwy8JhSahkby6UOze3VUpFxFCXzFL2g6wvzzuvOu/TovhFR/M18kX5XYutF69dPFgQWLBnCXoJb0nHUuOlq5b2LWMtq10OLU9d3rHCdEXRioGVQSv3ryKuylr1a6F9YVnh+9UJq9uKDIpWFvX/EPRDQ7FqsaT47hrPNTt/RP8o/LF7rdPabWu/l/BLrpbal1aUfl3HW3f1J4efKn8aW5+2vnuD64YdG7EbRRt7N/ls2l+mUVZQ1r85fHNzOb28pPz9lvlbrlQ4V+zcStwq2yqvDKts3Wa2beO2r1UZVXeq/aqbavRr1tZ83M7ffnOH747GnQY7S3d++Vn4873aoNrmOou6il3YXXm7nu2O3925h7mnfq/u3tK93/aJ9sn3R++/UO9WX39A/8CGBrhB1jB0cM7BG4f8D7U22jbWNtGaSg+Dw7LDL35J+aX3SOiRjqPMo43HzI/VHKccL2mGmhc3D7dktMhbk1p7ToSc6GjzbDt+0u7kvlPGp6pPa53ecIZ4pujM2NmCsyPt4vZX59LP9XfM73h4PvH87QuzLnRfDL14+VLgpfOdrM6zl70un7riceXEVebVlmuu15q7XLqO/+ry6/Fu1+7m627XW2+432jrmdlz5qbPzXO3/G9dus25fe1OxJ2e3rjee3fn3JXf4997fj/7/psHeQ9GH658hHlU8lj9ccUT/Sd1v1n91iR3lZ/u8+/rehrz9GE/r//l77m/fx0oekZ+VjFoNFj/3PH5qaHAoRsvZr8YeCl+Ofqq+A+NP2peW74+9qfvn13DicMDbyRvxt6ue6fzbt975/cdI1EjTz7kfBj9WPJJ59P+z8zPnV8SvgyOLvqK+1r5zepb2/fQ74/GcsbGxFwJd1wKoJAFp6UB8HYfAGREO1BuIPph9oSGHjdoQvePE/hPPKGzx80VgEbEKaQQux2Aw+0TEpaMeIUMivUFsJOTck3q3XFtrjAs8pXSyLgiXZPfW46vBf+wCd3+l7n/6YGiqkL6/93/C+ZmBgUus0LEAAAAimVYSWZNTQAqAAAACAAEARoABQAAAAEAAAA+ARsABQAAAAEAAABGASgAAwAAAAEAAgAAh2kABAAAAAEAAABOAAAAAAAAAJAAAAABAAAAkAAAAAEAA5KGAAcAAAASAAAAeKACAAQAAAABAAACDqADAAQAAAABAAAAcgAAAABBU0NJSQAAAFNjcmVlbnNob3TBp+yiAAAACXBIWXMAABYlAAAWJQFJUiTwAAAB1mlUWHRYTUw6Y29tLmFkb2JlLnhtcAAAAAAAPHg6eG1wbWV0YSB4bWxuczp4PSJhZG9iZTpuczptZXRhLyIgeDp4bXB0az0iWE1QIENvcmUgNi4wLjAiPgogICA8cmRmOlJERiB4bWxuczpyZGY9Imh0dHA6Ly93d3cudzMub3JnLzE5OTkvMDIvMjItcmRmLXN5bnRheC1ucyMiPgogICAgICA8cmRmOkRlc2NyaXB0aW9uIHJkZjphYm91dD0iIgogICAgICAgICAgICB4bWxuczpleGlmPSJodHRwOi8vbnMuYWRvYmUuY29tL2V4aWYvMS4wLyI+CiAgICAgICAgIDxleGlmOlBpeGVsWURpbWVuc2lvbj4xMTQ8L2V4aWY6UGl4ZWxZRGltZW5zaW9uPgogICAgICAgICA8ZXhpZjpQaXhlbFhEaW1lbnNpb24+NTI2PC9leGlmOlBpeGVsWERpbWVuc2lvbj4KICAgICAgICAgPGV4aWY6VXNlckNvbW1lbnQ+U2NyZWVuc2hvdDwvZXhpZjpVc2VyQ29tbWVudD4KICAgICAgPC9yZGY6RGVzY3JpcHRpb24+CiAgIDwvcmRmOlJERj4KPC94OnhtcG1ldGE+CquXixkAAAAcaURPVAAAAAIAAAAAAAAAOQAAACgAAAA5AAAAOQAAD96rGdctAAAPqklEQVR4AeycB3QVxRrH/5CEEEroLQlSpSigVCkCKkICIr2jQPJCb9KlKaCAwgOkycsDBELoPEMXfSJFIiqd85QmAlITIAmhQ0LezvXkcid7783e3ZuwkP+ck5OZb75vZvY3e7P/OzPZLMlKAhMJkAAJkAAJkAAJaCCQhcJBAyW6kAAJkAAJkAAJWAhQOPBGIAESIAESIAES0EyAwkEzKjqSAAmQAAmQAAlQOPAeIAESIAESIAES0EyAwkEzKjqSAAmQAAmQAAlQOPAeIAESIAESIAES0EyAwkEzKjqSAAmQAAmQAAlQOPAeIAESIAESIAES0EyAwkEzKjqSAAmQAAmQAAlQOPAeIAESIAESIAES0EyAwkEzKjqSAAmQAAmQAAlQOPAeIAESIAESIAES0EyAwkEzKjqSAAmQAAmQAAlQOPAeIAESIAESIAES0EyAwkEzKjqSAAmQAAmQAAlQOPAeIAESIAESIAES0ExAl3C4Hh+Db3/eiEMnf8Hl6xeRlJSouUM6kgAJuJ+Ah4cn/AoGoFr51xBYuyUK5i3s/k4ctHjtUgy2LtuM/T/8iktnLiExkX8PHKCiWScBT09P+JcJQM1GtfBO93dRyK+QzpYY5g4CLguHHfu3YdGmORQL7qDPNkggHQgIERHaYhAa1WyWDq3LTX67ajsWjJlHsSBjYSkdCXh6eaLv5AEI7ByUjr2waWcEXBIOQjSERc501h7rSIAETEKgd+uh6SoehGiYO/ILk1wth5HZCAya9gGaUDw8lWnXLBzE9sTAGd240vBUpomdkoDrBMTKw9xh4emybSG2J3q+HsKVBtenhRFuIiBWHhbuXcJtCzfxdKUZzcJhxfaF2LhnjStt05cESOApE2jZoCO6BvV0+yiWTlmM9QvWub1dNkgCrhBo168DeowOcSWEvm4goFk4DJsdigvR59zQJZsgARLIKALFi5TEjMGL3N5d/7d74/zJ825vlw2SgCsESlQoifn//ZcrIfR1AwHNwqHz+CBuU7gBOJsggYwkILYrVn2y3e1dtirVnNsUbqfKBl0lILYrNvy5xdUw+hskoFk4dBjztsGuGE4CJPA0CKyd8r3bu21enCfa3Q6VDbpMIEuWLNj81zcuxzHAGAEKB2P8GE0CpidA4WD6KeIAdRKgcNAJzmAYhYNBgAwnAbMToHAw+wxxfHoJUDjoJWcsjsLBGD9Gk4DpCVA4mH6KOECdBCgcdIIzGEbhYBAgw0nA7AQoHMw+QxyfXgIUDnrJGYujcDDGj9EkYHoCFA6mnyIOUCcBCged4AyGUTgYBMhwEjA7AQoHs88Qx6eXAIWDXnLG4igcjPFjNAmYngCFg+mniAPUSYDCQSc4g2EUDgYBMpwEzE6AwsHsM8Tx6SVA4aCXnLE4Cgdj/BhNAqYnQOFg+iniAHUSoHDQCc5gGIWDQYAMJwGzE6BwMPsMcXx6CVA46CVnLI7CwRg/RpOA6QlQOJh+ijhAnQQoHHSCMxhG4WAQIMNJwOwEKBzMPkMcn14CFA56yRmLo3Awxo/RJGB6AhQOpp8iDlAnAQoHneAMhlE4GATIcBIwOwEKB7PPEMenlwCFg15yxuIoHIzxYzQJmJ4AhYPpp4gD1EmAwkEnOINhFA4GATKcBMxOgMLB7DPE8eklQOGgl5yxOAoHY/wYTQKmJ0DhYPop4gB1EqBw0AnOYBiFg0GADCcBsxOgcDD7DHF8eglQODgnl5T0GMnJj61OWbNmhfgxmigcjBJkPAmkQSCblzc8snpIXg8e3sdjmw+0VOnmAoWDm4GyOYcEfHLlkOoSHyXi0YOHks2dBQoHxzSjftqHpeERuH//vtUpKLAJunbuaC3rzVA46CXHOBJIg0D2bD4Y3HE8Xi5dVeW5bOs87DiwVWVPDwOFQ3pQZZupCdRqXBsjF4yVzLHRN9CrXg/J5s4ChYOaZlxcHJYsW47DR46qKhs2qI/QkB4qu6sGCgdXidGfBDQQqFPpDYS2HAIvz2x2vSkc7GKh8Rkm0Kh9Y/SdOki6AgoHCUe6FpKTkyFWGZYtXyGtMth2SuFgS4P5TEsg5N3BqP9qY+n6I3dFYNOPqyVbRhVyZs+FoV0m4sXiLzntksLBKR5WPoMEKBye3qTFxopVhnAcOXrM6SAoHJziYWVmITCg/RjUeqm+dLlHTv2CmasmSLaMKLxRLQjdmvWHp4dnmt1ROKSJiA7PGAEKh4yfMLHKsDfqJ4RHrLS7ypA/fz4IUZGSKBxSSPB3piZgBuGQO0cejHx/MkoULaN5LigcNKOi4zNCgMIh4yfq8pUrGDV6nKrj0qVKoec/gvHrgQOI3LDJWk/hYEXBTGYmYAbh0KphF7R543270xB/KxZ5cuWDOMRlmygcbGkw/zwQoHDI+Fm0Jxw6tm+HpkGB8PDIiq83bKRwyPhpYY9mJ2BW4SCWELf//DVWfbcIX43bpGxfeEkoKRwkHCw8BwQoHDJ+Em2Fg1hl6NUzBP5+ftaBPPfC4ZUXa6JqudesFywyW6PW41r8VcmWulC0gD+CareWzFdvXFL+aEdKNkcFEd+4VgsUL1IKvjnzInu27Lh97xaux8dAtBN1bAcuRJ91FJ7h9mIFi+OtGs1QrEAACuQpDG+v7AqjKzh35Q+cPP8bfj97BPcf3tM9LvHOgcplqqG0f3kLk6L5/RXl6oGbt+Nx42a00v5R7Dq0XXmpSLKuPnL5+FrGX7FkFQtvH++ceJT4ADcSriE69gqOnd6Pw8oZBWepUY13LGMTPg2qBqrOFCQ9TsJuZYy2aUvUOmVOo21NbsunXnEQ9+z0iHGW+0d0QuHgGuoixYuiZc82UtD2iK3469R5i63sK+XQMrQ1ipbwQ+68uXH75m3EXIzGtmWb8b+f7R8OK1GhpKXNYiX9kKdAXty/ex8XlPZOHDyO71ZtR1JiotRfSiGgbHE06/ZuStHy+9qlGESGrZdsjgpZsmZB6Ed9LNVJSUl4rLyQR/zetz0Kfxw95SjMYq9UpwoatWuMIiWKWa7T08sT8dfjlGuNwaUzF/BN+Bbcir/ltA1HlV7ZvNA8uCXKVS0PwTuHby7cVto6FnUEP27ahbO//2kN7TEmFNmyP/nvIMEu/LOvrPUpmcwqHMRLls6cOZOCAT45fFA8IMBaTs9MdHQMho8ajU4d2yOoSRPLKoNtf8+9cJg/Yg1y5/C1vWbMWfspDhyPkmypC3WrvIU+rUdI5pu34zBwRhfJlroghIr4d7k8OfOlrlKVL8Scw5LNc/DHxeOquowyVC5THV2DesNPEQ7OknhobtqzCpG7Vzhzs1snHoAt6ndWPYhTOycmJeLgCeVAzrb5uHU3IXW13XLhfEUxsMM4TecAbt6Jw/ody7D78Ld221o4OhLeisBzJX2xehIOndznSohm3xThIMRU5O4IbNi9UoqlcJBwpFkYvfAjVH+zpuS3eGIYdm/YiSnrpyOgjOPPwNXzVzC67TDrA7VA0YKYuGKKIjKKSe3ZFsSDcNbgaTi4c7+t2ZLvNakfmnRpqrJ3r94ZdxTBklaq36IhBs8crnKbM2wm9mzcqbILQ5u+HdB+QEd4eT95WNtzFPfboZ0HEDZ+PsS/PWpJHp6e6P/5INR7pz5E3lE6f+IcxrQfjgf3HmDd6U3SVlvy42S0L9dCFZpZhcPdu3fRu99AK49KL7+MUSOGWsvpnUlISICvr/zsTOnzuRcOX45cA/Ft1Dall3AQgqHBq01su0ozLz6k89ZNwf7je9P0dbdDh0bBaP56B5eajbt1A1+snoizl0+nGVdJWWHo1/ZDhX/uNH1tHYRoGDa7R5orHHUqv2kRd6n3+W3bspffeXAblmyZq6oym3AQL3jq3CQUM1d+jNiE66rxUjiokDg1jF08AVUbVpd8IqYvRauebZFLWWFIK91JuIM+DULgV8oPk9dOh/imriUtnbwIW5ZslFyF8Ajbu0SyicLaOSuVn1Uqe2rDJ6s/R8Ua8r/mircpdqoor5KKOPEgn/XNPGXc/qmbcVoWD/fBgX1x/fI1p3458+TCDOXzVLBYQad+KZViJWdI0/74d9RSCocUKHZ+P23hYGdIVhOFgxWFnHF1xaFLYC/V1obcouOSEA+fhY/G8XNHHTu5ucbeHr7WLsR4x4X1d7rVIt47MHf4qjRXGRz1KZb/h88Jcfj6ZCFKRnT9VPrD46gte/aNyurJf3aGS1VmEw7S4OwUKBzsQHFisiccbt6It2wxOAmTqg788CvKV6toWeKXKpwUxHZFcM33cPfWHclrwe7FKORfWLKJlY0BjXpJNnuFNSciVd/sD+85iMkhE1TuM7fOxQvlS6rsWgz37tyziCVHqyBia2LhvnDkUsSDK+nSmYvwK+0vfX654iATpHCQeUilDmPelsruLmTEioN4SH45cq30IUi5jnsP7iqC4BgS7sTDv9ALlj108crg1EnsXw+bHZzanC5l8fbBvm1H2W1bbBdcvXHRctagWMEA1eG7lCBx3qHPZ+0cPtjHhcxAOQcvKxLXGqOcOxDbH4XzFYM4D2IviXMgYZH/tFeF2UMikM+3gKouSRn/yb9+Q0zcFRRUzmoEFC6JvLnzq/yE+Amd0ko5B/Hkffdjg6cjv+/f35oK5S2qihEG27MxjxIfYfKSEcq2yk27vultpHBwjbA94ZC6hUcPH0F8c/fJqf6MpvZNKYstiUQlLqeyny/OHthLB3/Yj6m9JklV7fp3RKch70k2cV92q9oJ927fley2hdpBdTF83mhbkyU/pv0InDp8QrK/FlgXI+arfYWTOL9xWjkPIa63ZIVSCCgboBIjwm/n+u8x/8PZIqtKw+Z+iDpN66nswiCuJSH2pmVbInc+3zSZUjjIGCkcZB5S6XkQDu3e6q7s4XeSrksUNu5ZqXyrXS7ZxbK62JOvUaGuZBeF8WEDcP7qk8MwKgc3GHy8c2D+iNV2BYH4Fv71ruXSAUXx4P2g08fKA179IN2ydy3W7lAvt4oXJ4kVjdTp9r0ETFk6ChdjzklVpfxexNge0yEOUNomIU56TW1ja7LkhdCYNmCRyn7qwu+YqrSf9DhRqgus3QpdmvRSCbstUcr4v1ePXwTbW5F5Wi+Aki7GpkDhYANDQ9aZcLh89hJmDpqGc8f/PrwnlvXHL52kWhGw7eaicpBw4vvjEBcTazF7+3gr+/wfoG6z123dLHlx2DC4hnw+SvhHHFunui9XTF/m9JDkhIjJqFS7itSH2EbpXk39N2j6ptko9VJpyVc8oD8J/shyYNG2QjzcP4+cicIBRWzNEGKqS6W2EHG2qUzlsor/LFuTNS+E0ryRs6xnQkRFlXqvYujskQ63hSgcrPgsmcwoHP4PAAD//2E/c5QAABqxSURBVO1dd0AURxd/Klbsit2AJbGX2HvvvWIXRBQFGygiaKJGxa4odrEXsERFjbHGFmP97NhFxN4rYsN88y7sebPluDvu9jh988/uvH3z3uxvOfa3M2/eJPuXFTCgOAc0MEDLdJV5w9dB+rQZOQOz14+HU5ePcDJxpVrpetCvrS8nfvX2BQyc3pWTYcWn61go+2MlTn7rwXUYvWgQJ9OtTOg/H/LncNKKPsd9gpCtQfDP+b+0MkucdG/SDxpVbi0xvfnAath8cI1EjoKUdqlgxuDlkCl9Fu76x08fwD2wDSfDikfbYVClZB1IkTyF9lpc3GfwneMOT18+0sp0TyoWqwEDnUfqijTn/SZ1gHcfYjh5rZ8bgXsrb0726fNH6D1Bel+CUueG7tCsWnuhCnFf4jRYLw6foZXpngzoGACVitfUFcHZa8dhRugYTmbNytJRW8EuRUquCyv+mAP7Tv3BySxVWR+41+ymW+RvYnabgsGRS8bAz7XLC1Xt8en9J+BVry/Eff6sleFJytSpYPnJNZA6XRpOjpUn9x5D/9q9JXIU/LpiHJSuXpa7Fvc5DjoVlf5Wpm6dBQWKF+R07968A0Mae3Iy3UrY5c1gl9JOVwR7wnbCwlFzORlWlp1aCxkyZ+DkG+eEQViQwm89VUpYeXYdpGRHobx/915zr29evBZEmqP/4l+hfN2KnAwrN85dgxHth0rkKMiZPxfM2bcIkiVPJrn+75d/oeNPrSTy+h0bQv+J/P/S54+eQd/qrhJdcwmSJUsG26L/NJc5k+y8e/cOPDwHatuWLFEC/Hx9tHVrnmzaEg6bt2zVdqF2rZrg7uaqrZt6kux7Ig6j3WdCobxFOawu3PwfTF09ipPpVnJlywt1yzeF63cuw6XIs5KXo66uOc+Dh66VEIAj5/fBws3T9LqxT5Me5viGcWQAG4xa6AXRDyNl2zrl/pG9fGtAEceSEH4oFM7fOCWrJwhX/LoD8AerW8aEDIHIe1d1RdC6VhdoX7cnJ3sb+wY8pzhzMt0K2u3auC/cfRQFFyPPwLNXj3UvS86JOEggkQi+FeLQq0JXePPyjeT+UOAa4A4t3KSENKCjL1w7c0W2Tdac2WDRkeWSay7lu0DMq7ecvHabujBwGv8ywG+uriU7wKcPHzldrOCLGl/Y4uJRoxc8e/hULIY1FzZC6rSpOTkSDCQaSqVig8pQqGRhuHjsAlw+dUlCqIR2craxz26Ve0Ds23eCmuTYtEcL6D3aQyIn4sBDQsSBx4OrfQsjDn3bDIUaZfiRE/zxT1k9EiLYSyoxpUCeH6HsT5WNNnH19gW4dOsc1y575pyakQNOyCo4aoCjBwmVyV6LIHf2/Jza7uPhsHrnAk5mSiVt6nSwwG+jhDgEr58AJy//zZksXbgCDOs2jpNhZdvf62DDvuUSuSkCU4kDjlLkzeFotMu/z+6FJy8fGtWORhyMggvkRhxiXseAS7nOioYqN64GvnP9uev42+74o/TLWFdpw7Wtkq9qv7becPPCDV01jU7YpU2Qwo4fQVg+IQS2LwvndLHyy/LfoEyNnzn547uPwLOOOycTKvMPLgGHvDmEquaI9+zd1Avwq93UUqhUYZi8eaak+eyhM+BQ+H6JXCwI3rsQcjvl4cTfG3GIi/sCsbHKBCsm5h0M8/v6t5c3Tx4YFeDHYcZV2MdRent7TmSpCo04KCBrzFRF7Z8bQ+9WQ2Qt3X0cBYfP7oFDZ3ZDzHv+a0O2gUgY4DoFijqWEkkTrp69fgJmrB3NKeIIR68W/JDf29jX7Eu9E6enVMG2aEO3XI46BxNXjNAVGXyeIV1GcMxdGCoUrQbli1WDTPZZJG3nbAiEE5cOc/JUKVNDSMAWTiZUXsW8gKMXDsDeE1vh8QvjXsSCDTyaShwW+W+CNKnS6poy6Dxk60zN34hByvFKRByMQQtkiUPEiYswuuvXf85ii0UrFIfxYZM5cWxMLPQoozy6hcpyX+M4fI/D+OIiRwair0aBT/Ovw9RCm9CI3zVTKEIdj2unr4JN89frirTncmQJLyL5iTh+AfaE7oRju44qjipoDYlOGndrBn3G9hdJAbqUaC87UiJW9J41HKo356cCvzficONmJIwdN0EMjcn1NGnSwOIF0ukqkw3qaUjEQQEcY4gDDoPP810P9mnTK1j7T/z+YyzcfXxbMwqx7+R2ePn2uV59vDiy11Qo8kPJBPXECnLEwblBL2hRXfoPD/+JGFLE0wjYJvpRJIxa4KW3OcZI1CnXGH5i95E/ZwHImjE7pE6ZRjK6IGdEjjignl+PQChRkP/yErfHuJFHzx/AFTb6cvD0LohicSeGFiIOCSP1LUxVHPnjMMwcPEXxZuWIwzs2DN+zrH6ybQxxKFaxBIwLncT1AX+TnYu1417oGDeB8RO6BV+2XUvJT2ugXi7H3IBf93K/XcEO+nr9/BVEXb4Fp/adgL3rdyf48u/h1wta92knmNAccZoCiYMhpUWv1uA6kh8lIeJgCHLKOkQclLEx+ooawZHYqeIFyrCX2US9P1Bx55++fAy7jm2GXcflv55R35zEwauDP1QuUUvcjUTVMdjRZ5arrI2ffigBzvV7wY/5ixuFi64xJeKAUxuzfFYb9XUfE/uWjV4cgpU75rPgSD4QTtcnnhNxECMirRNxkGIiSIwhDthm1bn1kNaeH6laPHo+7FqzQzAJ/otYMGI9PhjxxvnrMKIdHyOhbRB/0m2YC7Tt10EsVqwjkbh1KRJWTloKF4+el9XzDvKF6i34/yX6pkzERgqyGIopW/ipDiIOYpSMqxNxMA4vvdpqEQfsRF6HH2CEyyTZIXd9nbz3JBoClw+HN+9eSdRMJQ44orFiBz9sZchXuqQDCQhevH4Gg2d2l2jVKdcE3FoOlsiNFSgRB7SDUwJ+PQMlgakJ+Yj98A6mr/0VrkVHKKqqTRwmrRwhiUlR7Fz8BZqqSAgh/rrcsH1SGHHAXg6YMgTqtKvPdTgy4iYMb/11ClSOjOBoCd5DQgWnBTAIU7waI6F2aDvIeyrgS123yK2oQLLh28qw37x9pvSw4n+huiY1Pr6nVRX37z+AtWHrOAx0K2/evIXIW7d0RVCmtPK0dfZs2cDVpQenb6kKTVUoIGvMVIXYBAbINazcCgqzlRYpUvBBT2JdoY6jDz6zXISq9pgiuR0kT55cWzf0BJcniotn+xFsmWRtsRhwqaSp5cGzuxAwn5/rlIulkLOPfXwd8xIePr+vmb5pXq2jZLpHH3EQbDrmKgSta3eF0oXKA8Y/GFLwngfN6C5L1rC9qcQBl0fqGxaW6xt+4eG0irGFiINxiCVl4oDLFOfuX8zdEL6sOxVrA19YEJ3clMmnj5+gS3F+uoAzIKrg8tKm3ZtDPeeGkLdgPoP/Tg9u2Q/Bw2Zw1rwmDYa6HRpwslfPXkJvtqLCkFKhXiUYsegXTvV7G3Hgbl6mQqsqZEARRNZYVTF340Q4HnFI6ILssXGVNtCtMb9kSCmPg6yBeCEuSaxYvLpmKiOvg6PeofVNB1bBloNr9ZlL1LWO9V2hZQ1+bvZy1HkW3OiXKLvixsHD2JJPmUBHjPFA3E9EHGZLIk9rArR028q1M4Q46NrIlimHZgloqcLl4YecBSGjfWbdy9z5zXtXYGyINycTKqYSB6G9GkciDsahnJSJA97JoiMrIGvOrNxNzfULgv2/7wPfeQFQuVFV7trJfcdhssd4TmZoJXmK5FCGxUxUbFgVirMYi9xOuSUrO3RtDWOjh1GXI7Ui50FdwXlQF20dT5Re/JxSfKW7rwu08eCnT5TaUx6H/0CjPA46f0mWJg5zfdcBRu/rlvBDa+H3/at0RZJzuRUEphAHsWEMDnRv7Q0FGKEQlztsBcZI0de7WCcxdbnVHy/fPGdf3t0SY5ZriyMk+EITf3WfvnoUgtcH6o0tWOy/GVKnSsPZM5Y4cI1ZJUO6TIwA9gUcQRKXz2zUwW18S7FYUyfiIAsLJ6QYBw4OriI3raC0qkJo2MWnB7T35IOXr5+7Cv7th8Hq8xsgjSgR1fA23hB5kV/eKdgy5VipYRVNoiVxwii0tXXJZlg5canWbN329cFr8tdpFOGCUj4J4bpwlEuSRcRBQOe/I4048HhwNUsTh+mDl4FD5lycz4SSM6HynGGhkq9VQ4kDvjwTCr6TIzT4Rd53ouFDj9xNGVDJnD4rzB4qzRg3ZGYPeP5amjzGAJMSlXJFqsKQzr9ycszSiC9oHJJXKviM8FmJiyHEwRC8fbqMkc2H4TW1E5uueC12Kz9VIbPEVdJQRQGNOBgHdlIfcUiXwR5WnA7lSDdmnBzZaThM+n06d7OYsAoTVxlThGyN+IJWKhmyZISlJ1ZzfUBd8bJVpSRX+zbshvn+wUrmtfIVp8PAPiOfc4CIgxYezQkRBx4PrmZp4jDGPQgK5i3C+cQXmHdQT8WXZZdG7tC0qnRZkRxxwIDIDvVcNImRhGWGMe8xiyE/JcB1gFV6tRjIciI048QJpU3mlE2sBHmvZMshHbjWuDLCN9g9QbIzzmOOZvgfszQ+en4Pbt2/Dn+x9MYY3CmUVjU7a/AQ6njUt/JC0BOnhBbkYuKAIxkeLBU44p4tkwPYp8mgUR0wrYtivAIqFGJ/A6PZ34K4DJvdSzbfg9yIw/2nd2DE3L5iE1arE3EwDvqkThzwbmbsYL+xnxy5G8PVCjny5eRkf67aDkvGLuRk4kqVJtWgYeemmmmITNkyazJInjn0P5jgNkasytXlkjPdZCMbfmyEQ7eEHFsFmbNLpwJHdfaDKyzjpFKRW4qJukQceMSIOPB4cDVLEwecFqhVthHnEyvPXz+BMYuHSHIp9G83HKqWqivRR4EcccDMjmP7zJboL902Cw6c3imRC4KpA5dAzqx85jTs05CZPQUVixw71pfGOaCjhKZJ6ldoDi7NB0j6tHLHPNh7cptWLrfnBE4JYDpoHFGRKziN4NFmmOQrB3XFxAFlS0dtY3s08EGnmM562ho+2Ap1hYIrPHClh25BAunyG0/ehOtyfzcYwNgnkK2tT2App2DD0kciDsYhbAvEoVHXptD3N88Eb6x3lR7w6ulLvXpy6bLx5TykiSfci7wr2zZj1kyadNni1ReHww/ArKH8qEe/wIHQwFn6vxUTZLlV7AYYvCkuxSuVhLGrAyVZNVGPiAOPFhEHHg+uZmnigF+mEz3lmTlG1kfcOsu+mG+DY67CgCQA8wMoFTnigLpy0w74Utp+ZD1s2r+ae9FgjAOSk3w5nCRujkcchLkb+UQwEqVECnBYf77fetkgTfyiXr49WJMwSXCTiQUXerL8D8WcSgsi7RFXROCXvm7BUZcgb2n8CO4NMXlVADx8dk+rjvEHGISKoxRKRY44KE074BTUIrbnxivWL6HgBmcuzT1Z/oragkh7VFpKigotqncE5wZuWl3hBGNC/vhnA1sN8goysv7ry8EhtLHUkYiDccjaAnHAoMXQCExBnULx5h7efgAD6ic88oWxCkvZJl3ieCNM1DTPfzYc3nqQ84EjFP0DB0mmEFBp2oCJcGznP5w+2g85tlI2qPIt25NjRWAISz99UJPECgmJ68jeULNlHVnSgIaJOHDwAhEHHg+uZmnigM5mea+GLBmzcX4TquCLX/yDUyIOmOSoRQ0+qEmwj/P7mNYZSUo6tlGUUjpi9Oc1tbNGV2hrqWMxpzLgz/JNKBXs60e2VDIVy/iobzkpprTGDJXiIhdXIuhgSugvX75AutT2kkBIQUf3KEcccPklTpvIFcQRU3u//xCrIYHp0thLnqPQTm4fDOGaUsyFcF044o6ccktfheuWPBJxMA5dWyAOeEdj17CsqJVLKd4cBilisKIhZRrbfdNJtPum0A5HBP7b8TIZ20EzvSSVtaCnbyfKVu5toecIKcEW2uJR7n+p7nXhnIiDgMR/x0+fPsGIgF/Y/7IPGkHF8uVUy9PA90Ra++bzOOAt41f+eI+5ii8QKSygGS0Qp2dWIg7YXm6HTDm7SrLlbDtkjBdQq7St3Q3a1pEmbjLUP27ehSMIcsWULJpoB6c0xFMQcsQBdXF3TNwl09Ry6so/MHvdOL3NDUm+pY986DVuhotEHIwD0VaIw8+1ysHIpWNlbw5frp1Z7gbxFuCyykyIwY64jbU4EFFJXyz//Okz4OZct69EiS9p65guG9NmG1NO/XUCMJeDbiHioItG0j7/LogDPgLcvbJPa58EyQOy45Us42L0o1vwixs/p6ePOKAPU8gDft0jaTh4ZheaULXgCoiBHQP0jiqIO4T9xd0w9yVAcpCs/eo2w6BRBfSxh21KVZLtPSHefVOJOGAbfSM9eF2u4PM9fG4PhITPlLsskSlNiwiKuIHZ4nA+OY5wzdJHIg7GIWwrxAHvag1bfplatPwS5VdPX4aRzsPx1OCSiQUwzto1H9KzbI3GlLds5cbo7gF6SYNgz2e2H1RrVkOo6j1ePHYepg+YBMtOreX0iDhwcCTpyp87d3NZL2vXqgnubq6J7nMy9g9aec2Pjnk1pioEdxhX0JulRC2Yp4gsgYh6cAOWbZ+tWS2ALzDcRlq3JEQcUBc3XuraqI9mlEO3rfgct7E+d/0k4K6ImALZWgVjANrX6wnVWYCi0jQK9g2H4xGfoLCxsssX5fqP+TNGMfKVO1s+ucsaGcZJ4Ff71eiLGryNIQ5oIEeWXNC9aX8oU7ii7DMVHOOUEW5yhYRBdxWIcF3fEUc2mrOYBzl8MG31+GXD9DW32DU54qDmCMj3msfh5ZMX4F5VfxDzcvZSTM9iAHSLV90+8OjOQ12R4vnQYD+o2lT6Ip7cbzyc3HtcsZ2+C81cWkK7fh0hs0MWfWqa6QvcIyMsSLp0W19DHEHo6e8GeQrklVXDqZHNCzbA+tmhgEtPV54J4/SMIQ73b92DQQ37ce3NWcFp6m3Rf5rTJNkyAIEkSRyEfmNaYkzA5MBeOjFsaSGu47/98KZZ56rxheyUpzDkY9ki8WWIc+1IPDBI8NKtcxp/Qn+SyhGzXDrmKqjpLy51xL5eibqgCZZUWhFhSN8xCLJm2YbMbj7NVASSpmvRlxgOZ+HFm2eGmEhQB3fgdGJbdONIRx6Gd+YMWTXP9tmrJxrCg6suElvQB46KYMDtCxYkiTuD3mEjU99rsTXiYEvPadB0H6jVml/d9SH2A3RjO2EmtuTIlwMKlGC/lcL5ITd7ySdnL8nnj5/Dk3uP4fjuo/CCnSemoP2i5UuAU7ECLHYiA1w9cwVO7Dmm2YFTsGsMcRDaqHkk4qAm2l99JWni8LWbdEYIEAKmIkDEwVTk9LfDRE2rz7GpirT8vitH/zwC0wcqBzXrt5q0rhJxSFrPI6n0hohDUnkS1A9CwEIIEHGwDLBK22D7NBsA0dduW8apylaJOKgMuI24I+JgIw+KukkImIoAEQdTkePb4dD+k/tPNHkMMA6h16g+kngdS8/p8z2yfI2Ig+UxtkUPRBxs8alRnwkBIxAg4mAEWAqquRxza5ZL4mWMJxfnjhGamXtDK8GutY5EHKyFfNL2S8QhaT8f6h0hkGgEiDgkGkLN6EJz11Z6DUUcvwCju8nnTNHbMAlfJOKQhB+OFbtGxMGK4JNrQkANBIg4JB7leQdCJBtY6VqNvhrFdsf0g9i31luyrdsfc50TcTAXkt+WHSIO39bzpLshBCQIEHGQQGK0YMP1rbLTEzhtgTtgLv2NzyVjtIMk2oCIQxJ9MFbuFhEHKz8Ack8IWBoBIg6JR7hszXJQqVFVcMjrAO/ZrpKPoh/C2b/PwKUTF+FL3JfEO0iiFlKmTgWBG6ZyvXv64AlM9hjPyaxVoTwO1kGeiIN1cCevhIBqCBBxUA1qcqQyAkQcVAY83h0RB+vgTl4JAdUQIOKgGtTkSGUEiDioDHi8OyIO1sGdvBICqiFAxEE1qMmRyggQcVAZ8Hh3RBysgzt5JQRUQ4CIg2pQkyOVESDioDLg8e6IOFgHd/JKCKiGABEH1aAmRyojQMRBZcDj3RFxsA7u5JUQUA0BIg6qQU2OVEaAiIPKgMe7I+JgHdzJKyGgGgJEHFSDmhypjAARB5UBj3dHxME6uJNXQkA1BIg4qAY1OVIZASIOKgMe746Ig3VwJ6+EgGoIEHFQDWpypDICRBxUBjzeHREH6+BOXgkB1RAg4qAa1ORIZQSIOKgMeLw7g4lDl1+aQFzcZ+v0krwSAoSASQikSGEHoeN2mtRWX6M2BVrA58/0/0AfRnTN8gjYpbSDLZHbLe+IPHAIGEwchs5yhzuPorjGVCEECIGkjUD+nE4wfXCI2Tvp1cADbl+9bXa7ZJAQMAYBx6JOMHfPAmOakK4ZEDCYOKzZuRjCD60zg0syQQgQAmoh0LpWJ+jWpI/Z3S0PXAIb528wu10ySAgYg0AHT2dw9XczpgnpmgEBg4nD05ePYeD0njRdYQbQyQQhoAYCOE0RPHQlZM+cw+zuntx7DH1quNF0hdmRJYOGIoDTFIv/XgYOeRwMbUJ6ZkLAYOKA/vad3AELN88wk2syQwgQApZEwKOtD9Sv2MxiLnaF7oTg4UEWs0+GCQF9CAyaMgQadWmiT4WuWQgBo4gD9gHJQ8jW2TTyYKEHQmYJgcQigCMN7q0GWZQ0CH1E8jA/YA6NPAiA0NHiCOBIQ/8JA6AxkQaLY63kwGjigIZw2mLXsXA4ffU43H96l0iEErokJwRUQgDJQp7s+aBckcrQuEpri0xPKN0KTlv8sWIbnPzrBNy7eY9IhBJQJDcZATs7O8hbKB9UrF8Jmru0pOkJk5E0T0OTiIN5XJMVQoAQIAQIAUKAELA1BIg42NoTo/4SAoQAIUAIEAJWRICIgxXBJ9eEACFACBAChICtIUDEwdaeGPWXECAECAFCgBCwIgJEHKwIPrkmBAgBQoAQIARsDQEiDrb2xKi/hAAhQAgQAoSAFREg4mBF8Mk1IUAIEAKEACFgawgQcbC1J0b9JQQIAUKAECAErIgAEQcrgk+uCQFCgBAgBAgBW0OAiIOtPTHqLyFACBAChAAhYEUEiDhYEXxyTQgQAoQAIUAI2BoCRBxs7YlRfwkBQoAQIAQIASsiQMTBiuCTa0KAECAECAFCwNYQ+D/epeLIlQsPsQAAAABJRU5ErkJggg==;" vertex="1" parent="ue6O0AK6JI9zVMHHh_M3-12">
          <mxGeometry x="113.06" y="272.71000000000004" width="51.88" height="11.24" as="geometry" />
        </mxCell>
        <mxCell id="ue6O0AK6JI9zVMHHh_M3-35" value="Profiling data" style="text;html=1;align=center;verticalAlign=middle;resizable=0;points=[];autosize=1;strokeColor=none;fillColor=none;" vertex="1" parent="ue6O0AK6JI9zVMHHh_M3-12">
          <mxGeometry x="270" y="225.00000000000003" width="90" height="30" as="geometry" />
        </mxCell>
        <mxCell id="ue6O0AK6JI9zVMHHh_M3-10" value="&lt;br&gt;" style="html=1;shadow=0;dashed=0;align=center;verticalAlign=middle;shape=mxgraph.arrows2.arrow;dy=0.6;dx=40;notch=0;fillColor=#ffcc99;strokeColor=#FFB570;fontColor=#A17246;" vertex="1" parent="ue6O0AK6JI9zVMHHh_M3-12">
          <mxGeometry x="240" y="255" width="150" height="30" as="geometry" />
        </mxCell>
        <mxCell id="ue6O0AK6JI9zVMHHh_M3-3" value="&lt;b&gt;&lt;font style=&quot;font-size: 18px;&quot;&gt;Nodes&lt;/font&gt;&lt;/b&gt;" style="text;html=1;align=center;verticalAlign=middle;resizable=0;points=[];autosize=1;strokeColor=none;fillColor=none;" vertex="1" parent="1">
          <mxGeometry x="90" y="485" width="80" height="40" as="geometry" />
        </mxCell>
      </root>
    </mxGraphModel>
  </diagram>
</mxfile>
